<svg xmlns="http://www.w3.org/2000/svg" width="615" height="765.816" viewBox="0 0 615 765.816">
  <g id="Grupo_10" data-name="Grupo 10" transform="translate(-254.546 -1409.124)">
    <g id="Grupo_9" data-name="Grupo 9">
      <path id="Trazado_3" data-name="Trazado 3" d="M254.546,1660.633c61.574-5.879,123.462-1.827,186.244-4-1.407-8.859-2.8-17.244-4.04-25.639-1.356-9.214-2.65-18.429-3.79-27.679-.868-7.043,2.746-11.276,9.476-11.724,8.467-.551,17.858-3.655,24.162,5.664,5.754-11.491,20.576-10.431,34.087-6.629,10.742,3.025,17.1,13.137,15.742,25.155-1.232,10.9-3.814,21.6-5.84,32.4-.5,2.757-1.123,5.505-1.952,9.5H631.382c-1.306-8.137-2.752-16.489-3.938-24.872-1.453-10.162-2.723-20.361-3.977-30.533-.711-5.767,2.3-9.466,7.633-10.34,8.419-1.385,17.044-2.725,25.063,2.792,3.71-6.357,9.7-7.684,16.143-6.663,7.706,1.2,16.218,1.521,22.745,5.175,11.672,6.51,13.356,18.307,11.177,30.735-2.048,11.739-4.13,23.469-6.314,35.873,53.623,3.411,107.226.863,160.248,7.383.085,1.175.143,2.367.228,3.552-3.207.528-6.4,1.578-9.59,1.538q-41.93-.562-83.87-1.487c-21.268-.465-42.53-1.129-63.787-1.879-4-.146-6.227.824-6.891,5.131-.645,4.2-2.029,8.284-3.086,12.388,12.5,1.31,24.532,2.332,36.494,3.938,10.469,1.39,11.054,2.627,11.287,13.38.862,41.822,1.145,83.655,3.065,125.414,1.282,27.765,6.568,54.918,19.439,80.216,8.19,16.108,7.94,32.065-2.031,48.306-34.684,56.467-79.507,103.942-130.033,146.052-23.986,19.992-50.089,37.458-75.608,55.543-6.917,4.914-14.952,8.55-22.93,11.6-29.009,11.076-54.93-1.278-65.389-30.632-5.764-16.173-6.485-32.7-3.722-49.5.579-3.472,1.124-6.939,1.969-12.155-7.5,7.14-13.856,13.12-20.116,19.181-25.921,25.086-54.248,46.855-86.684,62.879-13.04,6.442-27.2,10.1-41.573,9.051-22.289-1.645-38.229-17.67-43.761-42.015-6.776-29.8.874-57.318,14.192-83.715,12.671-25.156,30.892-46.463,47.927-68.629,14.544-18.9,28.946-38.059,41.5-58.284,9.982-16.052,16.3-34.466,16.52-53.555.453-37.735-.625-75.494-1.022-113.242-.159-15.525-.385-31.062-.215-46.6.153-12.535,1.667-14.221,14.249-14.89,10.486-.549,21.029-.232,31.543-.3,2.305-.017,4.615,0,7.7,0-1.147-7.1-1.72-13.289-3.343-19.2-.465-1.651-4.051-3.421-6.231-3.444-22.471-.272-44.948-.238-67.425-.238-28.453,0-56.9.215-85.333-.017-9.693-.069-19.356-1.163-29.032-1.788C254.585,1662.761,254.574,1661.706,254.546,1660.633Zm297.245,237.434.153.125c.6-1.724,1.174-3.432,1.776-5.164,1.69-4.879-1.328-9.895-5.9-9.759,4.978-4.216,1.432-7.656-1.684-13.449-4.545,12.184-8.439,22.613-12.331,33.049q.909.381,1.821.8c1.471-2.6,2.837-5.232,4.421-7.739,1.64-2.6,3.473-5.045,5.226-7.571-3.064,6.43-5.913,12.961-9.244,19.237-6.1,11.531-6.6,23.737-5.7,37.021,8.749-12.672,16.932-24.525,25.1-36.346-7.377,12.467-14.21,25.337-22.391,37.243-3.19,4.629-2.747,7.87-1.107,13.38,9.833-14.31,19.033-27.692,28.23-41.079a8.858,8.858,0,0,1-1.651,6.146c-8.143,12.353-16.439,24.589-24.434,37.044-1.254,1.941-1.208,4.715-1.753,7.1.748.334,1.5.653,2.225.964,4.8-6.128,9.635-12.234,14.361-18.414,5.623-7.319,11.252-14.612,16.649-22.068,1.777-2.44,4.733-6.242,3.939-7.888-2.781-5.845-6.958-11.009-10.607-16.438-.845-3.139-1.718-6.259-2.689-9.778C554.15,1896.167,552.971,1897.115,551.791,1898.067Zm-64.435,251.242c1.391,1.543,2.519,3.416,4.187,4.545,9.784,6.662,20.724,7.61,32.2,6.678,8.092-.645,7.871-8.738,12.235-12.636a12.269,12.269,0,0,0,1.35-1.663c12.744-16.587,25.5-33.191,38.8-50.492-9.182-10.681-18.675-21.757-29.343-34.188-13.04,18.095-25.564,34.851-37.361,52.1-7.922,11.575-14.811,23.861-22.159,35.834,1.753-4.653,2.933-9.631,5.35-13.9,13.944-24.593,29.5-48.058,48.671-68.962,1.561-1.708,2.99-3.554,4.637-5.51-13.348-13.518-26.064-26.9-43.15-36.232-7.2,13.845-14.328,26.733-20.6,40.034-2.939,6.241-4.2,13.284-6.219,19.957.306.086.642.164.965.25q15.764-21.195,31.55-42.423c.613.447,1.22.9,1.833,1.344-1.759,2.406-3.592,4.762-5.249,7.235q-14.13,21.128-28.168,42.31c-4.409,6.662-3.258,13.868-2.174,22.6,14.658-25.576,29.991-48.819,49.074-67.845-14.487,21.467-29.258,43.966-44.807,65.932-4.976,7.025-3.864,12.784-.606,19.845,5.844-9.733,11.11-19.011,16.876-27.993,5.685-8.819,11.666-17.506,17.926-25.921,6.179-8.3,12.9-16.191,18.958-23.766-16.047,24.878-32.322,50.163-48.688,75.388C478.64,2139.225,479.513,2143.68,487.356,2149.309Zm222.239-203.921.14.114c.971-3.121,2.658-6.2,2.8-9.347,1.147-25.557,7.632-49.409,21.621-71.04.886-1.385.919-3.551.788-5.316-1.7-22.608-3.778-45.175-5.179-67.788-.676-10.844-.11-21.757-.11-31.868H596.415c.153,3.324.317,5.447.341,7.558.278,30.773,1.486,61.585.556,92.32-.964,32.014-10.674,61.4-31.857,86.376-12.343,14.562-24.23,29.543-36.209,44.433-7.706,9.567-15.22,19.281-22.6,28.661,37.871,22.518,63.526,55.458,89.3,89.2,4.845-10.259,9.294-19.708,13.761-29.156.584.284,1.151.545,1.742.812-4,8.836-8.087,17.653-11.916,26.567-.836,1.976-.75,4.336-1.1,6.51.7.2,1.4.381,2.094.585,3.519-2.826,7.224-5.448,10.543-8.507,14.056-12.949,28.168-25.836,41.9-39.138a60.946,60.946,0,0,0,10.577-14.129c7.514-13.562,14.47-27.448,21.677-41.191,1.053-2.031,2.262-3.973,3.4-5.948.4.233.816.466,1.225.716q-10.887,22.138-21.784,44.267c.591.362,1.164.715,1.742,1.077,7.957-10.923,20.763-16.886,25.188-31.964,4.088-13.93,13.121-26.4,19.861-39.568.9-1.793,1.766-4,1.549-5.9-.975-8.55-2.263-17.051-3.727-25.536C712.5,1947.113,710.668,1946.314,709.595,1945.388Zm-170.816-185.12h-133c0,4.141-.033,7.206,0,10.287.285,27,.648,53.981.863,80.987.25,31.874-9.238,60.685-28.083,86.321-10.612,14.413-21.671,28.527-32.663,42.656-10.072,12.938-20.343,25.74-30.341,38.388,40.231,24.214,67.629,59.595,94.577,96.394,13.024-12.1,25.3-24.475,38.593-35.636,17.2-14.431,30.83-30.415,36.112-53.216,3.133-13.585,9.687-26.369,14.708-39.517.5.181.988.362,1.487.527q-6.179,18.462-12.353,36.9c12.716-16.17,27.788-30.732,30.512-52.681.681.311,1.351.612,2.032.907-.778,4.12-1.544,8.223-2.6,13.835,5.26-4.8,8.813-7.871,7.264-14.464-5.653-23.941-5.17-47.922,2.23-71.466,3.79-12.053,5.941-24.94,15.157-34.751a7.045,7.045,0,0,0,1.491-5.158c-.879-6.453-2.178-12.842-3.655-21.047-12.868,19.311-24.8,37.231-36.736,55.128-.692-.481-1.385-.947-2.077-1.413,11.844-17.256,23.805-34.433,35.432-51.819a18.443,18.443,0,0,0,3.178-9.931c-.431-18.63-1.413-37.225-2.111-55.849C538.6,1770.441,538.779,1765.21,538.779,1760.268Zm-37.555-72.328c14.3,1.453,28.033,2.621,41.719,4.34,9.182,1.163,9.579,2.344,9.614,11.525.141,41.079-.682,82.209,1.2,123.2.874,19.032,6.474,37.962,11.133,56.66,2.169,8.683,7.156,16.638,10.862,24.922.681-.129,1.35-.272,2.02-.414,1.072-3.6,2.5-7.132,3.149-10.81,7.859-45.049,7.173-90.288,3.553-135.667-1.573-19.5-2.044-39.115-2.243-58.664-.09-9.624,3.769-12.66,13.393-12.961,6.452-.192,12.9-.067,19.35-.084,7.038-.006,14.068,0,21.665,0-1.017-6.209-2.271-11.088-2.508-16.02-.267-5.464-2.974-6.667-7.814-6.645-14.089.034-28.186-.238-42.275-.414-23.651-.317-47.3-.72-70.943-.828-2.384-.017-6.321,1.163-6.889,2.752C503.954,1675.035,502.768,1681.623,501.224,1687.94ZM299.847,2150.318q20.921-42.837,41.718-85.4c.715.346,1.425.681,2.14,1.026q-20.352,43.463-40.7,86.947c6.521,5.475,13.716,5.809,20.844,4.993a9.812,9.812,0,0,0,6.639-4.733c10.849-22.6,21.319-45.379,31.937-68.1a24.2,24.2,0,0,1,2.337-3.414c.459.26.942.544,1.418.794q-15.951,36.117-31.908,72.2c14.522-4.352,31.058-4.533,37.043-22.369,1.958-5.828,5.324-11.208,8.121-16.751,1.5-3.008,3.172-5.913,4.778-8.852.681.334,1.351.645,2.032.981-5.017,10.691-10.021,21.387-15.81,33.725,11.242-6.061,21.269-10.147,25.309-23.646.976,3.9,1.328,5.276,1.827,7.24,2.048-1.845,3.586-3.224,5.357-4.818-25.49-36.493-52.989-70.421-91.088-96.49-6.911,12.308-13.233,23.549-19.554,34.808.453.244.918.494,1.373.761q7.234-12.207,14.458-24.407a10.2,10.2,0,0,1-1.509,6.009c-5.2,9.948-10.169,20.026-15.718,29.775-8.853,15.553-10.146,32.209-7.275,49.277,1.248,7.378,4.335,14.43,6.588,21.62.676-.182,1.334-.4,2.009-.579q18.173-39.579,36.333-79.153c.682.328,1.363.646,2.044.964-11.406,25.371-22.511,50.872-34.423,76.011C293.456,2144.44,294,2147.266,299.847,2150.318Zm417.089-437.383c.636.4,1.266.8,1.918,1.2-7.78,12.319-15.564,24.639-23.565,37.345h32.736v-11.407c-1.917,2.282-2.912,3.536-3.984,4.733-1.09,1.225-2.258,2.388-3.393,3.587,3.343-8.354,11.672-14.845,6.428-25.831-6.182,8.694-12.069,16.977-17.948,25.247-.68-.472-1.368-.949-2.048-1.426,1.867-3.189,3.5-6.526,5.646-9.5,4.489-6.187,10.011-11.758,13.608-18.409,2.151-3.978,2.246-9.624,1.578-14.272-.217-1.419-6.022-2.507-9.352-2.871-6.167-.681-12.484-.158-18.58-1.129-8.12-1.276-12.46.823-14.5,9.5-2.2,9.363-6.707,11.69-16.457,10.991-4.986-.369-9.935-1.463-14.933-1.662-2.085-.079-5.239.681-6.182,2.161-6.74,10.55-13.023,21.388-19.452,32.13.692.744,1.373,1.494,2.072,2.242,2.689-1.232,6.351-1.73,7.892-3.8,6.379-8.625,12.082-17.75,18.125-26.636a17.851,17.851,0,0,1,3.157-2.872c.443.363.9.715,1.337,1.079q-9.481,15-18.964,30.023c13.915-1.646,13.822-17.21,25.264-23.838-5.056,8.84-9.181,16.065-13.3,23.231,11.736,0,22.414.284,33.061-.216,2.315-.108,5.158-2.53,6.629-4.67C701.65,1736.36,709.237,1724.608,716.936,1712.935Zm-194.108,37.526c-.743-.477-1.471-.975-2.2-1.458,4.5-6.508,8.37-13.585,13.647-19.361,5.721-6.26,6.492-13.2,6.548-20.957.03-4.284-1.429-6.207-5.515-6.48-11.435-.76-22.857-1.685-34.286-2.1-1.611-.045-3.96,2.06-4.852,3.756-5.055,9.7-9.646,19.623-14.662,29.354-3.427,6.645-7.292,13.087-10.958,19.611.351.642.687,1.279,1.033,1.907,3.62-1.373,8.829-1.7,10.577-4.312,7.411-11.094,13.76-22.9,20.542-34.4a44.464,44.464,0,0,1,3.075-4.1c.613.375,1.215.761,1.833,1.123q-11.226,19.748-22.477,39.485c.5.692.982,1.4,1.482,2.087,3.047-1.788,7.3-2.831,8.948-5.492,6.549-10.526,12.212-21.586,18.352-32.362,2.156-3.785,4.777-7.3,7.194-10.957.506.317,1.006.629,1.51.946q-12.266,22.32-24.525,44.631c.7.783,1.413,1.56,2.128,2.327,3.126-1.629,7.479-2.458,9.175-5.033,6.027-9.154,11.1-18.937,16.662-28.391,2.212-3.756,4.766-7.314,7.161-10.963.555.34,1.123.682,1.69,1.022-7.535,13.512-15.07,27.027-23,41.271,8.557,0,15.871.153,23.163-.147,1.391-.052,3.826-1.811,3.893-2.884.364-6.463.182-12.977.182-21.046C533.081,1736.043,527.957,1743.255,522.828,1750.461Zm-98.971,1.845c-.532-.358-1.054-.7-1.588-1.044,8.137-17.16,20.746-31.517,31.675-47.706a256.947,256.947,0,0,0-30.211-2.281,5.285,5.285,0,0,0-3.155,1.237c-13.421,10.759-20.309,36.47-14.283,53.562a36.175,36.175,0,0,1,4.824.033c15.094,2.026,25.025-3.79,30.818-18.231,2.564-6.407,7.763-11.753,11.768-17.575.42.306.83.59,1.25.89q-9.661,16.148-19.311,32.312c.584.6,1.151,1.2,1.742,1.793,3.575-.731,8.83-.228,10.442-2.405,7.7-10.414,14.419-21.581,21.682-32.766-6.282-2.422-14.726,1.066-17.257-9.636Zm174.056-17.45c-.59-.266-1.168-.539-1.754-.8,1.936-12.484,10.072-22.329,15.7-33.139-8.271-3.478-12.261.165-15.417,6.956-7.564,16.242.119,32.074-.64,48.433,9.68-.523,18.021-.771,26.3-1.6,1.766-.192,3.831-2.174,4.859-3.87,4.708-7.734,8.484-16.1,13.77-23.4,4.506-6.219,6.267-11.764,1.392-19.209-9.336,14.851-18.465,29.4-27.607,43.933-.862-.556-1.738-1.1-2.6-1.651q15.015-23.46,30.042-46.907c-21.315-7.6-26.989-5.43-36.335,14.017-1.356,2.8-2.536,5.658-3.8,8.489C600.512,1729.017,599.218,1731.934,597.913,1734.856Zm51.66-21.636c7.309,0,13.224-.3,19.091.1,4.478.313,6.485-1.2,7.284-5.629,1.966-10.793,4.338-21.524,6.493-32.3,1.713-8.57,3.348-17.15,5.073-26.054-10.873-1.208-20.746-2.309-31.959-3.568C653.615,1667.772,651.669,1689.732,649.573,1713.22Zm-184.235-67.454c-1.957,21.1-3.931,42.3-5.975,64.321,3.445,0,5.532-.09,7.61.011,20.893.948,17.274,2.242,21.358-16.535,3.179-14.6,5.914-29.309,8.915-44.256C486.522,1648.115,476.62,1647,465.338,1645.766Zm-22.891-14.192c1.141,6.877,2.134,12.723,3.076,18.567,1.271,7.87,2.52,8.551,11.15,5.425-2.751-.942-4.976-1.708-7.19-2.474.092-.341.166-.669.25-1.011,2.894.234,5.8.466,8.944.733,2.122-13.733,4.188-27.017,6.315-40.681H448.111c-.023-.25-.035-.494-.062-.743q8.041-1.005,16.109-2.009c-1.458-6.281-10.316-7.826-25.757-4.455,1.028,6.992,1.8,14.079,3.3,21.014.29,1.367,3.252,2.836,5.136,3.08,3.847.471,7.8.13,11.712.13-.017.812-.046,1.629-.08,2.424Zm118.054,509.1c.3.33.607.664.907.982,10.345-7.207,20.679-14.413,31.455-21.922-5.379-7.654-10.123-14.413-15.656-22.266-14.476,19.809-28.214,38.6-41.946,57.4.612.528,1.2,1.044,1.816,1.577,3.461-1.991,7.059-3.768,10.351-6.043,3.007-2.077,6.2-4.25,8.38-7.111,8.715-11.291,17.057-22.879,25.525-34.353.663.5,1.327,1,2,1.492Q571.917,2125.558,560.5,2140.672Zm89.924-497.924c.717-5.272,1.4-10.25,2.158-15.805h-14.1c0-.3,0-.572-.011-.857,4.891-.307,9.794-.59,14.958-.9.33-2.878.613-5.375.965-8.472H635.365c.007-.217.007-.449.017-.682,6.554-.646,13.137-1.3,20.2-2.008-.421-2.622-.749-4.6-1.094-6.713l-25.019,2.8c2.372,14.862,4.953,29.134,6.78,43.484.652,5.141,3.308,5.3,7.154,5.578,4.592.335,5.879-1.976,5.949-5.919.045-2.513.283-5.039.43-7.66-3.364-.322-5.867-.568-8.375-.818,0-.26-.011-.521-.023-.776C644.309,1643.582,647.237,1643.185,650.425,1642.748Zm73.009,331.08c.93.432,1.861.846,2.793,1.277,9.277-10.509,18.51-21.085,27.85-31.545,8.171-9.135,8.744-15.014,1.312-27.583-11.249,12.989-22.274,25.4-32.852,38.223-1.368,1.647-.464,5.182-.606,7.854,11.564-12.184,21.279-24.656,33.9-34.217-9.505,12.586-19.509,24.689-29.14,37.077C724.836,1967.285,724.474,1970.821,723.434,1973.828Zm-253.283-356.9c10.214.647,19.667,1.424,29.133,1.748,1.634.045,4.21-1.317,4.891-2.725,3.882-8.148.648-15.179-8.046-17.783a50.26,50.26,0,0,0-9.823-1.7c-13.6-1.168-13.641-1.078-15.27,12.541C470.752,1611.36,470.5,1613.71,470.151,1616.928Zm190.426.035c9.857.612,18.624,1.344,27.407,1.577,2.14.056,6.027-1.209,6.192-2.321.592-3.933,1.544-10-.555-11.725-7.82-6.411-17.092-10.5-27.738-7.824a5.633,5.633,0,0,0-3.381,3.614C661.581,1605.606,661.219,1611.032,660.577,1616.963ZM484.859,1721.221c-7.763-2.872-12.784-1.113-16.5,5.731-3.392,6.253-7.739,11.973-11.53,18.034-1.645,2.62-2.94,5.475-5.414,10.152,6.639-1.113,13.37-.285,15.265-2.911C473.527,1742.676,478.753,1731.985,484.859,1721.221Zm266.359,184.1c-10.266,12.121-19.612,22.845-28.533,33.906-1.69,2.11-1.725,5.56-1.975,6.423,10.573-10.424,21.848-21.569,33.118-32.708.635.414,1.271.846,1.894,1.26C754.491,1911.761,753.25,1909.338,751.218,1905.32Zm-55.249,118.173c.261.215.511.431.766.646,6.293-6.725,12.638-13.38,18.853-20.173,9.061-9.879,9.014-9.912,1.463-22.432C709.951,1995.681,702.962,2009.578,695.969,2023.493Zm31.66-36.965c.878.188,1.753.386,2.638.585,9.369-14.965,24.31-26.172,28.957-44.37-10.93,11.627-21.213,23.732-31.058,36.2C726.872,1980.588,727.752,1983.957,727.629,1986.528Zm-6.6-51.071c9.058-9.635,17.15-18.647,25.712-27.17,4.03-4,3.835-6.889-.631-10.793-6.944,7.917-13.232,16.026-20.569,23.067C721.143,1924.778,720.1,1928.978,721.033,1935.457ZM468.2,1629.99c10.561,0,20.258.091,29.945-.107,1.18-.033,2.338-1.646,3.5-2.525-1.061-.954-2.042-2.622-3.212-2.758-9.544-1.209-19.145-2.139-29.1-3.206C468.959,1624.185,468.652,1626.483,468.2,1629.99Zm31.852,8.229c-.375-.59-.761-1.18-1.135-1.747-10.226-1.209-20.445-2.423-31.273-3.7-.391,3.188-.709,5.85-1.118,9.147,10.062,0,19.277.182,28.458-.177C496.719,1641.681,498.364,1639.444,500.056,1638.219Zm158.6-8.171c10.607,0,20.1.084,29.582-.119,1.283-.012,2.525-1.458,3.778-2.231-1.2-1.09-2.291-2.973-3.609-3.149-9.373-1.22-18.783-2.082-28.633-3.121C659.426,1624.185,659.09,1626.7,658.659,1630.048Zm-1.85,11.849c9.949,0,18.745.186,27.55-.155,2.01-.073,3.938-2,5.908-3.058-.341-.715-.676-1.447-1-2.162-10.3-1.243-20.6-2.48-31.177-3.75C657.632,1635.988,657.274,1638.549,656.809,1641.9Zm63.975,274.682c.483.276.958.562,1.43.845,7.116-6.576,14.4-12.972,21.179-19.85,1.429-1.441,1.066-4.67,1.5-7.065-.97-.4-1.941-.8-2.928-1.2Q731.379,1902.931,720.784,1916.579Zm18.959-35.745c-11.508,9.693-14.191,14.176-13.618,22.375C744.033,1885.169,744.89,1888.268,739.743,1880.834ZM404.752,1720.54c5.123-6.889,9.556-12.831,14.163-19.016C410.625,1699.754,402.675,1710.274,404.752,1720.54Zm33.383-118.405c8.608-.681,15.967-1.26,24.071-1.907C455.852,1593.486,443.963,1594.315,438.135,1602.135Zm215.185.8H628.839C630.673,1609.414,632.142,1609.443,653.32,1602.935Zm-23.289-2.06c7.059-.466,14.117-.931,21.672-1.447C646.262,1594.1,637.261,1594.365,630.031,1600.875ZM592.3,1710.96c2.825-4.737,4.7-7.887,7.116-11.938H589.361C590.274,1702.744,591.092,1706.065,592.3,1710.96Z" fill-rule="evenodd"/>
      <path id="Trazado_4" data-name="Trazado 4" d="M709.595,1945.388c1.073.926,2.905,1.725,3.086,2.8,1.464,8.485,2.752,16.986,3.727,25.536.217,1.9-.646,4.1-1.549,5.9-6.74,13.17-15.773,25.638-19.861,39.568-4.425,15.078-17.231,21.041-25.188,31.964-.578-.362-1.151-.715-1.742-1.077q10.9-22.14,21.784-44.267c-.409-.25-.823-.483-1.225-.716-1.142,1.975-2.351,3.917-3.4,5.948-7.207,13.743-14.163,27.629-21.677,41.191a60.946,60.946,0,0,1-10.577,14.129c-13.729,13.3-27.841,26.189-41.9,39.138-3.319,3.059-7.024,5.681-10.543,8.507-.7-.2-1.4-.387-2.094-.585.352-2.174.266-4.534,1.1-6.51,3.829-8.914,7.915-17.731,11.916-26.567-.591-.267-1.158-.528-1.742-.812-4.467,9.448-8.916,18.9-13.761,29.156-25.774-33.741-51.429-66.681-89.3-89.2,7.376-9.38,14.89-19.094,22.6-28.661,11.979-14.89,23.866-29.871,36.209-44.433,21.183-24.973,30.893-54.362,31.857-86.376.93-30.735-.278-61.547-.556-92.32-.024-2.111-.188-4.234-.341-7.558H729.653c0,10.111-.566,21.024.11,31.868,1.4,22.613,3.478,45.18,5.179,67.788.131,1.765.1,3.931-.788,5.316-13.989,21.631-20.474,45.483-21.621,71.04-.14,3.15-1.827,6.226-2.8,9.347q-12.691,19.9-25.4,39.8c.93.545,1.86,1.094,2.79,1.629Q698.366,1966.154,709.595,1945.388Zm16.03-149.128c-.789-.482-1.577-.963-2.367-1.43q-20.164,33.08-40.3,66.155c.766.454,1.52.918,2.291,1.385Q705.436,1829.308,725.625,1796.26Zm.333,37.8c-.64-.307-1.271-.607-1.894-.919q-18.324,31.961-36.653,63.906c.909.518,1.817,1.015,2.725,1.521Q708.028,1866.314,725.958,1834.059Zm-44.459-.772q17.962-30.515,35.916-61.024C702.9,1791.1,689.405,1810.515,681.5,1833.287Zm-28.4,204.505c-.591-.267-1.165-.517-1.738-.783q-14.1,26.148-28.185,52.286c.84.448,1.684.885,2.524,1.316Q639.4,2064.207,653.1,2037.792Zm62.071-139.731c-.431-.248-.868-.515-1.3-.765q-11.738,19.168-23.446,38.325c.7.416,1.4.829,2.1,1.243Q703.87,1917.467,715.171,1898.061Zm-33.094-103.3c.6.368,1.2.715,1.782,1.083q6.505-10.809,13.007-21.619c-.568-.352-1.146-.682-1.713-1.022C690.795,1780.383,686.435,1787.591,682.077,1794.763Z" fill="#fff" fill-rule="evenodd"/>
      <path id="Trazado_5" data-name="Trazado 5" d="M538.779,1760.268c0,4.942-.182,10.173.011,15.377.7,18.624,1.68,37.219,2.111,55.849a18.443,18.443,0,0,1-3.178,9.931c-11.627,17.386-23.588,34.563-35.432,51.819.692.466,1.385.932,2.077,1.413,11.94-17.9,23.868-35.817,36.736-55.128,1.477,8.2,2.776,14.594,3.655,21.047a7.045,7.045,0,0,1-1.491,5.158c-9.216,9.811-11.367,22.7-15.157,34.751-7.4,23.544-7.883,47.525-2.23,71.466,1.549,6.593-2,9.663-7.264,14.464,1.061-5.612,1.827-9.715,2.6-13.835-.681-.295-1.351-.6-2.032-.907-2.724,21.949-17.8,36.511-30.512,52.681q6.18-18.452,12.353-36.9c-.5-.165-.987-.346-1.487-.527-5.021,13.148-11.575,25.932-14.708,39.517-5.282,22.8-18.913,38.785-36.112,53.216-13.3,11.161-25.569,23.532-38.593,35.636-26.948-36.8-54.346-72.18-94.577-96.394,10-12.648,20.269-25.45,30.341-38.388,10.992-14.129,22.051-28.243,32.663-42.656,18.845-25.636,28.333-54.447,28.083-86.321-.215-27.006-.578-53.987-.863-80.987-.033-3.081,0-6.146,0-10.287Zm-4.7,51.615c-15.582,19.43-30.6,39.523-40.97,62.652Q513.6,1843.2,534.08,1811.883Zm-58.5,198.91c-.613-.188-1.225-.352-1.839-.534q-10.316,28.642-20.633,57.286c1.021.351,2.032.7,3.047,1.032Q465.882,2039.678,475.576,2010.793Zm15.944-170.458c.648.556,1.306,1.123,1.959,1.668q19.416-27.927,38.831-55.855c-.614-.414-1.237-.851-1.85-1.282Q510.977,1812.615,491.52,1840.335Zm-37.377,193.036c-.551-.164-1.1-.345-1.651-.5q-12.631,30.89-25.263,61.773c.737.278,1.463.562,2.212.862Q441.8,2064.449,454.143,2033.371Zm40.68-226.3c.625.51,1.237,1.027,1.851,1.543q14.094-18.335,28.19-36.68c-.528-.4-1.054-.812-1.589-1.214Q509.052,1788.876,494.823,1807.071Zm-71.613,258.1c-.522-.249-1.049-.482-1.571-.732q-7.5,18.75-15,37.509c.727.283,1.441.551,2.163.818Q416,2083.979,423.21,2065.172Zm57.864-272.1c.721.488,1.447.982,2.167,1.475q10.521-14.266,21.037-28.542c-.477-.358-.977-.722-1.465-1.079Q491.935,1779,481.074,1793.072Z" fill="#fff" fill-rule="evenodd"/>
      <path id="Trazado_6" data-name="Trazado 6" d="M299.847,2150.318c-5.846-3.052-6.391-5.878-3.679-11.575,11.912-25.139,23.017-50.64,34.423-76.011-.681-.318-1.362-.636-2.044-.964q-18.171,39.6-36.333,79.153c-.675.183-1.333.4-2.009.579-2.253-7.19-5.34-14.242-6.588-21.62-2.871-17.068-1.578-33.724,7.275-49.277,5.549-9.749,10.52-19.827,15.718-29.775a10.2,10.2,0,0,0,1.509-6.009q-7.234,12.207-14.458,24.407c-.455-.267-.92-.517-1.373-.761,6.321-11.259,12.643-22.5,19.554-34.808,38.1,26.069,65.6,60,91.088,96.49-1.771,1.594-3.309,2.973-5.357,4.818-.5-1.964-.851-3.336-1.827-7.24-4.04,13.5-14.067,17.585-25.309,23.646,5.789-12.338,10.793-23.034,15.81-33.725-.681-.336-1.351-.647-2.032-.981-1.606,2.939-3.274,5.844-4.778,8.852-2.8,5.543-6.163,10.923-8.121,16.751-5.985,17.836-22.521,18.017-37.043,22.369q15.943-36.092,31.908-72.2c-.476-.25-.959-.534-1.418-.794a24.2,24.2,0,0,0-2.337,3.414c-10.618,22.717-21.088,45.5-31.937,68.1a9.812,9.812,0,0,1-6.639,4.733c-7.128.816-14.323.482-20.844-4.993q20.362-43.488,40.7-86.947c-.715-.345-1.425-.68-2.14-1.026Q320.736,2107.542,299.847,2150.318Zm16.728-.18c.811.283,1.634.578,2.451.861q17.3-39.776,34.569-79.568c-.59-.267-1.169-.517-1.737-.767C338.865,2096.6,326.471,2122.82,316.575,2150.138Zm7.734-96.327c-.619-.278-1.237-.579-1.844-.862q-16.956,35.367-33.923,70.705c.954.449,1.93.9,2.906,1.363Q307.874,2089.417,324.309,2053.811Zm22.635,94.1c1.034.482,2.067.947,3.105,1.424q13.234-29.059,26.466-58.181c-.823-.364-1.641-.75-2.456-1.112Q360.505,2118.958,346.944,2147.913Zm-62.079-40.25q15.381-31.809,30.762-63.612C302.938,2064.06,290.551,2084.232,284.865,2107.663Z" fill="#fff" fill-rule="evenodd"/>
      <path id="Trazado_7" data-name="Trazado 7" d="M487.356,2149.319c-7.843-5.639-8.716-10.094-3.916-17.481,16.366-25.225,32.641-50.51,48.688-75.388-6.061,7.575-12.779,15.464-18.958,23.766-6.26,8.415-12.241,17.1-17.926,25.921-5.766,8.982-11.032,18.26-16.876,27.993-3.258-7.061-4.37-12.82.606-19.845,15.549-21.966,30.32-44.465,44.807-65.932-19.083,19.026-34.416,42.269-49.074,67.845-1.084-8.734-2.235-15.94,2.174-22.6q14.01-21.193,28.168-42.31c1.657-2.473,3.49-4.829,5.249-7.235-.613-.448-1.22-.9-1.833-1.344q-15.764,21.22-31.55,42.423c-.323-.086-.659-.164-.965-.25,2.02-6.673,3.28-13.716,6.219-19.957,6.271-13.3,13.4-26.189,20.6-40.034,17.086,9.328,29.8,22.714,43.15,36.232-1.647,1.956-3.076,3.8-4.637,5.51-19.168,20.9-34.727,44.369-48.671,68.962-2.417,4.266-3.6,9.244-5.35,13.9Z" fill="#fff" fill-rule="evenodd"/>
      <path id="Trazado_8" data-name="Trazado 8" d="M487.26,2149.49c7.348-11.973,14.237-24.259,22.159-35.834,11.8-17.252,24.321-34.008,37.361-52.1,10.668,12.431,20.161,23.507,29.343,34.188-13.3,17.3-26.053,33.905-38.8,50.492a12.269,12.269,0,0,1-1.35,1.663c-4.364,3.9-4.143,11.991-12.235,12.636-11.474.932-22.414-.016-32.2-6.678-1.668-1.129-2.8-3-4.187-4.545C487.356,2149.319,487.26,2149.49,487.26,2149.49Zm66.175-73.525c-14.577,11.673-52.449,67.283-52.244,77.509C518.861,2127.258,536.315,2101.337,553.435,2075.965Zm6.76,18.266c-13.312,11.322-41.056,51.656-41.13,59.822C533.161,2133.551,546.678,2113.888,560.2,2094.231Z" fill="#fff" fill-rule="evenodd"/>
      <path id="Trazado_9" data-name="Trazado 9" d="M716.936,1712.935c-7.7,11.673-15.286,23.425-23.212,34.927-1.471,2.14-4.314,4.562-6.629,4.67-10.647.5-21.325.216-33.061.216,4.121-7.166,8.246-14.391,13.3-23.231-11.442,6.628-11.349,22.192-25.264,23.838q9.483-15,18.964-30.023c-.442-.364-.894-.716-1.337-1.079a17.851,17.851,0,0,0-3.157,2.872c-6.043,8.886-11.746,18.011-18.125,26.636-1.541,2.072-5.2,2.57-7.892,3.8-.7-.748-1.38-1.5-2.072-2.242,6.429-10.742,12.712-21.58,19.452-32.13.943-1.48,4.1-2.24,6.182-2.161,5,.2,9.947,1.293,14.933,1.662,9.75.7,14.256-1.628,16.457-10.991,2.043-8.676,6.383-10.775,14.5-9.5,6.1.971,12.413.448,18.58,1.129,3.33.364,9.135,1.452,9.352,2.871.668,4.648.573,10.294-1.578,14.272-3.6,6.651-9.119,12.222-13.608,18.409-2.144,2.972-3.779,6.309-5.646,9.5.68.477,1.368.954,2.048,1.426,5.879-8.27,11.766-16.553,17.948-25.247,5.244,10.986-3.085,17.477-6.428,25.831,1.135-1.2,2.3-2.362,3.393-3.587,1.072-1.2,2.067-2.451,3.984-4.733v11.407H695.289c8-12.706,15.785-25.026,23.565-37.345C718.2,1713.735,717.572,1713.332,716.936,1712.935Zm-22.828-1.242c-10.134,6.809-27.669,33.48-27.312,40.38C676.193,1738.188,685.153,1724.932,694.108,1711.693Zm12.053-3c-.782-.465-1.572-.929-2.343-1.4q-13.414,21.306-26.825,42.6c.778.495,1.556.977,2.327,1.454Q692.734,1730.021,706.161,1708.7Z" fill="#006a6b" fill-rule="evenodd"/>
      <path id="Trazado_10" data-name="Trazado 10" d="M522.828,1750.461c5.129-7.206,10.253-14.418,16.314-22.93,0,8.069.182,14.583-.182,21.046-.067,1.073-2.5,2.832-3.893,2.884-7.292.3-14.606.147-23.163.147,7.934-14.244,15.469-27.759,23-41.271-.567-.34-1.135-.682-1.69-1.022-2.4,3.649-4.949,7.207-7.161,10.963-5.562,9.454-10.635,19.237-16.662,28.391-1.7,2.575-6.049,3.4-9.175,5.033-.715-.767-1.43-1.544-2.128-2.327q12.274-22.319,24.525-44.631c-.5-.317-1-.629-1.51-.946-2.417,3.654-5.038,7.172-7.194,10.957-6.14,10.776-11.8,21.836-18.352,32.362-1.652,2.661-5.9,3.7-8.948,5.492-.5-.692-.982-1.4-1.482-2.087q11.253-19.749,22.477-39.485c-.618-.362-1.22-.748-1.833-1.123a44.464,44.464,0,0,0-3.075,4.1c-6.782,11.5-13.131,23.31-20.542,34.4-1.748,2.616-6.957,2.939-10.577,4.312-.346-.628-.682-1.265-1.033-1.907,3.666-6.524,7.531-12.966,10.958-19.611,5.016-9.731,9.607-19.656,14.662-29.354.892-1.7,3.241-3.8,4.852-3.756,11.429.42,22.851,1.345,34.286,2.1,4.086.273,5.545,2.2,5.515,6.48-.056,7.757-.827,14.7-6.548,20.957-5.277,5.776-9.147,12.853-13.647,19.361C521.357,1749.486,522.085,1749.984,522.828,1750.461Z" fill="#006a6b" fill-rule="evenodd"/>
      <path id="Trazado_11" data-name="Trazado 11" d="M423.857,1752.306l28.4-41.817c2.531,10.7,10.975,7.214,17.257,9.636-7.263,11.185-13.982,22.352-21.682,32.766-1.612,2.177-6.867,1.674-10.442,2.405-.591-.59-1.158-1.2-1.742-1.793q9.66-16.164,19.311-32.312c-.42-.3-.83-.584-1.25-.89-4,5.822-9.2,11.168-11.768,17.575-5.793,14.441-15.724,20.257-30.818,18.231a36.175,36.175,0,0,0-4.824-.033c-6.026-17.092.862-42.8,14.283-53.562a5.285,5.285,0,0,1,3.155-1.237,256.947,256.947,0,0,1,30.211,2.281c-10.929,16.189-23.538,30.546-31.675,47.706C422.8,1751.608,423.325,1751.948,423.857,1752.306Zm-10.407-5.794c.829.551,1.68,1.106,2.509,1.663q12.094-19.11,24.163-38.2c-.512-.323-1.017-.634-1.51-.957Q426.03,1727.772,413.45,1746.512Zm-7.121-9.732c.738.5,1.487,1.033,2.219,1.527q11.3-16.659,22.613-33.322c-.505-.34-1.017-.7-1.527-1.05Q417.99,1720.357,406.329,1736.78Z" fill="#006a6b" fill-rule="evenodd"/>
      <path id="Trazado_12" data-name="Trazado 12" d="M597.913,1734.856c1.3-2.922,2.6-5.839,3.91-8.744,1.266-2.831,2.446-5.692,3.8-8.489,9.346-19.447,15.02-21.62,36.335-14.017q-15.026,23.46-30.042,46.907c.861.551,1.737,1.1,2.6,1.651,9.142-14.533,18.271-29.082,27.607-43.933,4.875,7.445,3.114,12.99-1.392,19.209-5.286,7.3-9.062,15.662-13.77,23.4-1.028,1.7-3.093,3.678-4.859,3.87-8.279.829-16.62,1.077-26.3,1.6.759-16.359-6.924-32.191.64-48.433,3.156-6.791,7.146-10.434,15.417-6.956-5.629,10.81-13.765,20.655-15.7,33.139C596.745,1734.317,597.323,1734.59,597.913,1734.856Zm5.176,9.778c.59.352,1.18.692,1.782,1.032q12.027-21,24.049-42.009C617.74,1715.807,609.591,1729.744,603.089,1744.634Z" fill="#006a6b" fill-rule="evenodd"/>
      <path id="Trazado_13" data-name="Trazado 13" d="M649.573,1713.22c2.1-23.488,4.042-45.448,5.982-67.448,11.213,1.259,21.086,2.36,31.959,3.568-1.725,8.9-3.36,17.484-5.073,26.054-2.155,10.774-4.527,21.505-6.493,32.3-.8,4.432-2.806,5.942-7.284,5.629C662.8,1712.918,656.882,1713.22,649.573,1713.22Z" fill="#fff" fill-rule="evenodd"/>
      <path id="Trazado_14" data-name="Trazado 14" d="M465.338,1645.766c11.282,1.237,21.184,2.349,31.908,3.541-3,14.947-5.736,29.655-8.915,44.256-4.084,18.777-.465,17.483-21.358,16.535-2.078-.1-4.165-.011-7.61-.011C461.407,1688.064,463.381,1666.87,465.338,1645.766Z" fill="#fff" fill-rule="evenodd"/>
      <path id="Trazado_15" data-name="Trazado 15" d="M442.447,1631.574h16.025c.034-.795.063-1.612.08-2.424-3.915,0-7.865.341-11.712-.13-1.884-.244-4.846-1.713-5.136-3.08-1.5-6.935-2.275-14.022-3.3-21.014,15.441-3.371,24.3-1.826,25.757,4.455q-8.068,1.013-16.109,2.009c.027.249.039.493.062.743h16.881c-2.127,13.664-4.193,26.948-6.315,40.681-3.149-.267-6.05-.5-8.944-.733-.084.342-.158.67-.25,1.011,2.214.766,4.439,1.532,7.19,2.474-8.63,3.126-9.879,2.445-11.15-5.425C444.581,1644.3,443.588,1638.451,442.447,1631.574Z" fill="#fff" fill-rule="evenodd"/>
      <path id="Trazado_16" data-name="Trazado 16" d="M560.5,2140.672q11.414-15.117,22.829-30.24c-.67-.493-1.334-.993-2-1.492-8.468,11.474-16.81,23.062-25.525,34.353-2.179,2.861-5.373,5.034-8.38,7.111-3.292,2.275-6.89,4.052-10.351,6.043-.614-.533-1.2-1.049-1.816-1.577,13.732-18.8,27.47-37.6,41.946-57.4,5.533,7.853,10.277,14.612,15.656,22.266-10.776,7.509-21.11,14.715-31.455,21.922C561.108,2141.336,560.8,2141,560.5,2140.672Z" fill="#fff" fill-rule="evenodd"/>
      <path id="Trazado_17" data-name="Trazado 17" d="M558.9,1904.271c3.649,5.429,7.826,10.593,10.607,16.438.794,1.646-2.162,5.448-3.939,7.888-5.4,7.456-11.026,14.749-16.649,22.068-4.726,6.18-9.562,12.286-14.361,18.414-.728-.311-1.477-.63-2.225-.964.545-2.39.5-5.164,1.753-7.1,7.995-12.455,16.291-24.691,24.434-37.044a8.858,8.858,0,0,0,1.651-6.146c-9.2,13.387-18.4,26.769-28.23,41.079-1.64-5.51-2.083-8.751,1.107-13.38,8.181-11.906,15.014-24.776,22.391-37.243C556.591,1906.943,557.749,1905.6,558.9,1904.271Z" fill="#fff" fill-rule="evenodd"/>
      <path id="Trazado_18" data-name="Trazado 18" d="M650.425,1642.748c-3.188.437-6.116.834-9.045,1.248.012.255.023.516.023.776,2.508.25,5.011.5,8.375.818-.147,2.621-.385,5.147-.43,7.66-.07,3.943-1.357,6.254-5.949,5.919-3.846-.277-6.5-.437-7.154-5.578-1.827-14.35-4.408-28.622-6.78-43.484l25.019-2.8c.345,2.117.673,4.091,1.094,6.713-7.059.709-13.642,1.362-20.2,2.008-.01.233-.01.465-.017.682H654.4c-.352,3.1-.635,5.594-.965,8.472-5.164.311-10.067.594-14.958.9.011.285.011.558.011.857h14.1C651.826,1632.5,651.142,1637.476,650.425,1642.748Z" fill="#fff" fill-rule="evenodd"/>
      <path id="Trazado_19" data-name="Trazado 19" d="M723.434,1973.828c1.04-3.007,1.4-6.543,3.257-8.914,9.631-12.388,19.635-24.491,29.14-37.077-12.621,9.561-22.336,22.033-33.9,34.217.142-2.672-.762-6.207.606-7.854,10.578-12.819,21.6-25.234,32.852-38.223,7.432,12.569,6.859,18.448-1.312,27.583-9.34,10.46-18.573,21.036-27.85,31.545C725.295,1974.674,724.364,1974.26,723.434,1973.828Z" fill="#fff" fill-rule="evenodd"/>
      <path id="Trazado_20" data-name="Trazado 20" d="M470.151,1616.928c.351-3.218.6-5.568.885-7.916,1.629-13.619,1.668-13.709,15.27-12.541a50.26,50.26,0,0,1,9.823,1.7c8.694,2.6,11.928,9.635,8.046,17.783-.681,1.408-3.257,2.77-4.891,2.725C489.818,1618.352,480.365,1617.575,470.151,1616.928Z" fill="#fff" fill-rule="evenodd"/>
      <path id="Trazado_21" data-name="Trazado 21" d="M660.577,1616.963c.642-5.931,1-11.357,1.925-16.679a5.633,5.633,0,0,1,3.381-3.614c10.646-2.674,19.918,1.413,27.738,7.824,2.1,1.727,1.147,7.792.555,11.725-.165,1.112-4.052,2.377-6.192,2.321C679.2,1618.307,670.434,1617.575,660.577,1616.963Z" fill="#fff" fill-rule="evenodd"/>
      <path id="Trazado_22" data-name="Trazado 22" d="M558.9,1904.271c-1.151,1.327-2.309,2.672-3.461,4.005-8.171,11.821-16.354,23.674-25.1,36.346-.909-13.284-.4-25.49,5.7-37.021,3.331-6.276,6.18-12.807,9.244-19.237q1.285-2.537,2.547-5.095c4.569-.136,7.587,4.88,5.9,9.759-.6,1.732-1.181,3.44-1.776,5.164q-10.4,17.118-20.826,34.206c1.016.551,2.032,1.1,3.042,1.663q8.819-18.009,17.631-35.994c1.18-.952,2.359-1.9,4.42-3.574C557.182,1898.012,558.055,1901.132,558.9,1904.271Z" fill="#fff" fill-rule="evenodd"/>
      <path id="Trazado_23" data-name="Trazado 23" d="M484.859,1721.221c-6.106,10.764-11.332,21.455-18.181,31.006-1.9,2.626-8.626,1.8-15.265,2.911,2.474-4.677,3.769-7.532,5.414-10.152,3.791-6.061,8.138-11.781,11.53-18.034C472.075,1720.108,477.1,1718.349,484.859,1721.221Z" fill="#006a6b" fill-rule="evenodd"/>
      <path id="Trazado_24" data-name="Trazado 24" d="M751.218,1905.32c2.032,4.018,3.273,6.441,4.5,8.881-.623-.414-1.259-.846-1.894-1.26-11.27,11.139-22.545,22.284-33.118,32.708.25-.863.285-4.313,1.975-6.423C731.606,1928.165,740.952,1917.441,751.218,1905.32Z" fill="#fff" fill-rule="evenodd"/>
      <path id="Trazado_25" data-name="Trazado 25" d="M695.969,2023.493c6.993-13.915,13.982-27.812,21.082-41.959,7.551,12.52,7.6,12.553-1.463,22.432-6.215,6.793-12.56,13.448-18.853,20.173C696.48,2023.924,696.23,2023.708,695.969,2023.493Z" fill="#fff" fill-rule="evenodd"/>
      <path id="Trazado_26" data-name="Trazado 26" d="M727.629,1986.528c.123-2.571-.757-5.94.537-7.587,9.845-12.466,20.128-24.571,31.058-36.2-4.647,18.2-19.588,29.4-28.957,44.37C729.382,1986.914,728.507,1986.716,727.629,1986.528Z" fill="#fff" fill-rule="evenodd"/>
      <path id="Trazado_27" data-name="Trazado 27" d="M721.033,1935.457c-.934-6.479.11-10.679,4.512-14.9,7.337-7.041,13.625-15.15,20.569-23.067,4.466,3.9,4.661,6.793.631,10.793C738.183,1916.81,730.091,1925.822,721.033,1935.457Z" fill="#fff" fill-rule="evenodd"/>
      <path id="Trazado_28" data-name="Trazado 28" d="M468.2,1629.99c.448-3.507.755-5.8,1.124-8.6,9.959,1.067,19.56,2,29.1,3.206,1.17.136,2.151,1.8,3.212,2.758-1.157.879-2.315,2.492-3.5,2.525C488.462,1630.081,478.765,1629.99,468.2,1629.99Z" fill="#fff" fill-rule="evenodd"/>
      <path id="Trazado_29" data-name="Trazado 29" d="M500.056,1638.219c-1.692,1.225-3.337,3.462-5.068,3.523-9.181.359-18.4.177-28.458.177.409-3.3.727-5.959,1.118-9.147,10.828,1.277,21.047,2.491,31.273,3.7C499.3,1637.039,499.681,1637.629,500.056,1638.219Z" fill="#fff" fill-rule="evenodd"/>
      <path id="Trazado_30" data-name="Trazado 30" d="M658.659,1630.048c.431-3.349.767-5.863,1.118-8.62,9.85,1.039,19.26,1.9,28.633,3.121,1.318.176,2.406,2.059,3.609,3.149-1.253.773-2.495,2.219-3.778,2.231C678.763,1630.132,669.266,1630.048,658.659,1630.048Z" fill="#fff" fill-rule="evenodd"/>
      <path id="Trazado_31" data-name="Trazado 31" d="M656.809,1641.9c.465-3.348.823-5.909,1.277-9.125,10.573,1.27,20.872,2.507,31.177,3.75.328.715.663,1.447,1,2.162-1.97,1.061-3.9,2.985-5.908,3.058C675.554,1642.083,666.758,1641.9,656.809,1641.9Z" fill="#fff" fill-rule="evenodd"/>
      <path id="Trazado_32" data-name="Trazado 32" d="M720.784,1916.579q10.589-13.653,21.184-27.266c.987.4,1.958.792,2.928,1.2-.437,2.4-.074,5.624-1.5,7.065-6.784,6.878-14.063,13.274-21.179,19.85C721.742,1917.141,721.267,1916.855,720.784,1916.579Z" fill="#fff" fill-rule="evenodd"/>
      <path id="Trazado_33" data-name="Trazado 33" d="M547.823,1883.269q-1.267,2.562-2.547,5.095c-1.753,2.526-3.586,4.972-5.226,7.571-1.584,2.507-2.95,5.14-4.421,7.739q-.911-.424-1.821-.8c3.892-10.436,7.786-20.865,12.331-33.049C549.255,1875.613,552.8,1879.053,547.823,1883.269Z" fill="#fff" fill-rule="evenodd"/>
      <path id="Trazado_34" data-name="Trazado 34" d="M739.743,1880.834c5.147,7.434,4.29,4.335-13.618,22.375C725.552,1895.01,728.235,1890.527,739.743,1880.834Z" fill="#fff" fill-rule="evenodd"/>
      <path id="Trazado_35" data-name="Trazado 35" d="M404.752,1720.54c-2.077-10.266,5.873-20.786,14.163-19.016C414.308,1707.709,409.875,1713.651,404.752,1720.54Z" fill="#006a6b" fill-rule="evenodd"/>
      <path id="Trazado_36" data-name="Trazado 36" d="M438.135,1602.135c5.828-7.82,17.717-8.649,24.071-1.907C454.1,1600.875,446.743,1601.454,438.135,1602.135Z" fill="#fff" fill-rule="evenodd"/>
      <path id="Trazado_37" data-name="Trazado 37" d="M653.32,1602.935c-21.178,6.508-22.647,6.479-24.481,0Z" fill="#fff" fill-rule="evenodd"/>
      <path id="Trazado_38" data-name="Trazado 38" d="M630.031,1600.875c7.23-6.51,16.231-6.776,21.672-1.447C644.148,1599.944,637.09,1600.409,630.031,1600.875Z" fill="#fff" fill-rule="evenodd"/>
      <path id="Trazado_39" data-name="Trazado 39" d="M592.3,1710.96c-1.2-4.9-2.022-8.216-2.935-11.938h10.051C596.993,1703.073,595.121,1706.223,592.3,1710.96Z" fill="#006a6b" fill-rule="evenodd"/>
      <path id="Trazado_40" data-name="Trazado 40" d="M725.625,1796.26q-20.181,33.053-40.381,66.11c-.771-.467-1.525-.931-2.291-1.385q20.137-33.077,40.3-66.155C724.048,1795.3,724.836,1795.778,725.625,1796.26Z" fill="#006a6b" fill-rule="evenodd"/>
      <path id="Trazado_41" data-name="Trazado 41" d="M725.958,1834.059q-17.925,32.252-35.822,64.508c-.908-.506-1.816-1-2.725-1.521q18.318-31.953,36.653-63.906C724.687,1833.452,725.318,1833.752,725.958,1834.059Z" fill="#006a6b" fill-rule="evenodd"/>
      <path id="Trazado_42" data-name="Trazado 42" d="M681.5,1833.287c7.906-22.772,21.4-42.189,35.916-61.024Q699.46,1802.761,681.5,1833.287Z" fill="#006a6b" fill-rule="evenodd"/>
      <path id="Trazado_43" data-name="Trazado 43" d="M653.1,2037.792q-13.7,26.4-27.4,52.819c-.84-.431-1.684-.868-2.524-1.316q14.085-26.149,28.185-52.286C651.935,2037.275,652.509,2037.525,653.1,2037.792Z" fill-rule="evenodd"/>
      <path id="Trazado_44" data-name="Trazado 44" d="M709.595,1945.388q-11.229,20.769-22.467,41.544c-.93-.535-1.86-1.084-2.79-1.629q12.7-19.9,25.4-39.8Z" fill="#006a6b" fill-rule="evenodd"/>
      <path id="Trazado_45" data-name="Trazado 45" d="M715.171,1898.061q-11.319,19.4-22.64,38.8c-.7-.414-1.4-.827-2.1-1.243q11.719-19.149,23.446-38.325C714.3,1897.546,714.74,1897.813,715.171,1898.061Z" fill="#006a6b" fill-rule="evenodd"/>
      <path id="Trazado_46" data-name="Trazado 46" d="M682.077,1794.763c4.358-7.172,8.718-14.38,13.076-21.558.567.34,1.145.67,1.713,1.022q-6.5,10.81-13.007,21.619C683.276,1795.478,682.68,1795.131,682.077,1794.763Z" fill="#006a6b" fill-rule="evenodd"/>
      <path id="Trazado_47" data-name="Trazado 47" d="M534.08,1811.883q-20.478,31.332-40.97,62.652C503.483,1851.406,518.5,1831.313,534.08,1811.883Z" fill-rule="evenodd"/>
      <path id="Trazado_48" data-name="Trazado 48" d="M475.576,2010.793q-9.7,28.89-19.425,57.784c-1.015-.335-2.026-.681-3.047-1.032q10.315-28.644,20.633-57.286C474.351,2010.441,474.963,2010.6,475.576,2010.793Z" fill-rule="evenodd"/>
      <path id="Trazado_49" data-name="Trazado 49" d="M491.52,1840.335q19.46-27.73,38.94-55.469c.613.431,1.236.868,1.85,1.282q-19.425,27.92-38.831,55.855C492.826,1841.458,492.168,1840.891,491.52,1840.335Z" fill-rule="evenodd"/>
      <path id="Trazado_50" data-name="Trazado 50" d="M454.143,2033.371q-12.342,31.06-24.7,62.137c-.749-.3-1.475-.584-2.212-.862q12.623-30.89,25.263-61.773C453.047,2033.026,453.592,2033.207,454.143,2033.371Z" fill-rule="evenodd"/>
      <path id="Trazado_51" data-name="Trazado 51" d="M494.823,1807.071q14.232-18.174,28.452-36.351c.535.4,1.061.817,1.589,1.214q-14.1,18.335-28.19,36.68C496.06,1808.1,495.448,1807.581,494.823,1807.071Z" fill-rule="evenodd"/>
      <path id="Trazado_52" data-name="Trazado 52" d="M423.21,2065.172q-7.218,18.8-14.406,37.595c-.722-.267-1.436-.535-2.163-.818q7.515-18.751,15-37.509C422.161,2064.69,422.688,2064.923,423.21,2065.172Z" fill-rule="evenodd"/>
      <path id="Trazado_53" data-name="Trazado 53" d="M481.074,1793.072q10.861-14.071,21.739-28.146c.488.357.988.721,1.465,1.079q-10.5,14.273-21.037,28.542C482.521,1794.054,481.8,1793.56,481.074,1793.072Z" fill-rule="evenodd"/>
      <path id="Trazado_54" data-name="Trazado 54" d="M316.575,2150.138c9.9-27.318,22.29-53.534,35.283-79.474.568.25,1.147.5,1.737.767Q336.3,2111.181,319.026,2151C318.209,2150.716,317.386,2150.421,316.575,2150.138Z" fill-rule="evenodd"/>
      <path id="Trazado_55" data-name="Trazado 55" d="M324.309,2053.811q-16.436,35.624-32.861,71.206c-.976-.467-1.952-.914-2.906-1.363q16.957-35.349,33.923-70.705C323.072,2053.232,323.69,2053.533,324.309,2053.811Z" fill-rule="evenodd"/>
      <path id="Trazado_56" data-name="Trazado 56" d="M346.944,2147.913q13.553-28.923,27.115-57.869c.815.362,1.633.748,2.456,1.112q-13.238,29.118-26.466,58.181C349.011,2148.86,347.978,2148.4,346.944,2147.913Z" fill-rule="evenodd"/>
      <path id="Trazado_57" data-name="Trazado 57" d="M284.865,2107.663c5.686-23.431,18.073-43.6,30.762-63.612Q300.246,2075.852,284.865,2107.663Z" fill-rule="evenodd"/>
      <path id="Trazado_58" data-name="Trazado 58" d="M553.435,2075.965c-17.12,25.372-34.574,51.293-52.244,77.509C500.986,2143.248,538.858,2087.638,553.435,2075.965Z" fill-rule="evenodd"/>
      <path id="Trazado_59" data-name="Trazado 59" d="M560.2,2094.231c-13.517,19.657-27.034,39.32-41.13,59.822C519.139,2145.887,546.883,2105.553,560.2,2094.231Z" fill-rule="evenodd"/>
      <path id="Trazado_60" data-name="Trazado 60" d="M694.108,1711.693c-8.955,13.239-17.915,26.495-27.312,40.38C666.439,1745.173,683.974,1718.5,694.108,1711.693Z" fill="#fff" fill-rule="evenodd"/>
      <path id="Trazado_61" data-name="Trazado 61" d="M706.161,1708.7q-13.414,21.331-26.841,42.662c-.771-.477-1.549-.959-2.327-1.454q13.425-21.3,26.825-42.6C704.589,1707.767,705.379,1708.231,706.161,1708.7Z" fill="#fff" fill-rule="evenodd"/>
      <path id="Trazado_62" data-name="Trazado 62" d="M413.45,1746.512q12.582-18.751,25.162-37.491c.493.323,1,.634,1.51.957q-12.089,19.094-24.163,38.2C415.13,1747.618,414.279,1747.063,413.45,1746.512Z" fill="#fff" fill-rule="evenodd"/>
      <path id="Trazado_63" data-name="Trazado 63" d="M406.329,1736.78q11.652-16.428,23.3-32.845c.51.353,1.022.71,1.527,1.05q-11.3,16.659-22.613,33.322C407.816,1737.813,407.067,1737.279,406.329,1736.78Z" fill-rule="evenodd"/>
      <path id="Trazado_64" data-name="Trazado 64" d="M603.089,1744.634c6.5-14.89,14.651-28.827,25.831-40.977q-12.031,21.016-24.049,42.009C604.269,1745.326,603.679,1744.986,603.089,1744.634Z" fill="#fff" fill-rule="evenodd"/>
      <path id="Trazado_65" data-name="Trazado 65" d="M551.791,1898.067q-8.809,18-17.631,35.994c-1.01-.567-2.026-1.112-3.042-1.663q10.426-17.107,20.826-34.206Z" fill-rule="evenodd"/>
    </g>
    <text id="Ourclothe" transform="translate(254.546 1569.124)" fill="#006a6b" font-size="148.288" font-family="SegoeUI, Segoe UI" letter-spacing="-0.03em"><tspan x="0" y="0">Ourclothe</tspan></text>
  </g>
</svg>
