<svg xmlns="http://www.w3.org/2000/svg" width="105" height="132.258" viewBox="0 0 105 132.258">
  <g id="Grupo_12" data-name="Grupo 12" transform="translate(-401.175 -240.702)">
    <g id="Grupo_11" data-name="Grupo 11">
      <path id="Trazado_66" data-name="Trazado 66" d="M401.175,284.45c10.6-1.011,21.247-.314,32.052-.688-.243-1.525-.482-2.968-.7-4.412-.233-1.586-.456-3.172-.652-4.764a1.621,1.621,0,0,1,1.631-2.018c1.457-.094,3.073-.628,4.157.975.991-1.978,3.542-1.8,5.867-1.141a3.844,3.844,0,0,1,2.709,4.329c-.212,1.875-.656,3.718-1.005,5.576-.087.474-.193.947-.335,1.634h21.123c-.224-1.4-.473-2.837-.677-4.28-.25-1.749-.469-3.5-.685-5.255a1.47,1.47,0,0,1,1.313-1.779c1.45-.238,2.934-.469,4.314.48a2.48,2.48,0,0,1,2.778-1.146,11.846,11.846,0,0,1,3.914.891c2.009,1.12,2.3,3.15,1.924,5.289-.352,2.02-.711,4.039-1.087,6.174,9.229.586,18.453.148,27.578,1.27.015.2.025.407.039.611a9.674,9.674,0,0,1-1.65.265q-7.215-.1-14.434-.256c-3.66-.08-7.319-.194-10.977-.323-.689-.026-1.071.141-1.186.883-.111.722-.349,1.425-.531,2.131,2.151.226,4.222.4,6.28.678,1.8.24,1.9.452,1.943,2.3.148,7.2.2,14.4.527,21.583a33.388,33.388,0,0,0,3.346,13.805,7.977,7.977,0,0,1-.35,8.313,103.28,103.28,0,0,1-22.378,25.135c-4.128,3.44-8.62,6.446-13.011,9.558a17.81,17.81,0,0,1-3.947,2c-4.992,1.906-9.453-.22-11.253-5.272a16.8,16.8,0,0,1-.64-8.518c.1-.6.193-1.2.339-2.092-1.291,1.228-2.385,2.258-3.462,3.3a59.32,59.32,0,0,1-14.918,10.821,13.917,13.917,0,0,1-7.155,1.557c-3.836-.283-6.579-3.041-7.53-7.23-1.166-5.129.15-9.864,2.442-14.407,2.18-4.329,5.316-8,8.248-11.811a123.1,123.1,0,0,0,7.142-10.03,17.968,17.968,0,0,0,2.843-9.217c.078-6.494-.108-12.992-.175-19.488-.029-2.672-.067-5.346-.037-8.021.025-2.157.287-2.447,2.451-2.562,1.8-.1,3.619-.04,5.428-.052.4,0,.8,0,1.326,0a31.977,31.977,0,0,0-.576-3.3c-.08-.284-.7-.589-1.071-.592-3.868-.047-7.736-.042-11.6-.042-4.9,0-9.793.038-14.687,0-1.667-.012-3.33-.2-4.995-.308C401.182,284.816,401.179,284.635,401.175,284.45Zm51.155,40.861.025.022c.1-.3.2-.591.306-.889a1.191,1.191,0,0,0-1.015-1.679c.856-.726.247-1.318-.29-2.315l-2.121,5.688c.1.044.208.089.313.138.253-.447.488-.9.761-1.332s.6-.868.9-1.3c-.527,1.106-1.018,2.23-1.59,3.31a11.411,11.411,0,0,0-.982,6.371c1.506-2.18,2.915-4.221,4.321-6.255-1.269,2.146-2.445,4.361-3.854,6.409a2.274,2.274,0,0,0-.19,2.3l4.858-7.069a1.523,1.523,0,0,1-.284,1.058c-1.4,2.126-2.829,4.231-4.2,6.375a3.9,3.9,0,0,0-.3,1.222c.129.058.258.113.383.166.826-1.055,1.658-2.105,2.472-3.169.968-1.259,1.936-2.514,2.865-3.8.306-.42.814-1.074.678-1.357a22.991,22.991,0,0,0-1.825-2.829c-.146-.54-.3-1.077-.463-1.683Zm-11.089,43.238a4.457,4.457,0,0,0,.72.782,8.223,8.223,0,0,0,5.541,1.149c1.392-.111,1.354-1.5,2.106-2.174a2.088,2.088,0,0,0,.231-.286c2.2-2.855,4.389-5.712,6.677-8.69-1.579-1.838-3.213-3.744-5.049-5.884-2.245,3.114-4.4,6-6.43,8.967-1.363,1.992-2.549,4.107-3.813,6.167a16.562,16.562,0,0,1,.921-2.391,64.113,64.113,0,0,1,8.375-11.869c.27-.294.515-.611.8-.948-2.3-2.326-4.485-4.63-7.425-6.235-1.239,2.383-2.466,4.6-3.545,6.889a24.9,24.9,0,0,0-1.07,3.435c.053.015.11.028.165.043q2.714-3.648,5.43-7.3l.315.232c-.3.414-.618.819-.9,1.245q-2.433,3.636-4.849,7.281c-.758,1.146-.56,2.387-.374,3.89a54.35,54.35,0,0,1,8.446-11.676c-2.493,3.694-5.035,7.566-7.711,11.346a3.014,3.014,0,0,0-.105,3.415c1.006-1.674,1.912-3.271,2.9-4.817.979-1.517,2.007-3.013,3.085-4.461,1.063-1.428,2.219-2.786,3.262-4.09-2.762,4.282-5.563,8.633-8.379,12.974C439.741,366.814,439.891,367.58,441.241,368.549Zm38.245-35.094.025.02a6.815,6.815,0,0,0,.481-1.609,23.986,23.986,0,0,1,3.721-12.225,1.6,1.6,0,0,0,.136-.915c-.293-3.891-.651-7.775-.892-11.666-.116-1.867-.019-3.745-.019-5.485H460.009c.026.573.054.938.059,1.3.047,5.3.256,10.6.1,15.888a23.415,23.415,0,0,1-5.483,14.865c-2.124,2.506-4.17,5.084-6.232,7.646-1.326,1.647-2.619,3.319-3.889,4.933,6.518,3.875,10.933,9.544,15.369,15.351.833-1.766,1.6-3.392,2.368-5.018.1.049.2.094.3.14-.689,1.52-1.392,3.038-2.051,4.572a4.877,4.877,0,0,0-.19,1.12c.121.034.241.066.361.1.6-.487,1.242-.938,1.814-1.464,2.419-2.229,4.848-4.446,7.21-6.736a10.462,10.462,0,0,0,1.82-2.431c1.293-2.334,2.491-4.724,3.731-7.089.182-.35.39-.684.586-1.024.069.04.141.08.211.124q-1.873,3.81-3.749,7.618l.3.185c1.369-1.88,3.573-2.906,4.335-5.5.7-2.4,2.257-4.543,3.418-6.809a1.966,1.966,0,0,0,.266-1.015c-.168-1.472-.39-2.934-.641-4.394C479.986,333.752,479.671,333.614,479.486,333.455Zm-29.4-31.858H427.2c0,.713-.006,1.24,0,1.77.048,4.647.111,9.29.148,13.938a24.18,24.18,0,0,1-4.833,14.855c-1.827,2.481-3.729,4.909-5.622,7.341-1.732,2.226-3.5,4.43-5.222,6.606,6.924,4.167,11.639,10.256,16.277,16.589,2.242-2.083,4.354-4.212,6.641-6.132,2.961-2.484,5.306-5.235,6.216-9.159a52.909,52.909,0,0,1,2.531-6.8c.086.031.17.062.256.09q-1.063,3.178-2.126,6.35c2.189-2.783,4.782-5.289,5.251-9.066.117.053.233.105.35.156-.134.709-.266,1.415-.449,2.381.906-.826,1.516-1.355,1.25-2.49a22.883,22.883,0,0,1,.383-12.3c.653-2.074,1.023-4.292,2.609-5.98a1.21,1.21,0,0,0,.257-.888c-.151-1.11-.375-2.21-.628-3.622-2.215,3.323-4.268,6.408-6.323,9.488-.12-.083-.238-.164-.357-.244,2.038-2.969,4.1-5.925,6.1-8.917a3.178,3.178,0,0,0,.547-1.709c-.074-3.207-.243-6.407-.363-9.612C450.059,303.348,450.089,302.447,450.089,301.6Zm-6.462-12.448c2.46.25,4.825.452,7.18.747,1.58.2,1.648.4,1.654,1.984.024,7.069-.117,14.147.206,21.2a50.7,50.7,0,0,0,1.916,9.751,27.061,27.061,0,0,0,1.869,4.289c.117-.022.233-.047.348-.071a17.452,17.452,0,0,0,.542-1.861,92.347,92.347,0,0,0,.611-23.347c-.27-3.357-.351-6.732-.386-10.1-.015-1.656.649-2.179,2.305-2.23,1.11-.034,2.22-.012,3.331-.015,1.21,0,2.42,0,3.728,0a26.279,26.279,0,0,1-.432-2.757c-.046-.94-.512-1.147-1.345-1.143-2.425.005-4.85-.042-7.275-.072-4.07-.054-8.14-.124-12.209-.142-.41,0-1.088.2-1.186.473A31.655,31.655,0,0,0,443.627,289.149ZM408.97,368.723l7.18-14.7.369.177q-3.5,7.48-7,14.963a4.4,4.4,0,0,0,3.586.859,1.686,1.686,0,0,0,1.143-.814c1.867-3.889,3.669-7.81,5.5-11.719a4.311,4.311,0,0,1,.4-.588c.08.045.163.094.244.137q-2.745,6.216-5.491,12.425c2.5-.749,5.346-.781,6.375-3.85a22.766,22.766,0,0,1,1.4-2.883c.259-.517.546-1.017.822-1.523.117.058.233.111.35.169-.863,1.84-1.725,3.681-2.721,5.8,1.935-1.043,3.661-1.747,4.355-4.07.169.672.229.908.315,1.246l.922-.829c-4.387-6.28-9.12-12.119-15.676-16.605-1.189,2.118-2.278,4.052-3.365,5.99.078.042.159.085.236.131q1.245-2.1,2.488-4.2a1.751,1.751,0,0,1-.259,1.034c-.9,1.712-1.751,3.446-2.705,5.124a12.427,12.427,0,0,0-1.252,8.48,28.991,28.991,0,0,0,1.133,3.721c.116-.031.23-.068.346-.1q3.127-6.81,6.253-13.622c.117.057.234.112.351.166-1.962,4.367-3.873,8.755-5.924,13.081C407.872,367.711,407.964,368.2,408.97,368.723Zm71.78-75.272c.109.069.218.138.33.206-1.339,2.12-2.679,4.241-4.056,6.427h5.634v-1.963c-.33.393-.5.609-.685.814s-.389.412-.584.618c.575-1.438,2.008-2.555,1.106-4.446l-3.089,4.345-.352-.245c.321-.549.6-1.123.971-1.635a30.112,30.112,0,0,0,2.342-3.168,4.2,4.2,0,0,0,.272-2.456c-.037-.244-1.037-.431-1.61-.494-1.061-.117-2.148-.027-3.2-.194-1.4-.22-2.145.141-2.5,1.635-.379,1.611-1.154,2.011-2.832,1.891-.859-.063-1.71-.252-2.57-.286a1.383,1.383,0,0,0-1.064.372c-1.16,1.816-2.241,3.681-3.348,5.529.12.128.237.257.357.386.463-.212,1.093-.3,1.358-.654,1.1-1.485,2.079-3.055,3.119-4.584a3.105,3.105,0,0,1,.543-.494c.077.062.155.123.231.185q-1.632,2.582-3.264,5.167c2.395-.283,2.379-2.962,4.348-4.1-.87,1.521-1.58,2.764-2.289,4,2.019,0,3.857.049,5.689-.037a1.824,1.824,0,0,0,1.141-.8C478.119,297.482,479.425,295.46,480.75,293.451Zm-33.4,6.458c-.128-.082-.253-.168-.379-.251a30.318,30.318,0,0,1,2.349-3.332,4.91,4.91,0,0,0,1.126-3.606c.005-.738-.246-1.069-.949-1.115-1.968-.131-3.933-.29-5.9-.363-.277-.008-.681.355-.834.647-.87,1.669-1.66,3.377-2.524,5.051-.589,1.144-1.254,2.252-1.885,3.375.06.111.118.22.178.329.623-.237,1.519-.292,1.82-.743,1.275-1.909,2.368-3.941,3.535-5.921a7.9,7.9,0,0,1,.529-.705c.106.065.21.131.316.194l-3.868,6.8c.085.119.168.24.254.359.525-.308,1.256-.487,1.54-.945,1.128-1.812,2.1-3.715,3.158-5.57.372-.651.823-1.256,1.239-1.885l.26.163q-2.112,3.84-4.221,7.68c.12.135.243.269.366.4.539-.281,1.287-.423,1.579-.866,1.037-1.576,1.91-3.259,2.867-4.886.382-.647.821-1.259,1.233-1.887l.29.176-3.959,7.1c1.473,0,2.732.027,3.987-.025.239-.009.658-.311.67-.5.063-1.112.031-2.233.031-3.622C449.109,297.428,448.227,298.669,447.345,299.909Zm-17.033.318c-.091-.062-.182-.121-.273-.18,1.4-2.953,3.57-5.424,5.451-8.21a44.231,44.231,0,0,0-5.2-.393.918.918,0,0,0-.542.213c-2.31,1.852-3.495,6.277-2.458,9.218a6.223,6.223,0,0,1,.83.006,4.5,4.5,0,0,0,5.3-3.138,16.869,16.869,0,0,1,2.026-3.024c.071.052.141.1.214.153q-1.662,2.779-3.323,5.561c.1.1.2.207.3.308.614-.126,1.519-.039,1.8-.414,1.326-1.792,2.482-3.714,3.732-5.638-1.082-.418-2.535.183-2.969-1.659Zm29.955-3-.3-.138c.333-2.148,1.733-3.843,2.7-5.7-1.423-.6-2.11.028-2.653,1.2-1.3,2.8.02,5.52-.111,8.335,1.666-.09,3.1-.133,4.527-.275a1.409,1.409,0,0,0,.836-.666c.81-1.331,1.46-2.771,2.37-4.027a2.556,2.556,0,0,0,.239-3.3c-1.606,2.555-3.178,5.059-4.751,7.56-.148-.1-.3-.189-.447-.284l5.17-8.072c-3.668-1.309-4.644-.935-6.253,2.412-.233.481-.437.973-.655,1.461S460.491,296.721,460.267,297.224Zm8.89-3.724c1.258,0,2.276-.052,3.285.018a1,1,0,0,0,1.254-.969c.338-1.858.746-3.7,1.117-5.559.3-1.474.577-2.951.873-4.483l-5.5-.614C469.852,285.679,469.518,289.458,469.157,293.5Zm-31.705-11.608c-.338,3.631-.678,7.279-1.029,11.069.593,0,.951-.016,1.31,0,3.6.163,2.972.386,3.675-2.846.547-2.512,1.017-5.044,1.534-7.616C441.1,282.3,439.392,282.105,437.452,281.892Zm-3.941-2.443c.2,1.184.367,2.19.53,3.2.219,1.354.433,1.471,1.919.933-.474-.162-.856-.294-1.237-.426.015-.058.028-.115.043-.173.5.04,1,.08,1.538.126.366-2.364.722-4.65,1.088-7h-2.9c-.005-.044-.007-.085-.011-.128l2.772-.346c-.251-1.081-1.775-1.347-4.433-.767.177,1.2.31,2.423.569,3.617.05.235.56.488.883.53a16.722,16.722,0,0,0,2.016.022c0,.14-.007.281-.013.417Zm20.317,87.614.156.168,5.414-3.772c-.926-1.317-1.743-2.48-2.7-3.832-2.492,3.409-4.855,6.643-7.218,9.879.1.091.207.179.311.271.6-.342,1.216-.648,1.782-1.04a6.179,6.179,0,0,0,1.443-1.223c1.5-1.944,2.935-3.938,4.392-5.912q.171.129.344.256ZM469.3,281.372c.123-.907.241-1.764.371-2.72h-2.426c0-.051,0-.1,0-.147.842-.053,1.686-.1,2.574-.155.057-.495.106-.925.166-1.458h-3.275c0-.037,0-.077,0-.118,1.128-.111,2.261-.223,3.475-.345-.072-.452-.129-.791-.188-1.156l-4.306.482c.408,2.558.853,5.014,1.167,7.483.113.885.57.912,1.232.96.79.058,1.011-.34,1.023-1.018.008-.433.049-.867.074-1.319-.579-.055-1.009-.1-1.441-.14,0-.045,0-.09,0-.134C468.251,281.516,468.755,281.447,469.3,281.372Zm12.564,56.978c.16.074.32.145.481.219,1.6-1.808,3.185-3.629,4.793-5.428,1.406-1.573,1.5-2.584.225-4.747-1.935,2.235-3.833,4.372-5.653,6.578-.236.283-.08.891-.1,1.351a51.414,51.414,0,0,1,5.834-5.888c-1.635,2.166-3.357,4.249-5.014,6.38A5.271,5.271,0,0,0,481.868,338.35Zm-43.589-61.421c1.759.111,3.385.245,5.013.3a1.1,1.1,0,0,0,.842-.469,2.033,2.033,0,0,0-1.385-3.061,8.629,8.629,0,0,0-1.689-.292c-2.341-.2-2.348-.185-2.628,2.158C438.383,275.971,438.34,276.375,438.279,276.929Zm32.772.006c1.7.105,3.205.231,4.717.271.368.01,1.037-.208,1.065-.4.1-.677.266-1.721-.1-2.018a5.314,5.314,0,0,0-4.773-1.347.972.972,0,0,0-.582.623C471.224,274.98,471.161,275.914,471.051,276.935ZM440.81,294.877a2,2,0,0,0-2.84.986c-.583,1.077-1.331,2.061-1.984,3.1-.283.451-.506.942-.932,1.747,1.143-.191,2.3-.049,2.628-.5A59.277,59.277,0,0,0,440.81,294.877Zm45.839,31.683c-1.766,2.085-3.375,3.931-4.91,5.835a2.515,2.515,0,0,0-.34,1.105c1.82-1.794,3.76-3.712,5.7-5.629.109.071.218.146.326.217C487.213,327.668,487,327.251,486.649,326.56ZM477.142,346.9l.131.112c1.083-1.157,2.175-2.3,3.245-3.472,1.559-1.7,1.551-1.706.251-3.86C479.548,342.11,478.345,344.5,477.142,346.9Zm5.448-6.361c.151.032.3.067.454.1,1.612-2.576,4.183-4.5,4.983-7.636-1.881,2-3.65,4.084-5.344,6.23C482.46,339.513,482.611,340.093,482.59,340.535Zm-1.135-8.789c1.559-1.658,2.951-3.209,4.425-4.676.693-.688.66-1.185-.109-1.857-1.2,1.362-2.277,2.758-3.54,3.97A2.6,2.6,0,0,0,481.455,331.746Zm-43.511-52.569c1.818,0,3.487.015,5.154-.019.2-.006.4-.283.6-.434-.183-.164-.352-.451-.553-.475-1.643-.208-3.3-.368-5.009-.552C438.075,278.178,438.021,278.573,437.944,279.177Zm5.481,1.416c-.064-.1-.13-.2-.194-.3l-5.382-.637c-.067.549-.123,1.007-.193,1.575,1.732,0,3.318.031,4.9-.031C442.851,281.189,443.135,280.8,443.425,280.593Zm27.3-1.407c1.825,0,3.46.015,5.09-.02.221,0,.435-.251.651-.384-.207-.187-.4-.512-.621-.542-1.614-.21-3.233-.358-4.928-.537C470.852,278.178,470.8,278.61,470.721,279.186Zm-.319,2.04c1.712,0,3.226.032,4.742-.027.345-.013.677-.344,1.016-.526-.058-.123-.116-.249-.173-.372l-5.365-.646C470.544,280.209,470.482,280.649,470.4,281.226Zm11.01,47.271c.083.048.165.1.246.146,1.225-1.132,2.478-2.233,3.645-3.416.246-.248.183-.8.258-1.216-.167-.07-.334-.138-.5-.206Q483.235,326.148,481.412,328.5Zm3.263-6.151c-1.981,1.668-2.443,2.439-2.344,3.85C485.413,323.092,485.56,323.625,484.675,322.346ZM427.024,294.76c.882-1.186,1.645-2.208,2.438-3.273C428.035,291.183,426.667,292.993,427.024,294.76Zm5.745-20.377,4.143-.328A2.767,2.767,0,0,0,432.769,274.383Zm37.033.137h-4.213C465.9,275.636,466.157,275.641,469.8,274.52Zm-4.008-.354c1.215-.08,2.43-.16,3.729-.249A2.678,2.678,0,0,0,465.794,274.166ZM459.3,293.111c.487-.815.809-1.357,1.226-2.054H458.8C458.952,291.7,459.093,292.269,459.3,293.111Z" fill-rule="evenodd"/>
      <path id="Trazado_67" data-name="Trazado 67" d="M479.486,333.455c.185.159.5.3.532.483.251,1.46.473,2.922.641,4.394a1.966,1.966,0,0,1-.266,1.015c-1.161,2.266-2.715,4.412-3.418,6.809-.762,2.6-2.966,3.621-4.335,5.5l-.3-.185q1.875-3.81,3.749-7.618c-.07-.044-.142-.084-.211-.124-.2.34-.4.674-.586,1.024-1.24,2.365-2.438,4.755-3.731,7.089a10.462,10.462,0,0,1-1.82,2.431c-2.362,2.29-4.791,4.507-7.21,6.736-.572.526-1.209.977-1.814,1.464-.12-.035-.24-.067-.361-.1a4.877,4.877,0,0,1,.19-1.12c.659-1.534,1.362-3.052,2.051-4.572-.1-.046-.2-.091-.3-.14-.769,1.626-1.535,3.252-2.368,5.018-4.436-5.807-8.851-11.476-15.369-15.351,1.27-1.614,2.563-3.286,3.889-4.933,2.062-2.562,4.108-5.14,6.232-7.646a23.415,23.415,0,0,0,5.483-14.865c.16-5.289-.049-10.592-.1-15.888-.005-.363-.033-.728-.059-1.3h22.929c0,1.74-.1,3.618.019,5.485.241,3.891.6,7.775.892,11.666a1.6,1.6,0,0,1-.136.915,23.986,23.986,0,0,0-3.721,12.225,6.815,6.815,0,0,1-.481,1.609q-2.184,3.424-4.371,6.849c.16.094.32.189.48.281Zm2.759-25.664c-.136-.083-.271-.166-.407-.246q-3.471,5.692-6.937,11.385c.132.078.262.158.395.238Q478.77,313.479,482.245,307.791Zm.058,6.505c-.111-.053-.219-.1-.326-.158q-3.154,5.5-6.308,11c.156.089.312.174.469.262Q479.216,319.846,482.3,314.3Zm-7.652-.133q3.092-5.252,6.181-10.5A37.664,37.664,0,0,0,474.651,314.163Zm-4.887,35.194c-.1-.046-.2-.088-.3-.134q-2.426,4.5-4.851,9,.217.115.435.226Q467.405,353.9,469.764,349.357Zm10.682-24.047c-.074-.042-.149-.088-.223-.131q-2.02,3.3-4.036,6.6l.363.214Q478.5,328.65,480.446,325.31Zm-5.7-17.777c.1.064.206.123.307.187L477.3,304c-.1-.06-.2-.117-.295-.176C476.251,305.059,475.5,306.3,474.751,307.533Z" fill="#fff" fill-rule="evenodd"/>
      <path id="Trazado_68" data-name="Trazado 68" d="M450.089,301.6c0,.85-.03,1.751,0,2.646.12,3.2.289,6.4.363,9.612a3.178,3.178,0,0,1-.547,1.709c-2,2.992-4.059,5.948-6.1,8.917.119.08.237.161.357.244,2.055-3.08,4.108-6.165,6.323-9.488.253,1.412.477,2.512.628,3.622a1.21,1.21,0,0,1-.257.888c-1.586,1.688-1.956,3.906-2.609,5.98a22.883,22.883,0,0,0-.383,12.3c.266,1.135-.344,1.664-1.25,2.49.183-.966.315-1.672.449-2.381-.117-.051-.233-.1-.35-.156-.469,3.777-3.062,6.283-5.251,9.066q1.064-3.176,2.126-6.35c-.086-.028-.17-.059-.256-.09a52.909,52.909,0,0,0-2.531,6.8c-.91,3.924-3.255,6.675-6.216,9.159-2.287,1.92-4.4,4.049-6.641,6.132-4.638-6.333-9.353-12.422-16.277-16.589,1.722-2.176,3.49-4.38,5.222-6.606,1.893-2.432,3.8-4.86,5.622-7.341A24.18,24.18,0,0,0,427.35,317.3c-.037-4.648-.1-9.291-.148-13.938-.006-.53,0-1.057,0-1.77Zm-.808,8.883a50.537,50.537,0,0,0-7.05,10.782Q445.756,315.868,449.281,310.48Zm-10.068,34.231c-.106-.032-.211-.061-.317-.092l-3.55,9.858c.175.061.35.121.524.178Q437.544,349.682,439.213,344.711Zm2.743-29.335c.112.1.226.193.338.287q3.34-4.806,6.682-9.612c-.105-.071-.213-.147-.318-.221ZM435.524,348.6c-.094-.029-.189-.06-.284-.086q-2.174,5.316-4.348,10.631c.127.048.253.1.381.148Q433.4,353.945,435.524,348.6Zm7-38.946c.107.088.213.177.319.266q2.426-3.154,4.852-6.312c-.092-.069-.183-.14-.274-.21Q444.974,306.521,442.525,309.651ZM430.2,354.069c-.089-.043-.181-.083-.27-.126q-1.291,3.228-2.581,6.455c.125.049.247.1.372.141Q428.96,357.307,430.2,354.069Zm9.958-46.827c.125.084.249.169.373.254q1.811-2.455,3.621-4.912l-.253-.186Z" fill="#fff" fill-rule="evenodd"/>
      <path id="Trazado_69" data-name="Trazado 69" d="M408.97,368.723c-1.006-.526-1.1-1.012-.633-1.993,2.051-4.326,3.962-8.714,5.924-13.081-.117-.054-.234-.109-.351-.166q-3.127,6.814-6.253,13.622c-.116.032-.23.069-.346.1a28.991,28.991,0,0,1-1.133-3.721A12.427,12.427,0,0,1,407.43,355c.954-1.678,1.81-3.412,2.705-5.124a1.751,1.751,0,0,0,.259-1.034q-1.245,2.1-2.488,4.2c-.077-.046-.158-.089-.236-.131,1.087-1.938,2.176-3.872,3.365-5.99,6.556,4.486,11.289,10.325,15.676,16.605l-.922.829c-.086-.338-.146-.574-.315-1.246-.694,2.323-2.42,3.027-4.355,4.07,1-2.123,1.858-3.964,2.721-5.8-.117-.058-.233-.111-.35-.169-.276.506-.563,1.006-.822,1.523a22.766,22.766,0,0,0-1.4,2.883c-1.029,3.069-3.876,3.1-6.375,3.85q2.744-6.211,5.491-12.425c-.081-.043-.164-.092-.244-.137a4.311,4.311,0,0,0-.4.588c-1.827,3.909-3.629,7.83-5.5,11.719a1.686,1.686,0,0,1-1.143.814,4.4,4.4,0,0,1-3.586-.859q3.5-7.483,7-14.963l-.369-.177Zm2.879-.032.423.149q2.975-6.846,5.948-13.694l-.3-.131A128.056,128.056,0,0,0,411.849,368.691Zm1.332-16.577c-.107-.048-.213-.1-.317-.148q-2.921,6.086-5.838,12.168l.5.234Q410.352,358.242,413.181,352.114Zm3.895,16.195c.178.083.356.163.534.245q2.279-5,4.555-10.013c-.142-.062-.283-.129-.423-.191Q419.41,363.325,417.076,368.309Zm-10.683-6.927q2.646-5.475,5.293-10.947C409.5,353.878,407.372,357.35,406.393,361.382Z" fill="#fff" fill-rule="evenodd"/>
      <path id="Trazado_70" data-name="Trazado 70" d="M441.241,368.551c-1.35-.971-1.5-1.737-.675-3.009,2.816-4.341,5.617-8.692,8.379-12.974-1.043,1.3-2.2,2.662-3.262,4.09-1.078,1.448-2.106,2.944-3.085,4.461-.993,1.546-1.9,3.143-2.9,4.817a3.014,3.014,0,0,1,.105-3.415c2.676-3.78,5.218-7.652,7.711-11.346a54.35,54.35,0,0,0-8.446,11.676c-.186-1.5-.384-2.744.374-3.89q2.412-3.648,4.849-7.281c.284-.426.6-.831.9-1.245l-.315-.232q-2.713,3.652-5.43,7.3c-.055-.015-.112-.028-.165-.043a24.9,24.9,0,0,1,1.07-3.435c1.079-2.289,2.306-4.506,3.545-6.889,2.94,1.605,5.129,3.909,7.425,6.235-.283.337-.528.654-.8.948a64.113,64.113,0,0,0-8.375,11.869,16.562,16.562,0,0,0-.921,2.391Z" fill="#fff" fill-rule="evenodd"/>
      <path id="Trazado_71" data-name="Trazado 71" d="M441.224,368.58c1.264-2.06,2.45-4.175,3.813-6.167,2.03-2.969,4.185-5.853,6.43-8.967,1.836,2.14,3.47,4.046,5.049,5.884-2.288,2.978-4.482,5.835-6.677,8.69a2.088,2.088,0,0,1-.231.286c-.752.671-.714,2.063-2.106,2.174a8.223,8.223,0,0,1-5.541-1.149,4.457,4.457,0,0,1-.72-.782Zm11.388-12.653c-2.509,2.008-9.027,11.579-8.991,13.339C446.662,364.754,449.666,360.293,452.612,355.927Zm1.163,3.143c-2.291,1.949-7.065,8.89-7.078,10.295Z" fill="#fff" fill-rule="evenodd"/>
      <path id="Trazado_72" data-name="Trazado 72" d="M480.75,293.451c-1.325,2.009-2.631,4.031-3.995,6.011a1.824,1.824,0,0,1-1.141.8c-1.832.086-3.67.037-5.689.037.709-1.234,1.419-2.477,2.289-4-1.969,1.14-1.953,3.819-4.348,4.1q1.632-2.583,3.264-5.167c-.076-.062-.154-.123-.231-.185a3.105,3.105,0,0,0-.543.494c-1.04,1.529-2.021,3.1-3.119,4.584-.265.356-.895.442-1.358.654-.12-.129-.237-.258-.357-.386,1.107-1.848,2.188-3.713,3.348-5.529a1.383,1.383,0,0,1,1.064-.372c.86.034,1.711.223,2.57.286,1.678.12,2.453-.28,2.832-1.891.351-1.494,1.1-1.855,2.5-1.635,1.049.167,2.136.077,3.2.194.573.063,1.573.25,1.61.494a4.2,4.2,0,0,1-.272,2.456,30.112,30.112,0,0,1-2.342,3.168c-.369.512-.65,1.086-.971,1.635l.352.245,3.089-4.345c.9,1.891-.531,3.008-1.106,4.446.2-.206.4-.407.584-.618s.355-.421.685-.814v1.963h-5.634c1.377-2.186,2.717-4.307,4.056-6.427C480.968,293.589,480.859,293.52,480.75,293.451Zm-3.929-.214c-1.744,1.172-4.761,5.762-4.7,6.949C473.738,297.8,475.28,295.516,476.821,293.237Zm2.074-.515-.4-.241q-2.309,3.668-4.616,7.333l.4.25Q476.585,296.39,478.895,292.722Z" fill="#20a39e" fill-rule="evenodd"/>
      <path id="Trazado_73" data-name="Trazado 73" d="M447.345,299.909c.882-1.24,1.764-2.481,2.807-3.946,0,1.389.032,2.51-.031,3.622-.012.185-.431.487-.67.5-1.255.052-2.514.025-3.987.025l3.959-7.1-.29-.176c-.412.628-.851,1.24-1.233,1.887-.957,1.627-1.83,3.31-2.867,4.886-.292.443-1.04.585-1.579.866-.123-.132-.246-.266-.366-.4q2.112-3.84,4.221-7.68l-.26-.163c-.416.629-.867,1.234-1.239,1.885-1.056,1.855-2.03,3.758-3.158,5.57-.284.458-1.015.637-1.54.945-.086-.119-.169-.24-.254-.359l3.868-6.8c-.106-.063-.21-.129-.316-.194a7.9,7.9,0,0,0-.529.705c-1.167,1.98-2.26,4.012-3.535,5.921-.3.451-1.2.506-1.82.743-.06-.109-.118-.218-.178-.329.631-1.123,1.3-2.231,1.885-3.375.864-1.674,1.654-3.382,2.524-5.051.153-.292.557-.655.834-.647,1.968.073,3.933.232,5.9.363.7.046.954.377.949,1.115a4.91,4.91,0,0,1-1.126,3.606,30.318,30.318,0,0,0-2.349,3.332C447.092,299.741,447.217,299.827,447.345,299.909Z" fill="#20a39e" fill-rule="evenodd"/>
      <path id="Trazado_74" data-name="Trazado 74" d="M430.312,300.227l4.888-7.2c.434,1.842,1.887,1.241,2.969,1.659-1.25,1.924-2.406,3.846-3.732,5.638-.277.375-1.182.288-1.8.414-.1-.1-.2-.206-.3-.308q1.664-2.783,3.323-5.561c-.073-.052-.143-.1-.214-.153a16.869,16.869,0,0,0-2.026,3.024,4.5,4.5,0,0,1-5.3,3.138,6.223,6.223,0,0,0-.83-.006c-1.037-2.941.148-7.366,2.458-9.218a.918.918,0,0,1,.542-.213,44.231,44.231,0,0,1,5.2.393c-1.881,2.786-4.051,5.257-5.451,8.21C430.13,300.106,430.221,300.165,430.312,300.227Zm-1.791-1c.144.094.289.19.432.286q2.082-3.289,4.158-6.574c-.087-.055-.175-.109-.26-.165Q430.686,296,428.521,299.23Zm-1.225-1.675c.127.086.256.177.381.262q1.947-2.866,3.892-5.734c-.087-.059-.174-.12-.262-.181Q429.3,294.728,427.3,297.555Z" fill="#20a39e" fill-rule="evenodd"/>
      <path id="Trazado_75" data-name="Trazado 75" d="M460.267,297.224q.336-.754.672-1.505c.218-.488.422-.98.655-1.461,1.609-3.347,2.585-3.721,6.253-2.412l-5.17,8.072c.148.1.3.188.447.284,1.573-2.5,3.145-5.005,4.751-7.56a2.556,2.556,0,0,1-.239,3.3c-.91,1.256-1.56,2.7-2.37,4.027a1.409,1.409,0,0,1-.836.666c-1.425.142-2.861.185-4.527.275.131-2.815-1.191-5.54.111-8.335.543-1.169,1.23-1.8,2.653-1.2-.969,1.86-2.369,3.555-2.7,5.7Zm.89,1.682c.1.061.2.119.307.178q2.07-3.614,4.138-7.229A25.027,25.027,0,0,0,461.157,298.906Z" fill="#20a39e" fill-rule="evenodd"/>
      <path id="Trazado_76" data-name="Trazado 76" d="M469.157,293.5c.361-4.042.695-7.821,1.029-11.607l5.5.614c-.3,1.532-.578,3.009-.873,4.483-.371,1.855-.779,3.7-1.117,5.559a1,1,0,0,1-1.254.969C471.433,293.448,470.415,293.5,469.157,293.5Z" fill="#fff" fill-rule="evenodd"/>
      <path id="Trazado_77" data-name="Trazado 77" d="M437.452,281.892c1.94.213,3.645.4,5.49.609-.517,2.572-.987,5.1-1.534,7.616-.7,3.232-.08,3.009-3.675,2.846-.359-.018-.717,0-1.31,0C436.774,289.171,437.114,285.523,437.452,281.892Z" fill="#fff" fill-rule="evenodd"/>
      <path id="Trazado_78" data-name="Trazado 78" d="M433.511,279.449h2.759c.006-.136.01-.277.013-.417a16.722,16.722,0,0,1-2.016-.022c-.323-.042-.833-.3-.883-.53-.259-1.194-.392-2.414-.569-3.617,2.658-.58,4.182-.314,4.433.767l-2.772.346c0,.043.006.084.011.128h2.9c-.366,2.351-.722,4.637-1.088,7-.541-.046-1.04-.086-1.538-.126-.015.058-.028.115-.043.173.381.132.763.264,1.237.426-1.486.538-1.7.421-1.919-.933C433.878,281.639,433.708,280.633,433.511,279.449Z" fill="#fff" fill-rule="evenodd"/>
      <path id="Trazado_79" data-name="Trazado 79" d="M453.828,367.063l3.929-5.2q-.172-.127-.344-.256c-1.457,1.974-2.893,3.968-4.392,5.912a6.179,6.179,0,0,1-1.443,1.223c-.566.392-1.186.7-1.782,1.04-.1-.092-.207-.18-.311-.271,2.363-3.236,4.726-6.47,7.218-9.879.952,1.352,1.769,2.515,2.7,3.832l-5.414,3.772Z" fill="#fff" fill-rule="evenodd"/>
      <path id="Trazado_80" data-name="Trazado 80" d="M453.553,326.379a22.991,22.991,0,0,1,1.825,2.829c.136.283-.372.937-.678,1.357-.929,1.284-1.9,2.539-2.865,3.8-.814,1.064-1.646,2.114-2.472,3.169-.125-.053-.254-.108-.383-.166a3.9,3.9,0,0,1,.3-1.222c1.376-2.144,2.8-4.249,4.2-6.375a1.523,1.523,0,0,0,.284-1.058l-4.858,7.069a2.274,2.274,0,0,1,.19-2.3c1.409-2.048,2.585-4.263,3.854-6.409C453.155,326.839,453.354,326.607,453.553,326.379Z" fill="#fff" fill-rule="evenodd"/>
      <path id="Trazado_81" data-name="Trazado 81" d="M469.3,281.372c-.549.075-1.053.144-1.557.215,0,.044,0,.089,0,.134.432.043.862.085,1.441.14-.025.452-.066.886-.074,1.319-.012.678-.233,1.076-1.023,1.018-.662-.048-1.119-.075-1.232-.96-.314-2.469-.759-4.925-1.167-7.483l4.306-.482c.059.365.116.7.188,1.156-1.214.122-2.347.234-3.475.345,0,.041,0,.081,0,.118h3.275c-.06.533-.109.963-.166,1.458-.888.053-1.732.1-2.574.155,0,.049,0,.1,0,.147h2.426C469.545,279.608,469.427,280.465,469.3,281.372Z" fill="#fff" fill-rule="evenodd"/>
      <path id="Trazado_82" data-name="Trazado 82" d="M481.868,338.35a5.271,5.271,0,0,1,.561-1.535c1.657-2.131,3.379-4.214,5.014-6.38a51.414,51.414,0,0,0-5.834,5.888c.025-.46-.131-1.068.1-1.351,1.82-2.206,3.718-4.343,5.653-6.578,1.279,2.163,1.181,3.174-.225,4.747-1.608,1.8-3.2,3.62-4.793,5.428C482.188,338.495,482.028,338.424,481.868,338.35Z" fill="#fff" fill-rule="evenodd"/>
      <path id="Trazado_83" data-name="Trazado 83" d="M438.279,276.929c.061-.554.1-.958.153-1.363.28-2.343.287-2.359,2.628-2.158a8.629,8.629,0,0,1,1.689.292,2.033,2.033,0,0,1,1.385,3.061,1.1,1.1,0,0,1-.842.469C441.664,277.174,440.038,277.04,438.279,276.929Z" fill="#fff" fill-rule="evenodd"/>
      <path id="Trazado_84" data-name="Trazado 84" d="M471.051,276.935c.11-1.021.173-1.955.331-2.87a.972.972,0,0,1,.582-.623,5.314,5.314,0,0,1,4.773,1.347c.362.3.2,1.341.1,2.018-.028.191-.7.409-1.065.4C474.256,277.166,472.747,277.04,471.051,276.935Z" fill="#fff" fill-rule="evenodd"/>
      <path id="Trazado_85" data-name="Trazado 85" d="M453.553,326.379c-.2.228-.4.46-.6.689-1.406,2.034-2.815,4.075-4.321,6.255a11.411,11.411,0,0,1,.982-6.371c.572-1.08,1.063-2.2,1.59-3.31q.221-.436.438-.877a1.191,1.191,0,0,1,1.015,1.679c-.1.3-.2.592-.306.889q-1.79,2.946-3.583,5.887c.174.1.349.188.523.286l3.035-6.2.76-.615C453.257,325.3,453.407,325.839,453.553,326.379Z" fill="#fff" fill-rule="evenodd"/>
      <path id="Trazado_86" data-name="Trazado 86" d="M440.81,294.877a59.277,59.277,0,0,1-3.128,5.336c-.326.452-1.485.31-2.628.5.426-.8.649-1.3.932-1.747.653-1.043,1.4-2.027,1.984-3.1A2,2,0,0,1,440.81,294.877Z" fill="#20a39e" fill-rule="evenodd"/>
      <path id="Trazado_87" data-name="Trazado 87" d="M486.649,326.56c.35.691.564,1.108.776,1.528-.108-.071-.217-.146-.326-.217-1.94,1.917-3.88,3.835-5.7,5.629a2.515,2.515,0,0,1,.34-1.105C483.274,330.491,484.883,328.645,486.649,326.56Z" fill="#fff" fill-rule="evenodd"/>
      <path id="Trazado_88" data-name="Trazado 88" d="M477.142,346.9c1.2-2.394,2.406-4.786,3.627-7.22,1.3,2.154,1.308,2.16-.251,3.86-1.07,1.169-2.162,2.315-3.245,3.472Z" fill="#fff" fill-rule="evenodd"/>
      <path id="Trazado_89" data-name="Trazado 89" d="M482.59,340.535c.021-.442-.13-1.022.093-1.3,1.694-2.146,3.463-4.229,5.344-6.23-.8,3.132-3.371,5.06-4.983,7.636C482.892,340.6,482.741,340.567,482.59,340.535Z" fill="#fff" fill-rule="evenodd"/>
      <path id="Trazado_90" data-name="Trazado 90" d="M481.455,331.746a2.6,2.6,0,0,1,.776-2.563c1.263-1.212,2.345-2.608,3.54-3.97.769.672.8,1.169.109,1.857C484.406,328.537,483.014,330.088,481.455,331.746Z" fill="#fff" fill-rule="evenodd"/>
      <path id="Trazado_91" data-name="Trazado 91" d="M437.944,279.177c.077-.6.131-1,.194-1.48,1.714.184,3.366.344,5.009.552.2.024.37.311.553.475-.2.151-.4.428-.6.434C441.431,279.192,439.762,279.177,437.944,279.177Z" fill="#fff" fill-rule="evenodd"/>
      <path id="Trazado_92" data-name="Trazado 92" d="M443.425,280.593c-.29.211-.574.6-.871.606-1.58.062-3.166.031-4.9.031.07-.568.126-1.026.193-1.575l5.382.637C443.3,280.39,443.361,280.491,443.425,280.593Z" fill="#fff" fill-rule="evenodd"/>
      <path id="Trazado_93" data-name="Trazado 93" d="M470.721,279.186c.074-.576.131-1.008.192-1.483,1.7.179,3.314.327,4.928.537.226.03.414.355.621.542-.216.133-.43.382-.651.384C474.181,279.2,472.546,279.186,470.721,279.186Z" fill="#fff" fill-rule="evenodd"/>
      <path id="Trazado_94" data-name="Trazado 94" d="M470.4,281.226c.08-.577.142-1.017.22-1.571l5.365.646c.057.123.115.249.173.372-.339.182-.671.513-1.016.526C473.628,281.258,472.114,281.226,470.4,281.226Z" fill="#fff" fill-rule="evenodd"/>
      <path id="Trazado_95" data-name="Trazado 95" d="M481.412,328.5q1.823-2.349,3.646-4.692c.169.068.336.136.5.206-.075.412-.012.968-.258,1.216-1.167,1.183-2.42,2.284-3.645,3.416C481.577,328.594,481.495,328.545,481.412,328.5Z" fill="#fff" fill-rule="evenodd"/>
      <path id="Trazado_96" data-name="Trazado 96" d="M451.646,322.765q-.217.441-.438.877c-.3.434-.617.855-.9,1.3s-.508.885-.761,1.332c-.105-.049-.209-.094-.313-.138l2.121-5.688C451.893,321.447,452.5,322.039,451.646,322.765Z" fill="#fff" fill-rule="evenodd"/>
      <path id="Trazado_97" data-name="Trazado 97" d="M484.675,322.346c.885,1.279.738.746-2.344,3.85C482.232,324.785,482.694,324.014,484.675,322.346Z" fill="#fff" fill-rule="evenodd"/>
      <path id="Trazado_98" data-name="Trazado 98" d="M427.024,294.76c-.357-1.767,1.011-3.577,2.438-3.273C428.669,292.552,427.906,293.574,427.024,294.76Z" fill="#20a39e" fill-rule="evenodd"/>
      <path id="Trazado_99" data-name="Trazado 99" d="M432.769,274.383a2.767,2.767,0,0,1,4.143-.328Z" fill="#fff" fill-rule="evenodd"/>
      <path id="Trazado_100" data-name="Trazado 100" d="M469.8,274.52c-3.645,1.121-3.9,1.116-4.213,0Z" fill="#fff" fill-rule="evenodd"/>
      <path id="Trazado_101" data-name="Trazado 101" d="M465.794,274.166a2.678,2.678,0,0,1,3.729-.249C468.224,274.006,467.009,274.086,465.794,274.166Z" fill="#fff" fill-rule="evenodd"/>
      <path id="Trazado_102" data-name="Trazado 102" d="M459.3,293.111c-.206-.842-.347-1.414-.5-2.054h1.73C460.108,291.754,459.786,292.3,459.3,293.111Z" fill="#20a39e" fill-rule="evenodd"/>
      <path id="Trazado_103" data-name="Trazado 103" d="M482.245,307.791q-3.473,5.688-6.949,11.377c-.133-.08-.263-.16-.395-.238q3.467-5.692,6.937-11.385C481.974,307.625,482.109,307.708,482.245,307.791Z" fill="#006a6b" fill-rule="evenodd"/>
      <path id="Trazado_104" data-name="Trazado 104" d="M482.3,314.3q-3.086,5.55-6.165,11.1c-.157-.088-.313-.173-.469-.262q3.151-5.5,6.308-11C482.084,314.191,482.192,314.243,482.3,314.3Z" fill="#006a6b" fill-rule="evenodd"/>
      <path id="Trazado_105" data-name="Trazado 105" d="M474.651,314.163a37.664,37.664,0,0,1,6.181-10.5Q477.742,308.91,474.651,314.163Z" fill="#006a6b" fill-rule="evenodd"/>
      <path id="Trazado_106" data-name="Trazado 106" d="M469.764,349.357q-2.358,4.543-4.715,9.09-.218-.111-.435-.226,2.424-4.5,4.851-9C469.563,349.269,469.662,349.311,469.764,349.357Z" fill-rule="evenodd"/>
      <path id="Trazado_107" data-name="Trazado 107" d="M479.486,333.455l-3.866,7.15c-.16-.092-.32-.187-.48-.281q2.185-3.425,4.371-6.849Z" fill="#006a6b" fill-rule="evenodd"/>
      <path id="Trazado_108" data-name="Trazado 108" d="M480.446,325.31q-1.949,3.339-3.9,6.678l-.363-.214q2.018-3.3,4.036-6.6C480.3,325.222,480.372,325.268,480.446,325.31Z" fill="#006a6b" fill-rule="evenodd"/>
      <path id="Trazado_109" data-name="Trazado 109" d="M474.751,307.533c.75-1.234,1.5-2.474,2.25-3.71.1.059.2.116.295.176l-2.238,3.721C474.957,307.656,474.854,307.6,474.751,307.533Z" fill="#006a6b" fill-rule="evenodd"/>
      <path id="Trazado_110" data-name="Trazado 110" d="M449.281,310.48q-3.523,5.391-7.05,10.782A50.537,50.537,0,0,1,449.281,310.48Z" fill-rule="evenodd"/>
      <path id="Trazado_111" data-name="Trazado 111" d="M439.213,344.711q-1.67,4.971-3.343,9.944c-.174-.057-.349-.117-.524-.178l3.55-9.858C439,344.65,439.107,344.679,439.213,344.711Z" fill-rule="evenodd"/>
      <path id="Trazado_112" data-name="Trazado 112" d="M441.956,315.376l6.7-9.546c.105.074.213.15.318.221q-3.342,4.8-6.682,9.612C442.182,315.569,442.068,315.472,441.956,315.376Z" fill-rule="evenodd"/>
      <path id="Trazado_113" data-name="Trazado 113" d="M435.524,348.6q-2.124,5.345-4.251,10.693c-.128-.052-.254-.1-.381-.148q2.174-5.316,4.348-10.631C435.335,348.537,435.43,348.568,435.524,348.6Z" fill-rule="evenodd"/>
      <path id="Trazado_114" data-name="Trazado 114" d="M442.525,309.651q2.449-3.127,4.9-6.256c.091.07.182.141.274.21q-2.429,3.154-4.852,6.312C442.738,309.828,442.632,309.739,442.525,309.651Z" fill-rule="evenodd"/>
      <path id="Trazado_115" data-name="Trazado 115" d="M430.2,354.069q-1.242,3.237-2.479,6.47c-.125-.046-.247-.092-.372-.141q1.293-3.227,2.581-6.455C430.02,353.986,430.112,354.026,430.2,354.069Z" fill-rule="evenodd"/>
      <path id="Trazado_116" data-name="Trazado 116" d="M440.159,307.242,443.9,302.4l.253.186q-1.809,2.457-3.621,4.912C440.408,307.411,440.284,307.326,440.159,307.242Z" fill-rule="evenodd"/>
      <path id="Trazado_117" data-name="Trazado 117" d="M411.849,368.691a128.056,128.056,0,0,1,6.072-13.676l.3.131q-2.975,6.842-5.948,13.694Z" fill-rule="evenodd"/>
      <path id="Trazado_118" data-name="Trazado 118" d="M413.181,352.114q-2.829,6.13-5.655,12.254l-.5-.234q2.916-6.084,5.838-12.168C412.968,352.015,413.074,352.066,413.181,352.114Z" fill-rule="evenodd"/>
      <path id="Trazado_119" data-name="Trazado 119" d="M417.076,368.309q2.331-4.979,4.666-9.959c.14.062.281.129.423.191q-2.279,5.012-4.555,10.013C417.432,368.472,417.254,368.392,417.076,368.309Z" fill-rule="evenodd"/>
      <path id="Trazado_120" data-name="Trazado 120" d="M406.393,361.382c.979-4.032,3.11-7.5,5.293-10.947Q409.04,355.907,406.393,361.382Z" fill-rule="evenodd"/>
      <path id="Trazado_121" data-name="Trazado 121" d="M452.612,355.927c-2.946,4.366-5.95,8.827-8.991,13.339C443.585,367.506,450.1,357.935,452.612,355.927Z" fill-rule="evenodd"/>
      <path id="Trazado_122" data-name="Trazado 122" d="M453.775,359.07,446.7,369.365C446.71,367.96,451.484,361.019,453.775,359.07Z" fill-rule="evenodd"/>
      <path id="Trazado_123" data-name="Trazado 123" d="M476.821,293.237c-1.541,2.279-3.083,4.56-4.7,6.949C472.06,299,475.077,294.409,476.821,293.237Z" fill="#fff" fill-rule="evenodd"/>
      <path id="Trazado_124" data-name="Trazado 124" d="M478.895,292.722q-2.309,3.671-4.619,7.342l-.4-.25q2.31-3.668,4.616-7.333Z" fill="#fff" fill-rule="evenodd"/>
      <path id="Trazado_125" data-name="Trazado 125" d="M428.521,299.23q2.166-3.228,4.33-6.453c.085.056.173.11.26.165q-2.079,3.287-4.158,6.574C428.81,299.42,428.665,299.324,428.521,299.23Z" fill="#fff" fill-rule="evenodd"/>
      <path id="Trazado_126" data-name="Trazado 126" d="M427.3,297.555q2.006-2.827,4.011-5.653c.088.061.175.122.262.181q-1.944,2.866-3.892,5.734C427.552,297.732,427.423,297.641,427.3,297.555Z" fill-rule="evenodd"/>
      <path id="Trazado_127" data-name="Trazado 127" d="M461.157,298.906a25.027,25.027,0,0,1,4.445-7.051q-2.068,3.616-4.138,7.229C461.361,299.025,461.259,298.967,461.157,298.906Z" fill="#fff" fill-rule="evenodd"/>
      <path id="Trazado_128" data-name="Trazado 128" d="M452.33,325.311l-3.035,6.2c-.174-.1-.349-.191-.523-.286q1.794-2.945,3.583-5.887Z" fill-rule="evenodd"/>
    </g>
    <text id="Ourclothe" transform="translate(401.175 268.702)" fill="#fff" font-size="25.52" font-family="Kanit-Regular, Kanit" letter-spacing="-0.03em"><tspan x="0" y="0">Ourclothe</tspan></text>
  </g>
</svg>
