<?xml version="1.0" encoding="utf-8"?>
<!-- Generator: Adobe Illustrator 24.3.0, SVG Export Plug-In . SVG Version: 6.00 Build 0)  -->
<svg version="1.1" id="Capa_1" xmlns="http://www.w3.org/2000/svg" xmlns:xlink="http://www.w3.org/1999/xlink" x="0px" y="0px"
	 viewBox="0 0 615 765.8" style="enable-background:new 0 0 615 765.8;" xml:space="preserve">
<style type="text/css">
	.st0{fill-rule:evenodd;clip-rule:evenodd;}
	.st1{fill-rule:evenodd;clip-rule:evenodd;fill:#FFFFFF;}
	.st2{fill-rule:evenodd;clip-rule:evenodd;fill:#006A6B;}
	.st3{enable-background:new    ;}
	.st4{fill:#006A6B;}
</style>
<g id="Grupo_9">
	<path id="Trazado_3" class="st0" d="M0,251.5c61.6-5.9,123.5-1.8,186.2-4c-1.4-8.9-2.8-17.2-4-25.6c-1.4-9.2-2.6-18.4-3.8-27.7
		c-0.9-7,2.7-11.3,9.5-11.7c8.5-0.6,17.9-3.7,24.2,5.7c5.8-11.5,20.6-10.4,34.1-6.6c10.7,3,17.1,13.1,15.7,25.2
		c-1.2,10.9-3.8,21.6-5.8,32.4c-0.5,2.8-1.1,5.5-2,9.5h122.7c-1.3-8.1-2.8-16.5-3.9-24.9c-1.5-10.2-2.7-20.4-4-30.5
		c-0.7-5.8,2.3-9.5,7.6-10.3c8.4-1.4,17-2.7,25.1,2.8c3.7-6.4,9.7-7.7,16.1-6.7c7.7,1.2,16.2,1.5,22.7,5.2
		c11.7,6.5,13.4,18.3,11.2,30.7c-2,11.7-4.1,23.5-6.3,35.9c53.6,3.4,107.2,0.9,160.2,7.4c0.1,1.2,0.1,2.4,0.2,3.6
		c-3.2,0.5-6.4,1.6-9.6,1.5c-28-0.4-55.9-0.9-83.9-1.5c-21.3-0.5-42.5-1.1-63.8-1.9c-4-0.1-6.2,0.8-6.9,5.1c-0.6,4.2-2,8.3-3.1,12.4
		c12.5,1.3,24.5,2.3,36.5,3.9c10.5,1.4,11.1,2.6,11.3,13.4c0.9,41.8,1.1,83.7,3.1,125.4c1.3,27.8,6.6,54.9,19.4,80.2
		c8.2,16.1,7.9,32.1-2,48.3c-34.7,56.5-79.5,103.9-130,146.1c-24,20-50.1,37.5-75.6,55.5c-6.9,4.9-15,8.6-22.9,11.6
		c-29,11.1-54.9-1.3-65.4-30.6c-5.8-16.2-6.5-32.7-3.7-49.5c0.6-3.5,1.1-6.9,2-12.2c-7.5,7.1-13.9,13.1-20.1,19.2
		c-25.9,25.1-54.2,46.9-86.7,62.9c-13,6.4-27.2,10.1-41.6,9.1C40.5,759,24.6,743,19,718.6c-6.8-29.8,0.9-57.3,14.2-83.7
		c12.7-25.2,30.9-46.5,47.9-68.6c14.5-18.9,28.9-38.1,41.5-58.3c10-16.1,16.3-34.5,16.5-53.6c0.5-37.7-0.6-75.5-1-113.2
		c-0.2-15.5-0.4-31.1-0.2-46.6c0.2-12.5,1.7-14.2,14.2-14.9c10.5-0.5,21-0.2,31.5-0.3c2.3,0,4.6,0,7.7,0c-1.1-7.1-1.7-13.3-3.3-19.2
		c-0.5-1.7-4.1-3.4-6.2-3.4c-22.5-0.3-44.9-0.2-67.4-0.2c-28.5,0-56.9,0.2-85.3,0c-9.7-0.1-19.4-1.2-29-1.8C0,253.6,0,252.6,0,251.5
		z M297.2,488.9l0.2,0.1c0.6-1.7,1.2-3.4,1.8-5.2c1.7-4.9-1.3-9.9-5.9-9.8c5-4.2,1.4-7.7-1.7-13.4c-4.5,12.2-8.4,22.6-12.3,33
		c0.6,0.3,1.2,0.5,1.8,0.8c1.5-2.6,2.8-5.2,4.4-7.7c1.6-2.6,3.5-5,5.2-7.6c-3.1,6.4-5.9,13-9.2,19.2c-6.1,11.5-6.6,23.7-5.7,37
		c8.7-12.7,16.9-24.5,25.1-36.3c-7.4,12.5-14.2,25.3-22.4,37.2c-3.2,4.6-2.7,7.9-1.1,13.4c9.8-14.3,19-27.7,28.2-41.1
		c0.2,2.2-0.4,4.4-1.7,6.1c-8.1,12.4-16.4,24.6-24.4,37c-1.3,1.9-1.2,4.7-1.8,7.1c0.7,0.3,1.5,0.7,2.2,1c4.8-6.1,9.6-12.2,14.4-18.4
		c5.6-7.3,11.3-14.6,16.6-22.1c1.8-2.4,4.7-6.2,3.9-7.9c-2.8-5.8-7-11-10.6-16.4c-0.8-3.1-1.7-6.3-2.7-9.8
		C299.6,487,298.4,488,297.2,488.9z M232.8,740.2c1.4,1.5,2.5,3.4,4.2,4.5c9.8,6.7,20.7,7.6,32.2,6.7c8.1-0.6,7.9-8.7,12.2-12.6
		c0.5-0.5,0.9-1.1,1.3-1.7c12.7-16.6,25.5-33.2,38.8-50.5c-9.2-10.7-18.7-21.8-29.3-34.2c-13,18.1-25.6,34.9-37.4,52.1
		c-7.9,11.6-14.8,23.9-22.2,35.8c1.8-4.7,2.9-9.6,5.4-13.9c13.9-24.6,29.5-48.1,48.7-69c1.6-1.7,3-3.6,4.6-5.5
		c-13.3-13.5-26.1-26.9-43.1-36.2c-7.2,13.8-14.3,26.7-20.6,40c-2.9,6.2-4.2,13.3-6.2,20c0.3,0.1,0.6,0.2,1,0.3
		c10.5-14.1,21-28.3,31.5-42.4c0.6,0.4,1.2,0.9,1.8,1.3c-1.8,2.4-3.6,4.8-5.2,7.2c-9.4,14.1-18.8,28.2-28.2,42.3
		c-4.4,6.7-3.3,13.9-2.2,22.6c14.7-25.6,30-48.8,49.1-67.8c-14.5,21.5-29.3,44-44.8,65.9c-5,7-3.9,12.8-0.6,19.8
		c5.8-9.7,11.1-19,16.9-28c5.7-8.8,11.7-17.5,17.9-25.9c6.2-8.3,12.9-16.2,19-23.8c-16,24.9-32.3,50.2-48.7,75.4
		C224.1,730.1,225,734.6,232.8,740.2L232.8,740.2z M455,536.3l0.1,0.1c1-3.1,2.7-6.2,2.8-9.3c1.1-25.6,7.6-49.4,21.6-71
		c0.9-1.4,0.9-3.6,0.8-5.3c-1.7-22.6-3.8-45.2-5.2-67.8c-0.7-10.8-0.1-21.8-0.1-31.9H341.9c0.2,3.3,0.3,5.4,0.3,7.6
		c0.3,30.8,1.5,61.6,0.6,92.3c-1,32-10.7,61.4-31.9,86.4c-12.3,14.6-24.2,29.5-36.2,44.4c-7.7,9.6-15.2,19.3-22.6,28.7
		c37.9,22.5,63.5,55.5,89.3,89.2c4.8-10.3,9.3-19.7,13.8-29.2c0.6,0.3,1.2,0.5,1.7,0.8c-4,8.8-8.1,17.7-11.9,26.6
		c-0.8,2-0.8,4.3-1.1,6.5c0.7,0.2,1.4,0.4,2.1,0.6c3.5-2.8,7.2-5.4,10.5-8.5c14.1-12.9,28.2-25.8,41.9-39.1
		c4.2-4.2,7.8-8.9,10.6-14.1c7.5-13.6,14.5-27.4,21.7-41.2c1.1-2,2.3-4,3.4-5.9c0.4,0.2,0.8,0.5,1.2,0.7
		c-7.3,14.8-14.5,29.5-21.8,44.3c0.6,0.4,1.2,0.7,1.7,1.1c8-10.9,20.8-16.9,25.2-32c4.1-13.9,13.1-26.4,19.9-39.6
		c0.9-1.8,1.8-4,1.5-5.9c-1-8.6-2.3-17.1-3.7-25.5C458,538,456.1,537.2,455,536.3L455,536.3z M284.2,351.1h-133c0,4.1,0,7.2,0,10.3
		c0.3,27,0.6,54,0.9,81c0.3,31.9-9.2,60.7-28.1,86.3c-10.6,14.4-21.7,28.5-32.7,42.7C81.3,584.3,71,597.1,61,609.8
		c40.2,24.2,67.6,59.6,94.6,96.4c13-12.1,25.3-24.5,38.6-35.6c17.2-14.4,30.8-30.4,36.1-53.2c3.1-13.6,9.7-26.4,14.7-39.5
		c0.5,0.2,1,0.4,1.5,0.5c-4.1,12.3-8.2,24.6-12.4,36.9c12.7-16.2,27.8-30.7,30.5-52.7c0.7,0.3,1.4,0.6,2,0.9
		c-0.8,4.1-1.5,8.2-2.6,13.8c5.3-4.8,8.8-7.9,7.3-14.5c-5.7-23.9-5.2-47.9,2.2-71.5c3.8-12.1,5.9-24.9,15.2-34.8
		c1.2-1.5,1.7-3.3,1.5-5.2c-0.9-6.5-2.2-12.8-3.7-21c-12.9,19.3-24.8,37.2-36.7,55.1c-0.7-0.5-1.4-0.9-2.1-1.4
		c11.8-17.3,23.8-34.4,35.4-51.8c2-2.9,3.1-6.4,3.2-9.9c-0.4-18.6-1.4-37.2-2.1-55.8C284.1,361.3,284.2,356.1,284.2,351.1
		L284.2,351.1z M246.7,278.8c14.3,1.5,28,2.6,41.7,4.3c9.2,1.2,9.6,2.3,9.6,11.5c0.1,41.1-0.7,82.2,1.2,123.2
		c0.9,19,6.5,38,11.1,56.7c2.2,8.7,7.2,16.6,10.9,24.9c0.7-0.1,1.3-0.3,2-0.4c1.1-3.6,2.5-7.1,3.1-10.8c7.9-45,7.2-90.3,3.6-135.7
		c-1.6-19.5-2-39.1-2.2-58.7c-0.1-9.6,3.8-12.7,13.4-13c6.5-0.2,12.9-0.1,19.3-0.1c7,0,14.1,0,21.7,0c-1-6.2-2.3-11.1-2.5-16
		c-0.3-5.5-3-6.7-7.8-6.6c-14.1,0-28.2-0.2-42.3-0.4c-23.7-0.3-47.3-0.7-70.9-0.8c-2.4,0-6.3,1.2-6.9,2.8
		C249.4,265.9,248.2,272.5,246.7,278.8L246.7,278.8z M45.3,741.2c13.9-28.6,27.9-57,41.7-85.4c0.7,0.3,1.4,0.7,2.1,1
		c-13.6,29-27.1,58-40.7,86.9c6.5,5.5,13.7,5.8,20.8,5c2.8-0.5,5.2-2.3,6.6-4.7c10.8-22.6,21.3-45.4,31.9-68.1
		c0.7-1.2,1.5-2.3,2.3-3.4c0.5,0.3,0.9,0.5,1.4,0.8c-10.6,24.1-21.3,48.1-31.9,72.2c14.5-4.4,31.1-4.5,37-22.4
		c2-5.8,5.3-11.2,8.1-16.8c1.5-3,3.2-5.9,4.8-8.9c0.7,0.3,1.4,0.6,2,1c-5,10.7-10,21.4-15.8,33.7c11.2-6.1,21.3-10.1,25.3-23.6
		c1,3.9,1.3,5.3,1.8,7.2c2-1.8,3.6-3.2,5.4-4.8c-25.5-36.5-53-70.4-91.1-96.5c-6.9,12.3-13.2,23.5-19.6,34.8
		c0.5,0.2,0.9,0.5,1.4,0.8c4.8-8.1,9.6-16.3,14.5-24.4c0.1,2.1-0.4,4.2-1.5,6c-5.2,9.9-10.2,20-15.7,29.8
		c-8.9,15.6-10.1,32.2-7.3,49.3c1.2,7.4,4.3,14.4,6.6,21.6c0.7-0.2,1.3-0.4,2-0.6C49.8,705.4,61.9,679,74,652.6c0.7,0.3,1.4,0.6,2,1
		c-11.4,25.4-22.5,50.9-34.4,76C38.9,735.3,39.5,738.1,45.3,741.2z M462.4,303.8c0.6,0.4,1.3,0.8,1.9,1.2
		c-7.8,12.3-15.6,24.6-23.6,37.3h32.7v-11.4c-1.9,2.3-2.9,3.5-4,4.7c-1.1,1.2-2.3,2.4-3.4,3.6c3.3-8.4,11.7-14.8,6.4-25.8
		c-6.2,8.7-12.1,17-17.9,25.2c-0.7-0.5-1.4-0.9-2-1.4c1.9-3.2,3.5-6.5,5.6-9.5c4.5-6.2,10-11.8,13.6-18.4c2.2-4,2.2-9.6,1.6-14.3
		c-0.2-1.4-6-2.5-9.4-2.9c-6.2-0.7-12.5-0.2-18.6-1.1c-8.1-1.3-12.5,0.8-14.5,9.5c-2.2,9.4-6.7,11.7-16.5,11
		c-5-0.4-9.9-1.5-14.9-1.7c-2.1-0.1-5.2,0.7-6.2,2.2c-6.7,10.6-13,21.4-19.5,32.1c0.7,0.7,1.4,1.5,2.1,2.2c2.7-1.2,6.4-1.7,7.9-3.8
		c6.4-8.6,12.1-17.8,18.1-26.6c0.9-1.1,2-2,3.2-2.9c0.4,0.4,0.9,0.7,1.3,1.1c-6.3,10-12.6,20-19,30c13.9-1.6,13.8-17.2,25.3-23.8
		c-5.1,8.8-9.2,16.1-13.3,23.2c11.7,0,22.4,0.3,33.1-0.2c2.3-0.1,5.2-2.5,6.6-4.7C447.1,327.2,454.7,315.5,462.4,303.8z
		 M268.3,341.3c-0.7-0.5-1.5-1-2.2-1.5c4.5-6.5,8.4-13.6,13.6-19.4c5.7-6.3,6.5-13.2,6.5-21c0-4.3-1.4-6.2-5.5-6.5
		c-11.4-0.8-22.9-1.7-34.3-2.1c-1.6,0-4,2.1-4.9,3.8c-5.1,9.7-9.6,19.6-14.7,29.4c-3.4,6.6-7.3,13.1-11,19.6c0.4,0.6,0.7,1.3,1,1.9
		c3.6-1.4,8.8-1.7,10.6-4.3c7.4-11.1,13.8-22.9,20.5-34.4c0.9-1.4,2-2.8,3.1-4.1c0.6,0.4,1.2,0.8,1.8,1.1
		c-7.5,13.2-15,26.3-22.5,39.5c0.5,0.7,1,1.4,1.5,2.1c3-1.8,7.3-2.8,8.9-5.5c6.5-10.5,12.2-21.6,18.4-32.4c2.2-3.8,4.8-7.3,7.2-11
		c0.5,0.3,1,0.6,1.5,0.9c-8.2,14.9-16.4,29.8-24.5,44.6c0.7,0.8,1.4,1.6,2.1,2.3c3.1-1.6,7.5-2.5,9.2-5c6-9.2,11.1-18.9,16.7-28.4
		c2.2-3.8,4.8-7.3,7.2-11c0.6,0.3,1.1,0.7,1.7,1c-7.5,13.5-15.1,27-23,41.3c8.6,0,15.9,0.2,23.2-0.1c1.4-0.1,3.8-1.8,3.9-2.9
		c0.4-6.5,0.2-13,0.2-21C278.5,326.9,273.4,334.1,268.3,341.3z M169.3,343.2c-0.5-0.4-1.1-0.7-1.6-1c8.1-17.2,20.7-31.5,31.7-47.7
		c-10-1.4-20.1-2.1-30.2-2.3c-1.2,0.1-2.3,0.5-3.2,1.2c-13.4,10.8-20.3,36.5-14.3,53.6c1.6-0.1,3.2-0.1,4.8,0
		c15.1,2,25-3.8,30.8-18.2c2.6-6.4,7.8-11.8,11.8-17.6c0.4,0.3,0.8,0.6,1.3,0.9c-6.4,10.8-12.9,21.5-19.3,32.3
		c0.6,0.6,1.2,1.2,1.7,1.8c3.6-0.7,8.8-0.2,10.4-2.4c7.7-10.4,14.4-21.6,21.7-32.8c-6.3-2.4-14.7,1.1-17.3-9.6L169.3,343.2z
		 M343.4,325.7c-0.6-0.3-1.2-0.5-1.8-0.8c1.9-12.5,10.1-22.3,15.7-33.1c-8.3-3.5-12.3,0.2-15.4,7c-7.6,16.2,0.1,32.1-0.6,48.4
		c9.7-0.5,18-0.8,26.3-1.6c1.8-0.2,3.8-2.2,4.9-3.9c4.7-7.7,8.5-16.1,13.8-23.4c4.5-6.2,6.3-11.8,1.4-19.2
		c-9.3,14.9-18.5,29.4-27.6,43.9c-0.9-0.6-1.7-1.1-2.6-1.7c10-15.6,20-31.3,30-46.9c-21.3-7.6-27-5.4-36.3,14
		c-1.4,2.8-2.5,5.7-3.8,8.5C346,319.9,344.7,322.8,343.4,325.7L343.4,325.7z M395,304.1c7.3,0,13.2-0.3,19.1,0.1
		c4.5,0.3,6.5-1.2,7.3-5.6c2-10.8,4.3-21.5,6.5-32.3c1.7-8.6,3.3-17.2,5.1-26.1c-10.9-1.2-20.7-2.3-32-3.6
		C399.1,258.6,397.1,280.6,395,304.1L395,304.1z M210.8,236.6c-2,21.1-3.9,42.3-6,64.3c3.4,0,5.5-0.1,7.6,0
		c20.9,0.9,17.3,2.2,21.4-16.5c3.2-14.6,5.9-29.3,8.9-44.3C232,239,222.1,237.9,210.8,236.6L210.8,236.6z M187.9,222.5
		c1.1,6.9,2.1,12.7,3.1,18.6c1.3,7.9,2.5,8.6,11.1,5.4c-2.8-0.9-5-1.7-7.2-2.5c0.1-0.3,0.2-0.7,0.3-1c2.9,0.2,5.8,0.5,8.9,0.7
		c2.1-13.7,4.2-27,6.3-40.7h-16.9c0-0.3,0-0.5-0.1-0.7c5.4-0.7,10.7-1.3,16.1-2c-1.5-6.3-10.3-7.8-25.8-4.5c1,7,1.8,14.1,3.3,21
		c0.3,1.4,3.3,2.8,5.1,3.1c3.8,0.5,7.8,0.1,11.7,0.1c0,0.8,0,1.6-0.1,2.4H187.9z M306,731.6c0.3,0.3,0.6,0.7,0.9,1
		c10.3-7.2,20.7-14.4,31.5-21.9c-5.4-7.7-10.1-14.4-15.7-22.3c-14.5,19.8-28.2,38.6-41.9,57.4c0.6,0.5,1.2,1,1.8,1.6
		c3.5-2,7.1-3.8,10.4-6c3-2.1,6.2-4.3,8.4-7.1c8.7-11.3,17.1-22.9,25.5-34.4c0.7,0.5,1.3,1,2,1.5C321.2,711.4,313.6,721.5,306,731.6
		L306,731.6z M395.9,233.6c0.7-5.3,1.4-10.3,2.2-15.8h-14.1c0-0.3,0-0.6,0-0.9c4.9-0.3,9.8-0.6,15-0.9c0.3-2.9,0.6-5.4,1-8.5h-19
		c0-0.2,0-0.4,0-0.7c6.6-0.6,13.1-1.3,20.2-2c-0.4-2.6-0.7-4.6-1.1-6.7l-25,2.8c2.4,14.9,5,29.1,6.8,43.5c0.7,5.1,3.3,5.3,7.2,5.6
		c4.6,0.3,5.9-2,5.9-5.9c0-2.5,0.3-5,0.4-7.7c-3.4-0.3-5.9-0.6-8.4-0.8c0-0.3,0-0.5,0-0.8C389.8,234.5,392.7,234.1,395.9,233.6
		L395.9,233.6z M468.9,564.7c0.9,0.4,1.9,0.8,2.8,1.3c9.3-10.5,18.5-21.1,27.8-31.5c8.2-9.1,8.7-15,1.3-27.6
		c-11.2,13-22.3,25.4-32.9,38.2c-1.4,1.6-0.5,5.2-0.6,7.9c11.6-12.2,21.3-24.7,33.9-34.2c-9.5,12.6-19.5,24.7-29.1,37.1
		C470.3,558.2,469.9,561.7,468.9,564.7L468.9,564.7z M215.6,207.8c10.2,0.6,19.7,1.4,29.1,1.7c1.6,0,4.2-1.3,4.9-2.7
		c3.9-8.1,0.6-15.2-8-17.8c-3.2-0.9-6.5-1.5-9.8-1.7c-13.6-1.2-13.6-1.1-15.3,12.5C216.2,202.2,216,204.6,215.6,207.8L215.6,207.8z
		 M406,207.8c9.9,0.6,18.6,1.3,27.4,1.6c2.1,0.1,6-1.2,6.2-2.3c0.6-3.9,1.5-10-0.6-11.7c-7.8-6.4-17.1-10.5-27.7-7.8
		c-1.6,0.6-2.9,2-3.4,3.6C407,196.5,406.7,201.9,406,207.8L406,207.8z M230.3,312.1c-7.8-2.9-12.8-1.1-16.5,5.7
		c-3.4,6.3-7.7,12-11.5,18c-1.6,2.6-2.9,5.5-5.4,10.2c6.6-1.1,13.4-0.3,15.3-2.9C219,333.6,224.2,322.9,230.3,312.1z M496.7,496.2
		c-10.3,12.1-19.6,22.8-28.5,33.9c-1.7,2.1-1.7,5.6-2,6.4c10.6-10.4,21.8-21.6,33.1-32.7c0.6,0.4,1.3,0.8,1.9,1.3
		C499.9,502.6,498.7,500.2,496.7,496.2L496.7,496.2z M441.4,614.4c0.3,0.2,0.5,0.4,0.8,0.6c6.3-6.7,12.6-13.4,18.9-20.2
		c9.1-9.9,9-9.9,1.5-22.4C455.4,586.6,448.4,600.5,441.4,614.4L441.4,614.4z M473.1,577.4c0.9,0.2,1.8,0.4,2.6,0.6
		c9.4-15,24.3-26.2,29-44.4c-10.9,11.6-21.2,23.7-31.1,36.2C472.3,571.5,473.2,574.8,473.1,577.4L473.1,577.4z M466.5,526.3
		c9.1-9.6,17.2-18.6,25.7-27.2c4-4,3.8-6.9-0.6-10.8c-6.9,7.9-13.2,16-20.6,23.1C466.6,515.7,465.6,519.9,466.5,526.3L466.5,526.3z
		 M213.7,220.9c10.6,0,20.3,0.1,29.9-0.1c1.2,0,2.3-1.6,3.5-2.5c-1.1-1-2-2.6-3.2-2.8c-9.5-1.2-19.1-2.1-29.1-3.2
		C214.4,215.1,214.1,217.4,213.7,220.9z M245.5,229.1c-0.4-0.6-0.8-1.2-1.1-1.7c-10.2-1.2-20.4-2.4-31.3-3.7
		c-0.4,3.2-0.7,5.8-1.1,9.1c10.1,0,19.3,0.2,28.5-0.2C242.2,232.6,243.8,230.3,245.5,229.1L245.5,229.1z M404.1,220.9
		c10.6,0,20.1,0.1,29.6-0.1c1.3,0,2.5-1.5,3.8-2.2c-1.2-1.1-2.3-3-3.6-3.1c-9.4-1.2-18.8-2.1-28.6-3.1
		C404.9,215.1,404.5,217.6,404.1,220.9L404.1,220.9z M402.3,232.8c9.9,0,18.7,0.2,27.5-0.2c2-0.1,3.9-2,5.9-3.1
		c-0.3-0.7-0.7-1.4-1-2.2c-10.3-1.2-20.6-2.5-31.2-3.8C403.1,226.9,402.7,229.4,402.3,232.8L402.3,232.8z M466.2,507.5
		c0.5,0.3,1,0.6,1.4,0.8c7.1-6.6,14.4-13,21.2-19.8c1.4-1.4,1.1-4.7,1.5-7.1c-1-0.4-1.9-0.8-2.9-1.2
		C480.4,489.3,473.3,498.4,466.2,507.5L466.2,507.5z M485.2,471.7c-11.5,9.7-14.2,14.2-13.6,22.4C489.5,476,490.3,479.1,485.2,471.7
		L485.2,471.7z M150.2,311.4c5.1-6.9,9.6-12.8,14.2-19C156.1,290.6,148.1,301.2,150.2,311.4z M183.6,193c8.6-0.7,16-1.3,24.1-1.9
		C201.3,184.4,189.4,185.2,183.6,193z M398.8,193.8h-24.5C376.1,200.3,377.6,200.3,398.8,193.8z M375.5,191.8
		c7.1-0.5,14.1-0.9,21.7-1.4C391.7,185,382.7,185.2,375.5,191.8z M337.8,301.8c2.8-4.7,4.7-7.9,7.1-11.9h-10.1
		C335.7,293.6,336.5,296.9,337.8,301.8z"/>
	<path id="Trazado_4" class="st1" d="M455,536.3c1.1,0.9,2.9,1.7,3.1,2.8c1.5,8.5,2.8,17,3.7,25.5c0.2,1.9-0.6,4.1-1.5,5.9
		c-6.7,13.2-15.8,25.6-19.9,39.6c-4.4,15.1-17.2,21-25.2,32c-0.6-0.4-1.2-0.7-1.7-1.1c7.3-14.8,14.5-29.5,21.8-44.3
		c-0.4-0.3-0.8-0.5-1.2-0.7c-1.1,2-2.4,3.9-3.4,5.9c-7.2,13.7-14.2,27.6-21.7,41.2c-2.8,5.2-6.4,10-10.6,14.1
		c-13.7,13.3-27.8,26.2-41.9,39.1c-3.3,3.1-7,5.7-10.5,8.5c-0.7-0.2-1.4-0.4-2.1-0.6c0.4-2.2,0.3-4.5,1.1-6.5
		c3.8-8.9,7.9-17.7,11.9-26.6c-0.6-0.3-1.2-0.5-1.7-0.8c-4.5,9.4-8.9,18.9-13.8,29.2c-25.8-33.7-51.4-66.7-89.3-89.2
		c7.4-9.4,14.9-19.1,22.6-28.7c12-14.9,23.9-29.9,36.2-44.4c21.2-25,30.9-54.4,31.9-86.4c0.9-30.7-0.3-61.5-0.6-92.3
		c0-2.1-0.2-4.2-0.3-7.6h133.2c0,10.1-0.6,21,0.1,31.9c1.4,22.6,3.5,45.2,5.2,67.8c0.1,1.8,0.1,3.9-0.8,5.3
		c-14,21.6-20.5,45.5-21.6,71c-0.1,3.2-1.8,6.2-2.8,9.3c-8.5,13.3-16.9,26.5-25.4,39.8c0.9,0.5,1.9,1.1,2.8,1.6
		C440.1,564,447.6,550.1,455,536.3z M471.1,387.1c-0.8-0.5-1.6-1-2.4-1.4c-13.4,22.1-26.9,44.1-40.3,66.2c0.8,0.5,1.5,0.9,2.3,1.4
		C444.2,431.2,457.6,409.2,471.1,387.1L471.1,387.1z M471.4,424.9c-0.6-0.3-1.3-0.6-1.9-0.9c-12.2,21.3-24.4,42.6-36.7,63.9
		c0.9,0.5,1.8,1,2.7,1.5C447.5,467.9,459.5,446.4,471.4,424.9L471.4,424.9z M427,424.2c12-20.3,23.9-40.7,35.9-61
		C448.4,382,434.9,401.4,427,424.2L427,424.2z M398.6,628.7c-0.6-0.3-1.2-0.5-1.7-0.8c-9.4,17.4-18.8,34.9-28.2,52.3
		c0.8,0.4,1.7,0.9,2.5,1.3C380.3,663.9,389.4,646.3,398.6,628.7L398.6,628.7z M460.6,488.9c-0.4-0.2-0.9-0.5-1.3-0.8
		c-7.8,12.8-15.6,25.6-23.4,38.3c0.7,0.4,1.4,0.8,2.1,1.2C445.5,514.8,453.1,501.9,460.6,488.9L460.6,488.9z M427.5,385.6
		c0.6,0.4,1.2,0.7,1.8,1.1c4.3-7.2,8.7-14.4,13-21.6c-0.6-0.4-1.1-0.7-1.7-1C436.2,371.3,431.9,378.5,427.5,385.6L427.5,385.6z"/>
	<path id="Trazado_5" class="st1" d="M284.2,351.1c0,4.9-0.2,10.2,0,15.4c0.7,18.6,1.7,37.2,2.1,55.8c-0.1,3.5-1.2,7-3.2,9.9
		c-11.6,17.4-23.6,34.6-35.4,51.8c0.7,0.5,1.4,0.9,2.1,1.4c11.9-17.9,23.9-35.8,36.7-55.1c1.5,8.2,2.8,14.6,3.7,21
		c0.2,1.8-0.3,3.7-1.5,5.2c-9.2,9.8-11.4,22.7-15.2,34.8c-7.4,23.5-7.9,47.5-2.2,71.5c1.5,6.6-2,9.7-7.3,14.5
		c1.1-5.6,1.8-9.7,2.6-13.8c-0.7-0.3-1.4-0.6-2-0.9c-2.7,21.9-17.8,36.5-30.5,52.7c4.1-12.3,8.2-24.6,12.4-36.9
		c-0.5-0.2-1-0.3-1.5-0.5c-5,13.1-11.6,25.9-14.7,39.5c-5.3,22.8-18.9,38.8-36.1,53.2c-13.3,11.2-25.6,23.5-38.6,35.6
		c-26.9-36.8-54.3-72.2-94.6-96.4c10-12.6,20.3-25.4,30.3-38.4c11-14.1,22.1-28.2,32.7-42.7c18.8-25.6,28.3-54.4,28.1-86.3
		c-0.2-27-0.6-54-0.9-81c0-3.1,0-6.1,0-10.3L284.2,351.1z M279.5,402.8c-15.6,19.4-30.6,39.5-41,62.7
		C252.2,444.5,265.9,423.6,279.5,402.8L279.5,402.8z M221,601.7c-0.6-0.2-1.2-0.4-1.8-0.5c-6.9,19.1-13.8,38.2-20.6,57.3
		c1,0.4,2,0.7,3,1C208.1,640.2,214.6,620.9,221,601.7L221,601.7z M237,431.2c0.6,0.6,1.3,1.1,2,1.7c12.9-18.6,25.9-37.2,38.8-55.9
		c-0.6-0.4-1.2-0.9-1.8-1.3C262.9,394.2,249.9,412.7,237,431.2L237,431.2z M199.6,624.2c-0.6-0.2-1.1-0.3-1.7-0.5
		c-8.4,20.6-16.8,41.2-25.3,61.8c0.7,0.3,1.5,0.6,2.2,0.9C183.1,665.7,191.4,645,199.6,624.2L199.6,624.2z M240.3,397.9
		c0.6,0.5,1.2,1,1.9,1.5c9.4-12.2,18.8-24.4,28.2-36.7c-0.5-0.4-1.1-0.8-1.6-1.2C259.2,373.7,249.8,385.8,240.3,397.9L240.3,397.9z
		 M168.7,656c-0.5-0.2-1-0.5-1.6-0.7c-5,12.5-10,25-15,37.5c0.7,0.3,1.4,0.6,2.2,0.8C159.1,681.1,163.9,668.6,168.7,656L168.7,656z
		 M226.5,383.9c0.7,0.5,1.4,1,2.2,1.5c7-9.5,14-19,21-28.5c-0.5-0.4-1-0.7-1.5-1.1C241,365.2,233.8,374.6,226.5,383.9L226.5,383.9z"
		/>
	<path id="Trazado_6" class="st1" d="M45.3,741.2c-5.8-3.1-6.4-5.9-3.7-11.6c11.9-25.1,23-50.6,34.4-76c-0.7-0.3-1.4-0.6-2-1
		c-12.1,26.4-24.2,52.8-36.3,79.2c-0.7,0.2-1.3,0.4-2,0.6c-2.3-7.2-5.3-14.2-6.6-21.6c-2.9-17.1-1.6-33.7,7.3-49.3
		c5.5-9.7,10.5-19.8,15.7-29.8c1.1-1.8,1.6-3.9,1.5-6c-4.8,8.1-9.6,16.3-14.5,24.4c-0.5-0.3-0.9-0.5-1.4-0.8
		c6.3-11.3,12.6-22.5,19.6-34.8c38.1,26.1,65.6,60,91.1,96.5c-1.8,1.6-3.3,3-5.4,4.8c-0.5-2-0.9-3.3-1.8-7.2
		c-4,13.5-14.1,17.6-25.3,23.6c5.8-12.3,10.8-23,15.8-33.7c-0.7-0.3-1.4-0.6-2-1c-1.6,2.9-3.3,5.8-4.8,8.9
		c-2.8,5.5-6.2,10.9-8.1,16.8c-6,17.8-22.5,18-37,22.4c10.6-24.1,21.3-48.1,31.9-72.2c-0.5-0.3-1-0.5-1.4-0.8
		c-0.9,1.1-1.7,2.2-2.3,3.4c-10.6,22.7-21.1,45.5-31.9,68.1c-1.4,2.5-3.8,4.2-6.6,4.7c-7.1,0.8-14.3,0.5-20.8-5
		c13.6-29,27.1-58,40.7-86.9c-0.7-0.3-1.4-0.7-2.1-1C73.1,684.2,59.2,712.7,45.3,741.2z M62,741c0.8,0.3,1.6,0.6,2.5,0.9
		c11.5-26.5,23.1-53,34.6-79.6c-0.6-0.3-1.2-0.5-1.7-0.8C84.3,687.5,71.9,713.7,62,741L62,741z M69.8,644.7
		c-0.6-0.3-1.2-0.6-1.8-0.9C56.6,667.4,45.3,691,34,714.5c1,0.4,1.9,0.9,2.9,1.4C47.9,692.2,58.8,668.4,69.8,644.7L69.8,644.7z
		 M92.4,738.8c1,0.5,2.1,0.9,3.1,1.4c8.8-19.4,17.6-38.8,26.5-58.2c-0.8-0.4-1.6-0.8-2.5-1.1C110.5,700.2,101.4,719.5,92.4,738.8
		L92.4,738.8z M30.3,698.5c10.3-21.2,20.5-42.4,30.8-63.6C48.4,654.9,36,675.1,30.3,698.5L30.3,698.5z"/>
	<path id="Trazado_7" class="st1" d="M232.8,740.2c-7.8-5.6-8.7-10.1-3.9-17.5c16.4-25.2,32.6-50.5,48.7-75.4
		c-6.1,7.6-12.8,15.5-19,23.8c-6.3,8.4-12.2,17.1-17.9,25.9c-5.8,9-11,18.3-16.9,28c-3.3-7.1-4.4-12.8,0.6-19.8
		c15.5-22,30.3-44.5,44.8-65.9c-19.1,19-34.4,42.3-49.1,67.8c-1.1-8.7-2.2-15.9,2.2-22.6c9.3-14.1,18.7-28.2,28.2-42.3
		c1.7-2.5,3.5-4.8,5.2-7.2c-0.6-0.4-1.2-0.9-1.8-1.3c-10.5,14.1-21,28.3-31.5,42.4c-0.3-0.1-0.7-0.2-1-0.3c2-6.7,3.3-13.7,6.2-20
		c6.3-13.3,13.4-26.2,20.6-40c17.1,9.3,29.8,22.7,43.1,36.2c-1.6,2-3.1,3.8-4.6,5.5c-19.2,20.9-34.7,44.4-48.7,69
		c-2.4,4.3-3.6,9.2-5.4,13.9L232.8,740.2z"/>
	<path id="Trazado_8" class="st1" d="M232.7,740.4c7.3-12,14.2-24.3,22.2-35.8c11.8-17.3,24.3-34,37.4-52.1
		c10.7,12.4,20.2,23.5,29.3,34.2c-13.3,17.3-26.1,33.9-38.8,50.5c-0.4,0.6-0.9,1.1-1.3,1.7c-4.4,3.9-4.1,12-12.2,12.6
		c-11.5,0.9-22.4,0-32.2-6.7c-1.7-1.1-2.8-3-4.2-4.5C232.8,740.2,232.7,740.4,232.7,740.4z M298.9,666.8
		c-14.6,11.7-52.4,67.3-52.2,77.5C264.3,718.1,281.8,692.2,298.9,666.8z M305.6,685.1c-13.3,11.3-41.1,51.7-41.1,59.8
		C278.6,724.4,292.1,704.8,305.6,685.1L305.6,685.1z"/>
	<path id="Trazado_9" class="st2" d="M462.4,303.8c-7.7,11.7-15.3,23.4-23.2,34.9c-1.5,2.1-4.3,4.6-6.6,4.7
		c-10.6,0.5-21.3,0.2-33.1,0.2c4.1-7.2,8.2-14.4,13.3-23.2c-11.4,6.6-11.3,22.2-25.3,23.8c6.3-10,12.6-20,19-30
		c-0.4-0.4-0.9-0.7-1.3-1.1c-1.2,0.8-2.2,1.8-3.2,2.9c-6,8.9-11.7,18-18.1,26.6c-1.5,2.1-5.2,2.6-7.9,3.8c-0.7-0.7-1.4-1.5-2.1-2.2
		c6.4-10.7,12.7-21.6,19.5-32.1c0.9-1.5,4.1-2.2,6.2-2.2c5,0.2,9.9,1.3,14.9,1.7c9.8,0.7,14.3-1.6,16.5-11c2-8.7,6.4-10.8,14.5-9.5
		c6.1,1,12.4,0.4,18.6,1.1c3.3,0.4,9.1,1.5,9.4,2.9c0.7,4.6,0.6,10.3-1.6,14.3c-3.6,6.7-9.1,12.2-13.6,18.4c-2.1,3-3.8,6.3-5.6,9.5
		c0.7,0.5,1.4,1,2,1.4c5.9-8.3,11.8-16.6,17.9-25.2c5.2,11-3.1,17.5-6.4,25.8c1.1-1.2,2.3-2.4,3.4-3.6c1.1-1.2,2.1-2.5,4-4.7v11.4
		h-32.7c8-12.7,15.8-25,23.6-37.3C463.7,304.6,463,304.2,462.4,303.8z M439.6,302.6c-10.1,6.8-27.7,33.5-27.3,40.4
		C421.6,329.1,430.6,315.8,439.6,302.6L439.6,302.6z M451.6,299.6c-0.8-0.5-1.6-0.9-2.3-1.4c-8.9,14.2-17.9,28.4-26.8,42.6
		c0.8,0.5,1.6,1,2.3,1.5C433.7,328,442.7,313.8,451.6,299.6L451.6,299.6z"/>
	<path id="Trazado_10" class="st2" d="M268.3,341.3c5.1-7.2,10.3-14.4,16.3-22.9c0,8.1,0.2,14.6-0.2,21c-0.1,1.1-2.5,2.8-3.9,2.9
		c-7.3,0.3-14.6,0.1-23.2,0.1c7.9-14.2,15.5-27.8,23-41.3c-0.6-0.3-1.1-0.7-1.7-1c-2.4,3.6-4.9,7.2-7.2,11
		c-5.6,9.5-10.6,19.2-16.7,28.4c-1.7,2.6-6,3.4-9.2,5c-0.7-0.8-1.4-1.5-2.1-2.3c8.2-14.9,16.4-29.8,24.5-44.6
		c-0.5-0.3-1-0.6-1.5-0.9c-2.4,3.7-5,7.2-7.2,11c-6.1,10.8-11.8,21.8-18.4,32.4c-1.7,2.7-5.9,3.7-8.9,5.5c-0.5-0.7-1-1.4-1.5-2.1
		c7.5-13.2,15-26.3,22.5-39.5c-0.6-0.4-1.2-0.7-1.8-1.1c-1.1,1.3-2.1,2.7-3.1,4.1c-6.8,11.5-13.1,23.3-20.5,34.4
		c-1.7,2.6-7,2.9-10.6,4.3c-0.3-0.6-0.7-1.3-1-1.9c3.7-6.5,7.5-13,11-19.6c5-9.7,9.6-19.7,14.7-29.4c0.9-1.7,3.2-3.8,4.9-3.8
		c11.4,0.4,22.9,1.3,34.3,2.1c4.1,0.3,5.5,2.2,5.5,6.5c-0.1,7.8-0.8,14.7-6.5,21c-5.3,5.8-9.1,12.9-13.6,19.4
		C266.8,340.4,267.5,340.9,268.3,341.3z"/>
	<path id="Trazado_11" class="st2" d="M169.3,343.2l28.4-41.8c2.5,10.7,11,7.2,17.3,9.6c-7.3,11.2-14,22.4-21.7,32.8
		c-1.6,2.2-6.9,1.7-10.4,2.4c-0.6-0.6-1.2-1.2-1.7-1.8c6.4-10.8,12.9-21.5,19.3-32.3c-0.4-0.3-0.8-0.6-1.3-0.9
		c-4,5.8-9.2,11.2-11.8,17.6c-5.8,14.4-15.7,20.3-30.8,18.2c-1.6-0.1-3.2-0.1-4.8,0c-6-17.1,0.9-42.8,14.3-53.6
		c0.9-0.7,2-1.2,3.2-1.2c10.1,0.2,20.2,0.9,30.2,2.3c-10.9,16.2-23.5,30.5-31.7,47.7C168.3,342.5,168.8,342.8,169.3,343.2z
		 M158.9,337.4c0.8,0.6,1.7,1.1,2.5,1.7c8.1-12.7,16.1-25.5,24.2-38.2c-0.5-0.3-1-0.6-1.5-1C175.7,312.4,167.3,324.9,158.9,337.4
		L158.9,337.4z M151.8,327.7c0.7,0.5,1.5,1,2.2,1.5c7.5-11.1,15.1-22.2,22.6-33.3c-0.5-0.3-1-0.7-1.5-1.1
		C167.3,305.8,159.6,316.7,151.8,327.7L151.8,327.7z"/>
	<path id="Trazado_12" class="st2" d="M343.4,325.7c1.3-2.9,2.6-5.8,3.9-8.7c1.3-2.8,2.4-5.7,3.8-8.5c9.3-19.4,15-21.6,36.3-14
		c-10,15.6-20,31.3-30,46.9c0.9,0.6,1.7,1.1,2.6,1.7c9.1-14.5,18.3-29.1,27.6-43.9c4.9,7.4,3.1,13-1.4,19.2
		c-5.3,7.3-9.1,15.7-13.8,23.4c-1,1.7-3.1,3.7-4.9,3.9c-8.3,0.8-16.6,1.1-26.3,1.6c0.8-16.4-6.9-32.2,0.6-48.4
		c3.2-6.8,7.1-10.4,15.4-7c-5.6,10.8-13.8,20.7-15.7,33.1C342.2,325.2,342.8,325.5,343.4,325.7z M348.5,335.5c0.6,0.4,1.2,0.7,1.8,1
		c8-14,16-28,24-42C363.2,306.7,355,320.6,348.5,335.5L348.5,335.5z"/>
	<path id="Trazado_13" class="st1" d="M395,304.1c2.1-23.5,4-45.4,6-67.4c11.2,1.3,21.1,2.4,32,3.6c-1.7,8.9-3.4,17.5-5.1,26.1
		c-2.2,10.8-4.5,21.5-6.5,32.3c-0.8,4.4-2.8,5.9-7.3,5.6C408.3,303.8,402.3,304.1,395,304.1z"/>
	<path id="Trazado_14" class="st1" d="M210.8,236.6c11.3,1.2,21.2,2.3,31.9,3.5c-3,14.9-5.7,29.7-8.9,44.3
		c-4.1,18.8-0.5,17.5-21.4,16.5c-2.1-0.1-4.2,0-7.6,0C206.9,278.9,208.8,257.7,210.8,236.6z"/>
	<path id="Trazado_15" class="st1" d="M187.9,222.4h16c0-0.8,0.1-1.6,0.1-2.4c-3.9,0-7.9,0.3-11.7-0.1c-1.9-0.2-4.8-1.7-5.1-3.1
		c-1.5-6.9-2.3-14-3.3-21c15.4-3.4,24.3-1.8,25.8,4.5c-5.4,0.7-10.7,1.3-16.1,2c0,0.2,0,0.5,0.1,0.7h16.9
		c-2.1,13.7-4.2,26.9-6.3,40.7c-3.1-0.3-6-0.5-8.9-0.7c-0.1,0.3-0.2,0.7-0.3,1c2.2,0.8,4.4,1.5,7.2,2.5c-8.6,3.1-9.9,2.4-11.1-5.4
		C190,235.2,189,229.3,187.9,222.4z"/>
	<path id="Trazado_16" class="st1" d="M306,731.5c7.6-10.1,15.2-20.2,22.8-30.2c-0.7-0.5-1.3-1-2-1.5c-8.5,11.5-16.8,23.1-25.5,34.4
		c-2.2,2.9-5.4,5-8.4,7.1c-3.3,2.3-6.9,4.1-10.4,6c-0.6-0.5-1.2-1-1.8-1.6c13.7-18.8,27.5-37.6,41.9-57.4
		c5.5,7.9,10.3,14.6,15.7,22.3c-10.8,7.5-21.1,14.7-31.5,21.9C306.6,732.2,306.3,731.9,306,731.5z"/>
	<path id="Trazado_17" class="st1" d="M304.4,495.1c3.6,5.4,7.8,10.6,10.6,16.4c0.8,1.6-2.2,5.4-3.9,7.9c-5.4,7.5-11,14.7-16.6,22.1
		c-4.7,6.2-9.6,12.3-14.4,18.4c-0.7-0.3-1.5-0.6-2.2-1c0.5-2.4,0.5-5.2,1.8-7.1c8-12.5,16.3-24.7,24.4-37c1.3-1.8,1.9-4,1.7-6.1
		c-9.2,13.4-18.4,26.8-28.2,41.1c-1.6-5.5-2.1-8.8,1.1-13.4c8.2-11.9,15-24.8,22.4-37.2C302,497.8,303.2,496.5,304.4,495.1z"/>
	<path id="Trazado_18" class="st1" d="M395.9,233.6c-3.2,0.4-6.1,0.8-9,1.2c0,0.3,0,0.5,0,0.8c2.5,0.3,5,0.5,8.4,0.8
		c-0.1,2.6-0.4,5.1-0.4,7.7c-0.1,3.9-1.4,6.3-5.9,5.9c-3.8-0.3-6.5-0.4-7.2-5.6c-1.8-14.3-4.4-28.6-6.8-43.5l25-2.8
		c0.3,2.1,0.7,4.1,1.1,6.7c-7.1,0.7-13.6,1.4-20.2,2c0,0.2,0,0.5,0,0.7h19c-0.4,3.1-0.6,5.6-1,8.5c-5.2,0.3-10.1,0.6-15,0.9
		c0,0.3,0,0.6,0,0.9H398C397.3,223.4,396.6,228.4,395.9,233.6z"/>
	<path id="Trazado_19" class="st1" d="M468.9,564.7c1-3,1.4-6.5,3.3-8.9c9.6-12.4,19.6-24.5,29.1-37.1c-12.6,9.6-22.3,22-33.9,34.2
		c0.1-2.7-0.8-6.2,0.6-7.9c10.6-12.8,21.6-25.2,32.9-38.2c7.4,12.6,6.9,18.4-1.3,27.6c-9.3,10.5-18.6,21-27.8,31.5
		C470.7,565.5,469.8,565.1,468.9,564.7z"/>
	<path id="Trazado_20" class="st1" d="M215.6,207.8c0.4-3.2,0.6-5.6,0.9-7.9c1.6-13.6,1.7-13.7,15.3-12.5c3.3,0.2,6.6,0.8,9.8,1.7
		c8.7,2.6,11.9,9.6,8,17.8c-0.7,1.4-3.3,2.8-4.9,2.7C235.3,209.2,225.8,208.5,215.6,207.8z"/>
	<path id="Trazado_21" class="st1" d="M406,207.8c0.6-5.9,1-11.4,1.9-16.7c0.5-1.7,1.8-3,3.4-3.6c10.6-2.7,19.9,1.4,27.7,7.8
		c2.1,1.7,1.1,7.8,0.6,11.7c-0.2,1.1-4.1,2.4-6.2,2.3C424.7,209.2,415.9,208.5,406,207.8z"/>
	<path id="Trazado_22" class="st1" d="M304.4,495.1c-1.2,1.3-2.3,2.7-3.5,4c-8.2,11.8-16.4,23.7-25.1,36.3
		c-0.9-13.3-0.4-25.5,5.7-37c3.3-6.3,6.2-12.8,9.2-19.2c0.9-1.7,1.7-3.4,2.5-5.1c4.6-0.1,7.6,4.9,5.9,9.8c-0.6,1.7-1.2,3.4-1.8,5.2
		c-6.9,11.4-13.9,22.8-20.8,34.2c1,0.6,2,1.1,3,1.7c5.9-12,11.8-24,17.6-36c1.2-1,2.4-1.9,4.4-3.6
		C302.6,488.9,303.5,492,304.4,495.1z"/>
	<path id="Trazado_23" class="st2" d="M230.3,312.1c-6.1,10.8-11.3,21.5-18.2,31c-1.9,2.6-8.6,1.8-15.3,2.9
		c2.5-4.7,3.8-7.5,5.4-10.2c3.8-6.1,8.1-11.8,11.5-18C217.5,311,222.6,309.2,230.3,312.1z"/>
	<path id="Trazado_24" class="st1" d="M496.7,496.2c2,4,3.3,6.4,4.5,8.9c-0.6-0.4-1.3-0.8-1.9-1.3c-11.3,11.1-22.5,22.3-33.1,32.7
		c0.3-0.9,0.3-4.3,2-6.4C477.1,519,486.4,508.3,496.7,496.2z"/>
	<path id="Trazado_25" class="st1" d="M441.4,614.4c7-13.9,14-27.8,21.1-42c7.6,12.5,7.6,12.6-1.5,22.4
		c-6.2,6.8-12.6,13.4-18.9,20.2C441.9,614.8,441.7,614.6,441.4,614.4z"/>
	<path id="Trazado_26" class="st1" d="M473.1,577.4c0.1-2.6-0.8-5.9,0.5-7.6c9.8-12.5,20.1-24.6,31.1-36.2
		c-4.6,18.2-19.6,29.4-29,44.4C474.8,577.8,474,577.6,473.1,577.4z"/>
	<path id="Trazado_27" class="st1" d="M466.5,526.3c-0.9-6.5,0.1-10.7,4.5-14.9c7.3-7,13.6-15.2,20.6-23.1c4.5,3.9,4.7,6.8,0.6,10.8
		C483.6,507.7,475.5,516.7,466.5,526.3z"/>
	<path id="Trazado_28" class="st1" d="M213.7,220.9c0.4-3.5,0.8-5.8,1.1-8.6c10,1.1,19.6,2,29.1,3.2c1.2,0.1,2.2,1.8,3.2,2.8
		c-1.2,0.9-2.3,2.5-3.5,2.5C233.9,221,224.2,220.9,213.7,220.9z"/>
	<path id="Trazado_29" class="st1" d="M245.5,229.1c-1.7,1.2-3.3,3.5-5.1,3.5c-9.2,0.4-18.4,0.2-28.5,0.2c0.4-3.3,0.7-6,1.1-9.1
		c10.8,1.3,21,2.5,31.3,3.7C244.8,227.9,245.1,228.5,245.5,229.1z"/>
	<path id="Trazado_30" class="st1" d="M404.1,220.9c0.4-3.3,0.8-5.9,1.1-8.6c9.8,1,19.3,1.9,28.6,3.1c1.3,0.2,2.4,2.1,3.6,3.1
		c-1.3,0.8-2.5,2.2-3.8,2.2C424.2,221,414.7,220.9,404.1,220.9z"/>
	<path id="Trazado_31" class="st1" d="M402.3,232.8c0.5-3.3,0.8-5.9,1.3-9.1c10.6,1.3,20.9,2.5,31.2,3.8c0.3,0.7,0.7,1.4,1,2.2
		c-2,1.1-3.9,3-5.9,3.1C421,233,412.2,232.8,402.3,232.8z"/>
	<path id="Trazado_32" class="st1" d="M466.2,507.5c7.1-9.1,14.1-18.2,21.2-27.3c1,0.4,2,0.8,2.9,1.2c-0.4,2.4-0.1,5.6-1.5,7.1
		c-6.8,6.9-14.1,13.3-21.2,19.8C467.2,508,466.7,507.7,466.2,507.5z"/>
	<path id="Trazado_33" class="st1" d="M293.3,474.1c-0.8,1.7-1.7,3.4-2.5,5.1c-1.8,2.5-3.6,5-5.2,7.6c-1.6,2.5-3,5.1-4.4,7.7
		c-0.6-0.3-1.2-0.5-1.8-0.8c3.9-10.4,7.8-20.9,12.3-33C294.7,466.5,298.3,469.9,293.3,474.1z"/>
	<path id="Trazado_34" class="st1" d="M485.2,471.7c5.1,7.4,4.3,4.3-13.6,22.4C471,485.9,473.7,481.4,485.2,471.7z"/>
	<path id="Trazado_35" class="st2" d="M150.2,311.4c-2.1-10.3,5.9-20.8,14.2-19C159.8,298.6,155.3,304.5,150.2,311.4z"/>
	<path id="Trazado_36" class="st1" d="M183.6,193c5.8-7.8,17.7-8.6,24.1-1.9C199.6,191.8,192.2,192.3,183.6,193z"/>
	<path id="Trazado_37" class="st1" d="M398.8,193.8c-21.2,6.5-22.6,6.5-24.5,0H398.8z"/>
	<path id="Trazado_38" class="st1" d="M375.5,191.8c7.2-6.5,16.2-6.8,21.7-1.4C389.6,190.8,382.5,191.3,375.5,191.8z"/>
	<path id="Trazado_39" class="st2" d="M337.8,301.8c-1.2-4.9-2-8.2-2.9-11.9h10.1C342.4,293.9,340.6,297.1,337.8,301.8z"/>
	<path id="Trazado_40" class="st2" d="M471.1,387.1c-13.5,22-26.9,44.1-40.4,66.1c-0.8-0.5-1.5-0.9-2.3-1.4
		c13.4-22.1,26.9-44.1,40.3-66.2C469.5,386.2,470.3,386.7,471.1,387.1z"/>
	<path id="Trazado_41" class="st2" d="M471.4,424.9c-12,21.5-23.9,43-35.8,64.5c-0.9-0.5-1.8-1-2.7-1.5
		c12.2-21.3,24.4-42.6,36.7-63.9C470.1,424.3,470.8,424.6,471.4,424.9z"/>
	<path id="Trazado_42" class="st2" d="M427,424.2c7.9-22.8,21.4-42.2,35.9-61C450.9,383.5,438.9,403.8,427,424.2z"/>
	<path id="Trazado_43" class="st0" d="M398.6,628.7c-9.1,17.6-18.3,35.2-27.4,52.8c-0.8-0.4-1.7-0.9-2.5-1.3
		c9.4-17.4,18.8-34.9,28.2-52.3C397.4,628.2,398,628.4,398.6,628.7z"/>
	<path id="Trazado_44" class="st2" d="M455,536.3c-7.5,13.8-15,27.7-22.5,41.5c-0.9-0.5-1.9-1.1-2.8-1.6
		c8.5-13.3,16.9-26.5,25.4-39.8L455,536.3z"/>
	<path id="Trazado_45" class="st2" d="M460.6,488.9c-7.5,12.9-15.1,25.9-22.6,38.8c-0.7-0.4-1.4-0.8-2.1-1.2
		c7.8-12.8,15.6-25.5,23.4-38.3C459.8,488.4,460.2,488.7,460.6,488.9z"/>
	<path id="Trazado_46" class="st2" d="M427.5,385.6c4.4-7.2,8.7-14.4,13.1-21.6c0.6,0.3,1.1,0.7,1.7,1c-4.3,7.2-8.7,14.4-13,21.6
		C428.7,386.4,428.1,386,427.5,385.6z"/>
	<path id="Trazado_47" class="st0" d="M279.5,402.8c-13.7,20.9-27.3,41.8-41,62.7C248.9,442.3,264,422.2,279.5,402.8z"/>
	<path id="Trazado_48" class="st0" d="M221,601.7c-6.5,19.3-12.9,38.5-19.4,57.8c-1-0.3-2-0.7-3-1c6.9-19.1,13.8-38.2,20.6-57.3
		C219.8,601.3,220.4,601.5,221,601.7z"/>
	<path id="Trazado_49" class="st0" d="M237,431.2c13-18.5,26-37,38.9-55.5c0.6,0.4,1.2,0.9,1.8,1.3c-13,18.6-25.9,37.2-38.8,55.9
		C238.3,432.3,237.6,431.8,237,431.2z"/>
	<path id="Trazado_50" class="st0" d="M199.6,624.2c-8.2,20.7-16.5,41.4-24.7,62.1c-0.7-0.3-1.5-0.6-2.2-0.9
		c8.4-20.6,16.8-41.2,25.3-61.8C198.5,623.9,199,624.1,199.6,624.2z"/>
	<path id="Trazado_51" class="st0" d="M240.3,397.9c9.5-12.1,19-24.2,28.5-36.4c0.5,0.4,1.1,0.8,1.6,1.2
		c-9.4,12.2-18.8,24.5-28.2,36.7C241.5,399,240.9,398.5,240.3,397.9z"/>
	<path id="Trazado_52" class="st0" d="M168.7,656c-4.8,12.5-9.6,25.1-14.4,37.6c-0.7-0.3-1.4-0.5-2.2-0.8c5-12.5,10-25,15-37.5
		C167.6,655.6,168.1,655.8,168.7,656z"/>
	<path id="Trazado_53" class="st0" d="M226.5,383.9c7.2-9.4,14.5-18.8,21.7-28.1c0.5,0.4,1,0.7,1.5,1.1c-7,9.5-14,19-21,28.5
		C228,384.9,227.3,384.4,226.5,383.9z"/>
	<path id="Trazado_54" class="st0" d="M62,741c9.9-27.3,22.3-53.5,35.3-79.5c0.6,0.3,1.1,0.5,1.7,0.8c-11.5,26.5-23.1,53-34.6,79.6
		C63.7,741.6,62.8,741.3,62,741z"/>
	<path id="Trazado_55" class="st0" d="M69.8,644.7c-11,23.7-21.9,47.5-32.9,71.2c-1-0.5-2-0.9-2.9-1.4
		c11.3-23.6,22.6-47.1,33.9-70.7C68.5,644.1,69.1,644.4,69.8,644.7z"/>
	<path id="Trazado_56" class="st0" d="M92.4,738.8c9-19.3,18.1-38.6,27.1-57.9c0.8,0.4,1.6,0.7,2.5,1.1
		c-8.8,19.4-17.6,38.8-26.5,58.2C94.5,739.7,93.4,739.3,92.4,738.8z"/>
	<path id="Trazado_57" class="st0" d="M30.3,698.5c5.7-23.4,18.1-43.6,30.8-63.6C50.8,656.1,40.6,677.3,30.3,698.5z"/>
	<path id="Trazado_58" class="st0" d="M298.9,666.8c-17.1,25.4-34.6,51.3-52.2,77.5C246.4,734.1,284.3,678.5,298.9,666.8z"/>
	<path id="Trazado_59" class="st0" d="M305.7,685.1c-13.5,19.7-27,39.3-41.1,59.8C264.6,736.8,292.3,696.4,305.7,685.1z"/>
	<path id="Trazado_60" class="st1" d="M439.6,302.6c-9,13.2-17.9,26.5-27.3,40.4C411.9,336,429.4,309.4,439.6,302.6z"/>
	<path id="Trazado_61" class="st1" d="M451.6,299.6c-8.9,14.2-17.9,28.4-26.8,42.7c-0.8-0.5-1.5-1-2.3-1.5
		c8.9-14.2,17.9-28.4,26.8-42.6C450,298.6,450.8,299.1,451.6,299.6z"/>
	<path id="Trazado_62" class="st1" d="M158.9,337.4c8.4-12.5,16.8-25,25.2-37.5c0.5,0.3,1,0.6,1.5,1c-8.1,12.7-16.1,25.5-24.2,38.2
		C160.6,338.5,159.7,337.9,158.9,337.4z"/>
	<path id="Trazado_63" class="st0" d="M151.8,327.7c7.8-11,15.5-21.9,23.3-32.8c0.5,0.4,1,0.7,1.5,1.1
		c-7.5,11.1-15.1,22.2-22.6,33.3C153.3,328.7,152.5,328.2,151.8,327.7z"/>
	<path id="Trazado_64" class="st1" d="M348.5,335.5c6.5-14.9,14.7-28.8,25.8-41c-8,14-16,28-24,42
		C349.7,336.2,349.1,335.9,348.5,335.5z"/>
	<path id="Trazado_65" class="st0" d="M297.2,488.9c-5.9,12-11.7,24-17.6,36c-1-0.6-2-1.1-3-1.7c7-11.4,13.9-22.8,20.8-34.2
		L297.2,488.9z"/>
</g>
<g class="st3">
	<path class="st4" d="M55.5,161.7c-14.7,0-26.5-4.9-35.4-14.6c-8.9-9.7-13.3-22.3-13.3-37.9c0-16.7,4.5-30,13.5-40
		c9-9.9,21.3-14.9,36.9-14.9c14.3,0,25.9,4.8,34.6,14.5S105,91.2,105,106.8c0,16.9-4.5,30.3-13.5,40.2S70.5,161.7,55.5,161.7z
		 M56.3,65.4c-10.9,0-19.8,3.9-26.6,11.8c-6.8,7.9-10.2,18.2-10.2,31c0,12.8,3.3,23.1,10,30.9c6.6,7.8,15.3,11.7,26,11.7
		c11.4,0,20.4-3.7,26.9-11.2c6.6-7.4,9.8-17.8,9.8-31.2c0-13.7-3.2-24.3-9.6-31.8C76.3,69.2,67.5,65.4,56.3,65.4z"/>
	<path class="st4" d="M179.5,160h-11.9v-11.7h-0.3c-4.9,9-12.6,13.5-22.9,13.5c-17.7,0-26.5-10.5-26.5-31.6V85.9h11.8v42.4
		c0,15.6,6,23.5,18,23.5c5.8,0,10.6-2.1,14.3-6.4c3.7-4.3,5.6-9.9,5.6-16.8V85.9h11.9V160z"/>
	<path class="st4" d="M237.8,97.9c-2.1-1.6-5.1-2.4-9-2.4c-5.1,0-9.3,2.4-12.7,7.2c-3.4,4.8-5.1,11.3-5.1,19.5V160h-11.9V85.9H211
		v15.3h0.3c1.7-5.2,4.3-9.3,7.7-12.2c3.5-2.9,7.4-4.4,11.7-4.4c3.1,0,5.5,0.3,7.1,1V97.9z"/>
	<path class="st4" d="M296.9,156.6c-5.7,3.4-12.5,5.1-20.3,5.1c-10.6,0-19.1-3.4-25.6-10.3c-6.5-6.9-9.7-15.8-9.7-26.8
		c0-12.2,3.5-22,10.5-29.4c7-7.4,16.3-11.1,28-11.1c6.5,0,12.3,1.2,17.2,3.6v12.2c-5.5-3.9-11.4-5.8-17.7-5.8
		c-7.6,0-13.8,2.7-18.6,8.1s-7.3,12.6-7.3,21.4c0,8.7,2.3,15.5,6.8,20.6s10.7,7.5,18.4,7.5c6.5,0,12.6-2.1,18.2-6.4V156.6z"/>
	<path class="st4" d="M322.5,160h-11.9V50.2h11.9V160z"/>
	<path class="st4" d="M373.2,161.7c-11,0-19.7-3.5-26.2-10.4c-6.5-6.9-9.8-16.1-9.8-27.6c0-12.5,3.4-22.2,10.2-29.2
		c6.8-7,16-10.5,27.6-10.5c11.1,0,19.7,3.4,25.9,10.2c6.2,6.8,9.3,16.2,9.3,28.3c0,11.8-3.3,21.3-10,28.4
		C393.4,158.2,384.4,161.7,373.2,161.7z M374.1,94.1c-7.6,0-13.7,2.6-18.1,7.8c-4.4,5.2-6.7,12.3-6.7,21.5c0,8.8,2.2,15.7,6.7,20.8
		c4.5,5.1,10.5,7.6,18,7.6c7.7,0,13.6-2.5,17.7-7.5s6.2-12,6.2-21.2c0-9.3-2.1-16.4-6.2-21.4C387.6,96.6,381.7,94.1,374.1,94.1z"/>
	<path class="st4" d="M459.2,159.3c-2.8,1.5-6.5,2.3-11.1,2.3c-13,0-19.5-7.2-19.5-21.7V96h-12.7V85.9h12.7V67.8l11.9-3.8v21.9h18.7
		V96h-18.7v41.8c0,5,0.8,8.5,2.5,10.6c1.7,2.1,4.5,3.2,8.4,3.2c3,0,5.6-0.8,7.7-2.5V159.3z"/>
	<path class="st4" d="M532.3,160h-11.9v-42.7c0-15.4-5.7-23.2-17.2-23.2c-5.8,0-10.7,2.2-14.6,6.7c-4,4.5-5.9,10.2-5.9,17.2v42
		h-11.9V50.2h11.9v47.9h0.3c5.7-9.4,13.8-14,24.3-14c16.7,0,25.1,10.1,25.1,30.2V160z"/>
	<path class="st4" d="M609.9,125.9h-52.3c0.2,8.3,2.4,14.6,6.7,19.1c4.2,4.5,10.1,6.7,17.5,6.7c8.4,0,16-2.8,23-8.3v11.2
		c-6.5,4.7-15.1,7.1-25.8,7.1c-10.5,0-18.7-3.4-24.7-10.1c-6-6.7-9-16.2-9-28.4c0-11.5,3.3-20.9,9.8-28.2
		c6.5-7.3,14.7-10.9,24.4-10.9c9.7,0,17.2,3.1,22.5,9.4c5.3,6.3,8,15,8,26.1V125.9z M597.8,115.8c0-6.9-1.7-12.2-5-16
		c-3.3-3.8-7.8-5.7-13.6-5.7c-5.6,0-10.4,2-14.3,6c-3.9,4-6.3,9.2-7.2,15.7H597.8z"/>
</g>
</svg>
