<svg id="Layer_2" data-name="Layer 2" xmlns="http://www.w3.org/2000/svg" viewBox="0 0 392.66 185.19"><defs><style>.cls-1{fill:#fff;}.cls-2{fill:#9b9b9b;}.cls-3{fill:#298664;}.cls-4{fill:#20a39e;}</style></defs><title>keyboard_explanation</title><path class="cls-1" d="M388.62,127.76H8.38a6.22,6.22,0,0,1-6.21-6.21V9.3A6.22,6.22,0,0,1,8.38,3.08H388.62a6.22,6.22,0,0,1,6.21,6.22V121.55A6.22,6.22,0,0,1,388.62,127.76ZM8.38,4.08A5.22,5.22,0,0,0,3.17,9.3V121.55a5.22,5.22,0,0,0,5.21,5.21H388.62a5.22,5.22,0,0,0,5.21-5.21V9.3a5.22,5.22,0,0,0-5.21-5.22Z" transform="translate(-2.17 -3.08)"/><path class="cls-1" d="M36.84,32.94h-18a3.38,3.38,0,0,1-3.38-3.39V15a3.38,3.38,0,0,1,3.38-3.39h18A3.38,3.38,0,0,1,40.22,15V29.55A3.38,3.38,0,0,1,36.84,32.94Zm-18-20.36A2.38,2.38,0,0,0,16.42,15V29.55a2.38,2.38,0,0,0,2.38,2.39h18a2.39,2.39,0,0,0,2.38-2.39V15a2.39,2.39,0,0,0-2.38-2.39Z" transform="translate(-2.17 -3.08)"/><path class="cls-1" d="M44.75,54.7H19.23a3.38,3.38,0,0,1-3.38-3.38V36.73a3.38,3.38,0,0,1,3.38-3.38H44.75a3.38,3.38,0,0,1,3.38,3.38V51.32A3.38,3.38,0,0,1,44.75,54.7ZM19.23,34.35a2.39,2.39,0,0,0-2.38,2.38V51.32a2.39,2.39,0,0,0,2.38,2.38H44.75a2.39,2.39,0,0,0,2.38-2.38V36.73a2.39,2.39,0,0,0-2.38-2.38Z" transform="translate(-2.17 -3.08)"/><rect class="cls-2" x="14.18" y="95.19" width="29.23" height="20.35" rx="2.88"/><path class="cls-1" d="M42.7,119.13H19.23a3.38,3.38,0,0,1-3.38-3.39V101.16a3.38,3.38,0,0,1,3.38-3.38H42.7a3.38,3.38,0,0,1,3.38,3.38v14.58A3.39,3.39,0,0,1,42.7,119.13ZM19.23,98.78a2.38,2.38,0,0,0-2.38,2.38v14.58a2.39,2.39,0,0,0,2.38,2.39H42.7a2.39,2.39,0,0,0,2.38-2.39V101.16a2.38,2.38,0,0,0-2.38-2.38Z" transform="translate(-2.17 -3.08)"/><rect class="cls-3" x="350.29" y="95.19" width="29.23" height="20.35" rx="2.88"/><path class="cls-1" d="M378.81,119.13H355.34a3.39,3.39,0,0,1-3.38-3.39V101.16a3.38,3.38,0,0,1,3.38-3.38h23.47a3.38,3.38,0,0,1,3.38,3.38v14.58A3.39,3.39,0,0,1,378.81,119.13ZM355.34,98.78a2.38,2.38,0,0,0-2.38,2.38v14.58a2.39,2.39,0,0,0,2.38,2.39h23.47a2.39,2.39,0,0,0,2.38-2.39V101.16a2.38,2.38,0,0,0-2.38-2.38Z" transform="translate(-2.17 -3.08)"/><path class="cls-1" d="M289.83,119.13H266.36a3.38,3.38,0,0,1-3.38-3.39V101.16a3.38,3.38,0,0,1,3.38-3.38h23.47a3.38,3.38,0,0,1,3.38,3.38v14.58A3.39,3.39,0,0,1,289.83,119.13ZM266.36,98.78a2.38,2.38,0,0,0-2.38,2.38v14.58a2.39,2.39,0,0,0,2.38,2.39h23.47a2.39,2.39,0,0,0,2.38-2.39V101.16a2.38,2.38,0,0,0-2.38-2.38Z" transform="translate(-2.17 -3.08)"/><rect class="cls-4" x="84.47" y="95.19" width="29.23" height="20.35" rx="2.88"/><path class="cls-1" d="M113,119.13H89.52a3.38,3.38,0,0,1-3.38-3.39V101.16a3.38,3.38,0,0,1,3.38-3.38H113a3.38,3.38,0,0,1,3.38,3.38v14.58A3.39,3.39,0,0,1,113,119.13ZM89.52,98.78a2.38,2.38,0,0,0-2.38,2.38v14.58a2.39,2.39,0,0,0,2.38,2.39H113a2.39,2.39,0,0,0,2.38-2.39V101.16A2.38,2.38,0,0,0,113,98.78Z" transform="translate(-2.17 -3.08)"/><path class="cls-1" d="M52.78,76.45H19.23a3.38,3.38,0,0,1-3.38-3.39V58.48a3.38,3.38,0,0,1,3.38-3.39H52.78a3.39,3.39,0,0,1,3.38,3.39V73.06A3.39,3.39,0,0,1,52.78,76.45ZM19.23,56.09a2.39,2.39,0,0,0-2.38,2.39V73.06a2.39,2.39,0,0,0,2.38,2.39H52.78a2.39,2.39,0,0,0,2.38-2.39V58.48a2.39,2.39,0,0,0-2.38-2.39Z" transform="translate(-2.17 -3.08)"/><path class="cls-1" d="M61.39,98.14H19.23a3.38,3.38,0,0,1-3.38-3.39V80.17a3.38,3.38,0,0,1,3.38-3.39H61.39a3.38,3.38,0,0,1,3.38,3.39V94.75A3.38,3.38,0,0,1,61.39,98.14ZM19.23,77.78a2.39,2.39,0,0,0-2.38,2.39V94.75a2.39,2.39,0,0,0,2.38,2.39H61.39a2.39,2.39,0,0,0,2.38-2.39V80.17a2.39,2.39,0,0,0-2.38-2.39Z" transform="translate(-2.17 -3.08)"/><path class="cls-1" d="M354.06,98.14H311.89a3.39,3.39,0,0,1-3.38-3.39V80.17a3.39,3.39,0,0,1,3.38-3.39h42.17a3.39,3.39,0,0,1,3.38,3.39V94.75A3.39,3.39,0,0,1,354.06,98.14ZM311.89,77.78a2.39,2.39,0,0,0-2.38,2.39V94.75a2.39,2.39,0,0,0,2.38,2.39h42.17a2.39,2.39,0,0,0,2.38-2.39V80.17a2.39,2.39,0,0,0-2.38-2.39Z" transform="translate(-2.17 -3.08)"/><path class="cls-1" d="M61.39,32.94h-18A3.38,3.38,0,0,1,40,29.55V15a3.38,3.38,0,0,1,3.38-3.39h18A3.38,3.38,0,0,1,64.77,15V29.55A3.38,3.38,0,0,1,61.39,32.94Zm-18-20.36A2.38,2.38,0,0,0,41,15V29.55a2.38,2.38,0,0,0,2.38,2.39h18a2.39,2.39,0,0,0,2.38-2.39V15a2.39,2.39,0,0,0-2.38-2.39Z" transform="translate(-2.17 -3.08)"/><path class="cls-1" d="M69.41,54.7h-18A3.39,3.39,0,0,1,48,51.32V36.73a3.38,3.38,0,0,1,3.38-3.38h18a3.38,3.38,0,0,1,3.38,3.38V51.32A3.39,3.39,0,0,1,69.41,54.7Zm-18-20.35A2.39,2.39,0,0,0,49,36.73V51.32a2.39,2.39,0,0,0,2.38,2.38h18a2.39,2.39,0,0,0,2.38-2.38V36.73a2.39,2.39,0,0,0-2.38-2.38Z" transform="translate(-2.17 -3.08)"/><path class="cls-1" d="M77.33,76.45h-18a3.39,3.39,0,0,1-3.38-3.39V58.48a3.39,3.39,0,0,1,3.38-3.39h18a3.39,3.39,0,0,1,3.38,3.39V73.06A3.39,3.39,0,0,1,77.33,76.45Zm-18-20.36a2.39,2.39,0,0,0-2.38,2.39V73.06a2.39,2.39,0,0,0,2.38,2.39h18a2.39,2.39,0,0,0,2.38-2.39V58.48a2.39,2.39,0,0,0-2.38-2.39Z" transform="translate(-2.17 -3.08)"/><path class="cls-1" d="M101.8,76.45h-18a3.38,3.38,0,0,1-3.38-3.39V58.48a3.38,3.38,0,0,1,3.38-3.39h18a3.38,3.38,0,0,1,3.38,3.39V73.06A3.38,3.38,0,0,1,101.8,76.45Zm-18-20.36a2.38,2.38,0,0,0-2.38,2.39V73.06a2.38,2.38,0,0,0,2.38,2.39h18a2.39,2.39,0,0,0,2.38-2.39V58.48a2.39,2.39,0,0,0-2.38-2.39Z" transform="translate(-2.17 -3.08)"/><path class="cls-1" d="M125.9,76.45H107.85a3.39,3.39,0,0,1-3.38-3.39V58.48a3.39,3.39,0,0,1,3.38-3.39H125.9a3.39,3.39,0,0,1,3.38,3.39V73.06A3.39,3.39,0,0,1,125.9,76.45ZM107.85,56.09a2.39,2.39,0,0,0-2.38,2.39V73.06a2.39,2.39,0,0,0,2.38,2.39H125.9a2.39,2.39,0,0,0,2.38-2.39V58.48a2.39,2.39,0,0,0-2.38-2.39Z" transform="translate(-2.17 -3.08)"/><path class="cls-1" d="M150.46,76.45h-18A3.39,3.39,0,0,1,129,73.06V58.48a3.39,3.39,0,0,1,3.38-3.39h18a3.39,3.39,0,0,1,3.39,3.39V73.06A3.39,3.39,0,0,1,150.46,76.45Zm-18-20.36A2.39,2.39,0,0,0,130,58.48V73.06a2.39,2.39,0,0,0,2.38,2.39h18a2.39,2.39,0,0,0,2.39-2.39V58.48a2.39,2.39,0,0,0-2.39-2.39Z" transform="translate(-2.17 -3.08)"/><path class="cls-1" d="M174.94,76.45h-18a3.39,3.39,0,0,1-3.39-3.39V58.48a3.39,3.39,0,0,1,3.39-3.39h18a3.39,3.39,0,0,1,3.38,3.39V73.06A3.39,3.39,0,0,1,174.94,76.45Zm-18-20.36a2.39,2.39,0,0,0-2.39,2.39V73.06a2.39,2.39,0,0,0,2.39,2.39h18a2.39,2.39,0,0,0,2.38-2.39V58.48a2.39,2.39,0,0,0-2.38-2.39Z" transform="translate(-2.17 -3.08)"/><path class="cls-1" d="M199.41,76.45h-18A3.39,3.39,0,0,1,178,73.06V58.48a3.39,3.39,0,0,1,3.38-3.39h18a3.39,3.39,0,0,1,3.39,3.39V73.06A3.39,3.39,0,0,1,199.41,76.45Zm-18-20.36A2.39,2.39,0,0,0,179,58.48V73.06a2.39,2.39,0,0,0,2.38,2.39h18a2.39,2.39,0,0,0,2.39-2.39V58.48a2.39,2.39,0,0,0-2.39-2.39Z" transform="translate(-2.17 -3.08)"/><path class="cls-1" d="M224.18,76.45H206.13a3.39,3.39,0,0,1-3.38-3.39V58.48a3.39,3.39,0,0,1,3.38-3.39h18.05a3.39,3.39,0,0,1,3.38,3.39V73.06A3.39,3.39,0,0,1,224.18,76.45ZM206.13,56.09a2.39,2.39,0,0,0-2.38,2.39V73.06a2.39,2.39,0,0,0,2.38,2.39h18.05a2.39,2.39,0,0,0,2.38-2.39V58.48a2.39,2.39,0,0,0-2.38-2.39Z" transform="translate(-2.17 -3.08)"/><path class="cls-1" d="M248.37,76.45H230.32a3.39,3.39,0,0,1-3.38-3.39V58.48a3.39,3.39,0,0,1,3.38-3.39h18.05a3.39,3.39,0,0,1,3.38,3.39V73.06A3.39,3.39,0,0,1,248.37,76.45ZM230.32,56.09a2.39,2.39,0,0,0-2.38,2.39V73.06a2.39,2.39,0,0,0,2.38,2.39h18.05a2.39,2.39,0,0,0,2.38-2.39V58.48a2.39,2.39,0,0,0-2.38-2.39Z" transform="translate(-2.17 -3.08)"/><path class="cls-1" d="M272.65,76.45h-18a3.39,3.39,0,0,1-3.38-3.39V58.48a3.39,3.39,0,0,1,3.38-3.39h18A3.39,3.39,0,0,1,276,58.48V73.06A3.39,3.39,0,0,1,272.65,76.45Zm-18-20.36a2.39,2.39,0,0,0-2.38,2.39V73.06a2.39,2.39,0,0,0,2.38,2.39h18A2.39,2.39,0,0,0,275,73.06V58.48a2.39,2.39,0,0,0-2.38-2.39Z" transform="translate(-2.17 -3.08)"/><path class="cls-1" d="M297,76.45H279a3.39,3.39,0,0,1-3.38-3.39V58.48A3.39,3.39,0,0,1,279,55.09h18a3.39,3.39,0,0,1,3.38,3.39V73.06A3.39,3.39,0,0,1,297,76.45ZM279,56.09a2.39,2.39,0,0,0-2.38,2.39V73.06A2.39,2.39,0,0,0,279,75.45h18a2.39,2.39,0,0,0,2.38-2.39V58.48A2.39,2.39,0,0,0,297,56.09Z" transform="translate(-2.17 -3.08)"/><path class="cls-1" d="M321.22,76.45H303.17a3.39,3.39,0,0,1-3.38-3.39V58.48a3.39,3.39,0,0,1,3.38-3.39h18.05a3.39,3.39,0,0,1,3.38,3.39V73.06A3.39,3.39,0,0,1,321.22,76.45ZM303.17,56.09a2.39,2.39,0,0,0-2.38,2.39V73.06a2.39,2.39,0,0,0,2.38,2.39h18.05a2.39,2.39,0,0,0,2.38-2.39V58.48a2.39,2.39,0,0,0-2.38-2.39Z" transform="translate(-2.17 -3.08)"/><path class="cls-1" d="M305.56,98.14h-18a3.39,3.39,0,0,1-3.38-3.39V80.17a3.39,3.39,0,0,1,3.38-3.39h18A3.39,3.39,0,0,1,309,80.17V94.75A3.39,3.39,0,0,1,305.56,98.14Zm-18-20.36a2.39,2.39,0,0,0-2.38,2.39V94.75a2.39,2.39,0,0,0,2.38,2.39h18A2.39,2.39,0,0,0,308,94.75V80.17a2.39,2.39,0,0,0-2.39-2.39Z" transform="translate(-2.17 -3.08)"/><path class="cls-1" d="M281.09,98.14H263a3.39,3.39,0,0,1-3.38-3.39V80.17A3.39,3.39,0,0,1,263,76.78h18a3.39,3.39,0,0,1,3.38,3.39V94.75A3.39,3.39,0,0,1,281.09,98.14ZM263,77.78a2.39,2.39,0,0,0-2.38,2.39V94.75A2.39,2.39,0,0,0,263,97.14h18a2.39,2.39,0,0,0,2.38-2.39V80.17a2.39,2.39,0,0,0-2.38-2.39Z" transform="translate(-2.17 -3.08)"/><path class="cls-1" d="M256.61,98.14H238.56a3.39,3.39,0,0,1-3.38-3.39V80.17a3.39,3.39,0,0,1,3.38-3.39h18.05A3.39,3.39,0,0,1,260,80.17V94.75A3.39,3.39,0,0,1,256.61,98.14ZM238.56,77.78a2.39,2.39,0,0,0-2.38,2.39V94.75a2.39,2.39,0,0,0,2.38,2.39h18.05A2.39,2.39,0,0,0,259,94.75V80.17a2.39,2.39,0,0,0-2.38-2.39Z" transform="translate(-2.17 -3.08)"/><path class="cls-1" d="M232.13,98.14h-18a3.39,3.39,0,0,1-3.38-3.39V80.17a3.39,3.39,0,0,1,3.38-3.39h18a3.39,3.39,0,0,1,3.38,3.39V94.75A3.39,3.39,0,0,1,232.13,98.14Zm-18-20.36a2.39,2.39,0,0,0-2.38,2.39V94.75a2.39,2.39,0,0,0,2.38,2.39h18a2.39,2.39,0,0,0,2.38-2.39V80.17a2.39,2.39,0,0,0-2.38-2.39Z" transform="translate(-2.17 -3.08)"/><path class="cls-1" d="M207.65,98.14h-18a3.39,3.39,0,0,1-3.39-3.39V80.17a3.39,3.39,0,0,1,3.39-3.39h18A3.39,3.39,0,0,1,211,80.17V94.75A3.39,3.39,0,0,1,207.65,98.14Zm-18-20.36a2.39,2.39,0,0,0-2.39,2.39V94.75a2.39,2.39,0,0,0,2.39,2.39h18A2.39,2.39,0,0,0,210,94.75V80.17a2.39,2.39,0,0,0-2.38-2.39Z" transform="translate(-2.17 -3.08)"/><path class="cls-1" d="M183.17,98.14h-18a3.39,3.39,0,0,1-3.39-3.39V80.17a3.39,3.39,0,0,1,3.39-3.39h18a3.39,3.39,0,0,1,3.38,3.39V94.75A3.39,3.39,0,0,1,183.17,98.14Zm-18-20.36a2.39,2.39,0,0,0-2.39,2.39V94.75a2.39,2.39,0,0,0,2.39,2.39h18a2.39,2.39,0,0,0,2.38-2.39V80.17a2.39,2.39,0,0,0-2.38-2.39Z" transform="translate(-2.17 -3.08)"/><path class="cls-1" d="M158.69,98.14h-18a3.38,3.38,0,0,1-3.38-3.39V80.17a3.38,3.38,0,0,1,3.38-3.39h18a3.38,3.38,0,0,1,3.38,3.39V94.75A3.38,3.38,0,0,1,158.69,98.14Zm-18-20.36a2.38,2.38,0,0,0-2.38,2.39V94.75a2.38,2.38,0,0,0,2.38,2.39h18a2.39,2.39,0,0,0,2.38-2.39V80.17a2.39,2.39,0,0,0-2.38-2.39Z" transform="translate(-2.17 -3.08)"/><path class="cls-1" d="M134.21,98.14h-18a3.38,3.38,0,0,1-3.38-3.39V80.17a3.38,3.38,0,0,1,3.38-3.39h18a3.38,3.38,0,0,1,3.38,3.39V94.75A3.38,3.38,0,0,1,134.21,98.14Zm-18-20.36a2.38,2.38,0,0,0-2.38,2.39V94.75a2.38,2.38,0,0,0,2.38,2.39h18a2.38,2.38,0,0,0,2.38-2.39V80.17a2.38,2.38,0,0,0-2.38-2.39Z" transform="translate(-2.17 -3.08)"/><path class="cls-1" d="M109.73,98.14h-18a3.38,3.38,0,0,1-3.38-3.39V80.17a3.38,3.38,0,0,1,3.38-3.39h18a3.38,3.38,0,0,1,3.38,3.39V94.75A3.38,3.38,0,0,1,109.73,98.14Zm-18-20.36a2.39,2.39,0,0,0-2.38,2.39V94.75a2.39,2.39,0,0,0,2.38,2.39h18a2.38,2.38,0,0,0,2.38-2.39V80.17a2.38,2.38,0,0,0-2.38-2.39Z" transform="translate(-2.17 -3.08)"/><path class="cls-1" d="M85.54,98.14h-18a3.38,3.38,0,0,1-3.38-3.39V80.17a3.38,3.38,0,0,1,3.38-3.39h18a3.38,3.38,0,0,1,3.38,3.39V94.75A3.38,3.38,0,0,1,85.54,98.14Zm-18-20.36a2.39,2.39,0,0,0-2.38,2.39V94.75a2.39,2.39,0,0,0,2.38,2.39h18a2.38,2.38,0,0,0,2.38-2.39V80.17a2.38,2.38,0,0,0-2.38-2.39Z" transform="translate(-2.17 -3.08)"/><path class="cls-1" d="M93.79,54.7h-18a3.39,3.39,0,0,1-3.39-3.38V36.73a3.38,3.38,0,0,1,3.39-3.38h18a3.38,3.38,0,0,1,3.38,3.38V51.32A3.39,3.39,0,0,1,93.79,54.7Zm-18-20.35a2.39,2.39,0,0,0-2.39,2.38V51.32a2.39,2.39,0,0,0,2.39,2.38h18a2.39,2.39,0,0,0,2.38-2.38V36.73a2.39,2.39,0,0,0-2.38-2.38Z" transform="translate(-2.17 -3.08)"/><path class="cls-1" d="M118.17,54.7h-18a3.38,3.38,0,0,1-3.38-3.38V36.73a3.38,3.38,0,0,1,3.38-3.38h18a3.38,3.38,0,0,1,3.38,3.38V51.32A3.38,3.38,0,0,1,118.17,54.7Zm-18-20.35a2.38,2.38,0,0,0-2.38,2.38V51.32a2.38,2.38,0,0,0,2.38,2.38h18a2.38,2.38,0,0,0,2.38-2.38V36.73a2.38,2.38,0,0,0-2.38-2.38Z" transform="translate(-2.17 -3.08)"/><path class="cls-1" d="M142.55,54.7h-18a3.39,3.39,0,0,1-3.38-3.38V36.73a3.38,3.38,0,0,1,3.38-3.38h18a3.38,3.38,0,0,1,3.39,3.38V51.32A3.39,3.39,0,0,1,142.55,54.7Zm-18-20.35a2.39,2.39,0,0,0-2.38,2.38V51.32a2.39,2.39,0,0,0,2.38,2.38h18a2.39,2.39,0,0,0,2.39-2.38V36.73a2.39,2.39,0,0,0-2.39-2.38Z" transform="translate(-2.17 -3.08)"/><path class="cls-1" d="M166.94,54.7H148.89a3.39,3.39,0,0,1-3.38-3.38V36.73a3.38,3.38,0,0,1,3.38-3.38h18.05a3.38,3.38,0,0,1,3.38,3.38V51.32A3.39,3.39,0,0,1,166.94,54.7ZM148.89,34.35a2.39,2.39,0,0,0-2.38,2.38V51.32a2.39,2.39,0,0,0,2.38,2.38h18.05a2.39,2.39,0,0,0,2.38-2.38V36.73a2.39,2.39,0,0,0-2.38-2.38Z" transform="translate(-2.17 -3.08)"/><path class="cls-1" d="M191.32,54.7h-18a3.38,3.38,0,0,1-3.38-3.38V36.73a3.38,3.38,0,0,1,3.38-3.38h18a3.38,3.38,0,0,1,3.38,3.38V51.32A3.38,3.38,0,0,1,191.32,54.7Zm-18-20.35a2.38,2.38,0,0,0-2.38,2.38V51.32a2.38,2.38,0,0,0,2.38,2.38h18a2.39,2.39,0,0,0,2.38-2.38V36.73a2.39,2.39,0,0,0-2.38-2.38Z" transform="translate(-2.17 -3.08)"/><path class="cls-1" d="M215.7,54.7h-18a3.39,3.39,0,0,1-3.38-3.38V36.73a3.38,3.38,0,0,1,3.38-3.38h18a3.38,3.38,0,0,1,3.39,3.38V51.32A3.39,3.39,0,0,1,215.7,54.7Zm-18-20.35a2.39,2.39,0,0,0-2.38,2.38V51.32a2.39,2.39,0,0,0,2.38,2.38h18a2.39,2.39,0,0,0,2.39-2.38V36.73a2.39,2.39,0,0,0-2.39-2.38Z" transform="translate(-2.17 -3.08)"/><path class="cls-1" d="M240.09,54.7H222a3.39,3.39,0,0,1-3.38-3.38V36.73A3.38,3.38,0,0,1,222,33.35h18.05a3.38,3.38,0,0,1,3.38,3.38V51.32A3.39,3.39,0,0,1,240.09,54.7ZM222,34.35a2.39,2.39,0,0,0-2.38,2.38V51.32A2.39,2.39,0,0,0,222,53.7h18.05a2.39,2.39,0,0,0,2.38-2.38V36.73a2.39,2.39,0,0,0-2.38-2.38Z" transform="translate(-2.17 -3.08)"/><path class="cls-1" d="M264.47,54.7h-18A3.39,3.39,0,0,1,243,51.32V36.73a3.38,3.38,0,0,1,3.39-3.38h18a3.38,3.38,0,0,1,3.38,3.38V51.32A3.39,3.39,0,0,1,264.47,54.7Zm-18-20.35A2.39,2.39,0,0,0,244,36.73V51.32a2.39,2.39,0,0,0,2.39,2.38h18a2.39,2.39,0,0,0,2.38-2.38V36.73a2.39,2.39,0,0,0-2.38-2.38Z" transform="translate(-2.17 -3.08)"/><path class="cls-1" d="M288.85,54.7h-18a3.38,3.38,0,0,1-3.38-3.38V36.73a3.38,3.38,0,0,1,3.38-3.38h18a3.38,3.38,0,0,1,3.38,3.38V51.32A3.38,3.38,0,0,1,288.85,54.7Zm-18-20.35a2.39,2.39,0,0,0-2.38,2.38V51.32a2.39,2.39,0,0,0,2.38,2.38h18a2.38,2.38,0,0,0,2.38-2.38V36.73a2.38,2.38,0,0,0-2.38-2.38Z" transform="translate(-2.17 -3.08)"/><path class="cls-1" d="M313.24,54.7H295.19a3.39,3.39,0,0,1-3.38-3.38V36.73a3.38,3.38,0,0,1,3.38-3.38h18.05a3.38,3.38,0,0,1,3.38,3.38V51.32A3.39,3.39,0,0,1,313.24,54.7ZM295.19,34.35a2.39,2.39,0,0,0-2.38,2.38V51.32a2.39,2.39,0,0,0,2.38,2.38h18.05a2.39,2.39,0,0,0,2.38-2.38V36.73a2.39,2.39,0,0,0-2.38-2.38Z" transform="translate(-2.17 -3.08)"/><path class="cls-1" d="M337.62,54.7h-18a3.39,3.39,0,0,1-3.39-3.38V36.73a3.38,3.38,0,0,1,3.39-3.38h18A3.38,3.38,0,0,1,341,36.73V51.32A3.39,3.39,0,0,1,337.62,54.7Zm-18-20.35a2.39,2.39,0,0,0-2.39,2.38V51.32a2.39,2.39,0,0,0,2.39,2.38h18A2.39,2.39,0,0,0,340,51.32V36.73a2.39,2.39,0,0,0-2.38-2.38Z" transform="translate(-2.17 -3.08)"/><path class="cls-1" d="M85.65,32.94h-18a3.38,3.38,0,0,1-3.38-3.39V15a3.38,3.38,0,0,1,3.38-3.39h18A3.38,3.38,0,0,1,89,15V29.55A3.38,3.38,0,0,1,85.65,32.94Zm-18-20.36A2.39,2.39,0,0,0,65.23,15V29.55a2.39,2.39,0,0,0,2.38,2.39h18A2.38,2.38,0,0,0,88,29.55V15a2.38,2.38,0,0,0-2.38-2.39Z" transform="translate(-2.17 -3.08)"/><path class="cls-1" d="M110.27,32.94h-18a3.39,3.39,0,0,1-3.38-3.39V15a3.39,3.39,0,0,1,3.38-3.39h18A3.39,3.39,0,0,1,113.66,15V29.55A3.39,3.39,0,0,1,110.27,32.94Zm-18-20.36A2.39,2.39,0,0,0,89.85,15V29.55a2.39,2.39,0,0,0,2.38,2.39h18a2.39,2.39,0,0,0,2.39-2.39V15a2.39,2.39,0,0,0-2.39-2.39Z" transform="translate(-2.17 -3.08)"/><path class="cls-1" d="M134.75,32.94h-18a3.38,3.38,0,0,1-3.38-3.39V15a3.38,3.38,0,0,1,3.38-3.39h18A3.38,3.38,0,0,1,138.13,15V29.55A3.38,3.38,0,0,1,134.75,32.94Zm-18-20.36A2.39,2.39,0,0,0,114.33,15V29.55a2.39,2.39,0,0,0,2.38,2.39h18a2.38,2.38,0,0,0,2.38-2.39V15a2.38,2.38,0,0,0-2.38-2.39Z" transform="translate(-2.17 -3.08)"/><path class="cls-1" d="M159.16,32.94h-18a3.39,3.39,0,0,1-3.38-3.39V15a3.39,3.39,0,0,1,3.38-3.39h18A3.39,3.39,0,0,1,162.54,15V29.55A3.39,3.39,0,0,1,159.16,32.94Zm-18-20.36A2.39,2.39,0,0,0,138.73,15V29.55a2.39,2.39,0,0,0,2.38,2.39h18a2.39,2.39,0,0,0,2.38-2.39V15a2.39,2.39,0,0,0-2.38-2.39Z" transform="translate(-2.17 -3.08)"/><path class="cls-1" d="M183.49,32.94h-18a3.38,3.38,0,0,1-3.38-3.39V15a3.38,3.38,0,0,1,3.38-3.39h18A3.38,3.38,0,0,1,186.87,15V29.55A3.38,3.38,0,0,1,183.49,32.94Zm-18-20.36A2.38,2.38,0,0,0,163.07,15V29.55a2.38,2.38,0,0,0,2.38,2.39h18a2.38,2.38,0,0,0,2.38-2.39V15a2.38,2.38,0,0,0-2.38-2.39Z" transform="translate(-2.17 -3.08)"/><path class="cls-1" d="M208,32.94h-18a3.39,3.39,0,0,1-3.38-3.39V15a3.39,3.39,0,0,1,3.38-3.39h18A3.39,3.39,0,0,1,211.34,15V29.55A3.39,3.39,0,0,1,208,32.94Zm-18-20.36A2.39,2.39,0,0,0,187.53,15V29.55a2.39,2.39,0,0,0,2.38,2.39h18a2.39,2.39,0,0,0,2.39-2.39V15A2.39,2.39,0,0,0,208,12.58Z" transform="translate(-2.17 -3.08)"/><path class="cls-1" d="M232.47,32.94h-18A3.39,3.39,0,0,1,211,29.55V15a3.39,3.39,0,0,1,3.39-3.39h18A3.39,3.39,0,0,1,235.85,15V29.55A3.39,3.39,0,0,1,232.47,32.94Zm-18-20.36A2.39,2.39,0,0,0,212,15V29.55a2.39,2.39,0,0,0,2.39,2.39h18a2.39,2.39,0,0,0,2.38-2.39V15a2.39,2.39,0,0,0-2.38-2.39Z" transform="translate(-2.17 -3.08)"/><path class="cls-1" d="M256.56,32.94h-18a3.39,3.39,0,0,1-3.38-3.39V15a3.39,3.39,0,0,1,3.38-3.39h18A3.39,3.39,0,0,1,260,15V29.55A3.39,3.39,0,0,1,256.56,32.94Zm-18-20.36A2.39,2.39,0,0,0,236.14,15V29.55a2.39,2.39,0,0,0,2.38,2.39h18A2.39,2.39,0,0,0,259,29.55V15a2.39,2.39,0,0,0-2.39-2.39Z" transform="translate(-2.17 -3.08)"/><path class="cls-1" d="M280.9,32.94h-18a3.39,3.39,0,0,1-3.39-3.39V15a3.39,3.39,0,0,1,3.39-3.39h18A3.39,3.39,0,0,1,284.28,15V29.55A3.39,3.39,0,0,1,280.9,32.94Zm-18-20.36A2.39,2.39,0,0,0,260.47,15V29.55a2.39,2.39,0,0,0,2.39,2.39h18a2.39,2.39,0,0,0,2.38-2.39V15a2.39,2.39,0,0,0-2.38-2.39Z" transform="translate(-2.17 -3.08)"/><path class="cls-1" d="M305.52,32.94h-18a3.38,3.38,0,0,1-3.38-3.39V15a3.38,3.38,0,0,1,3.38-3.39h18A3.38,3.38,0,0,1,308.9,15V29.55A3.38,3.38,0,0,1,305.52,32.94Zm-18-20.36A2.38,2.38,0,0,0,285.1,15V29.55a2.38,2.38,0,0,0,2.38,2.39h18a2.39,2.39,0,0,0,2.38-2.39V15a2.39,2.39,0,0,0-2.38-2.39Z" transform="translate(-2.17 -3.08)"/><path class="cls-1" d="M330.09,32.94h-18a3.39,3.39,0,0,1-3.38-3.39V15a3.39,3.39,0,0,1,3.38-3.39h18A3.39,3.39,0,0,1,333.48,15V29.55A3.39,3.39,0,0,1,330.09,32.94Zm-18-20.36A2.39,2.39,0,0,0,309.67,15V29.55a2.39,2.39,0,0,0,2.38,2.39h18a2.39,2.39,0,0,0,2.39-2.39V15a2.39,2.39,0,0,0-2.39-2.39Z" transform="translate(-2.17 -3.08)"/><path class="cls-1" d="M354.48,32.94H336.43a3.39,3.39,0,0,1-3.38-3.39V15a3.39,3.39,0,0,1,3.38-3.39h18.05A3.39,3.39,0,0,1,357.86,15V29.55A3.39,3.39,0,0,1,354.48,32.94ZM336.43,12.58A2.39,2.39,0,0,0,334.05,15V29.55a2.39,2.39,0,0,0,2.38,2.39h18.05a2.39,2.39,0,0,0,2.38-2.39V15a2.39,2.39,0,0,0-2.38-2.39Z" transform="translate(-2.17 -3.08)"/><path class="cls-1" d="M378.81,32.94h-18a3.39,3.39,0,0,1-3.39-3.39V15a3.39,3.39,0,0,1,3.39-3.39h18A3.39,3.39,0,0,1,382.19,15V29.55A3.39,3.39,0,0,1,378.81,32.94Zm-18-20.36A2.39,2.39,0,0,0,358.38,15V29.55a2.39,2.39,0,0,0,2.39,2.39h18a2.39,2.39,0,0,0,2.38-2.39V15a2.39,2.39,0,0,0-2.38-2.39Z" transform="translate(-2.17 -3.08)"/><path class="cls-1" d="M378.81,98.14h-18a3.39,3.39,0,0,1-3.39-3.39V80.17a3.39,3.39,0,0,1,3.39-3.39h18a3.39,3.39,0,0,1,3.38,3.39V94.75A3.39,3.39,0,0,1,378.81,98.14Zm-18-20.36a2.39,2.39,0,0,0-2.39,2.39V94.75a2.39,2.39,0,0,0,2.39,2.39h18a2.39,2.39,0,0,0,2.38-2.39V80.17a2.39,2.39,0,0,0-2.38-2.39Z" transform="translate(-2.17 -3.08)"/><path class="cls-1" d="M378.81,76.73H328.08a3.38,3.38,0,0,1-3.38-3.38V58.76a3.39,3.39,0,0,1,3.38-3.38h10.67A2.39,2.39,0,0,0,341.13,53V37a3.39,3.39,0,0,1,3.38-3.39h34.3A3.39,3.39,0,0,1,382.19,37V73.35A3.38,3.38,0,0,1,378.81,76.73ZM328.08,56.38a2.39,2.39,0,0,0-2.38,2.38V73.35a2.38,2.38,0,0,0,2.38,2.38h50.73a2.38,2.38,0,0,0,2.38-2.38V37a2.39,2.39,0,0,0-2.38-2.39h-34.3A2.39,2.39,0,0,0,342.13,37V53a3.38,3.38,0,0,1-3.38,3.38Z" transform="translate(-2.17 -3.08)"/><path class="cls-1" d="M30,23.21H29.2l-1.38-1.9h1.23Z" transform="translate(-2.17 -3.08)"/><path class="cls-1" d="M56.45,28.88H52.37v-.77h1.57V23.06H52.37v-.69a4.18,4.18,0,0,0,.68-.06,1.47,1.47,0,0,0,.55-.15,1,1,0,0,0,.37-.32,1.11,1.11,0,0,0,.16-.53h.78v6.8h1.54Z" transform="translate(-2.17 -3.08)"/><path class="cls-1" d="M80.64,28.94H75.53V27.88L76.6,27q.54-.45,1-.9a9.89,9.89,0,0,0,1.34-1.5,2.24,2.24,0,0,0,.35-1.2,1.12,1.12,0,0,0-.38-.91,1.57,1.57,0,0,0-1.08-.34,3.44,3.44,0,0,0-1,.17,3.84,3.84,0,0,0-1,.49h0V21.72a4.28,4.28,0,0,1,1-.32,4.8,4.8,0,0,1,1.16-.15,2.7,2.7,0,0,1,1.82.56,1.88,1.88,0,0,1,.66,1.51,3,3,0,0,1-.11.81,2.76,2.76,0,0,1-.32.7,4.4,4.4,0,0,1-.47.62c-.17.2-.39.43-.64.67s-.74.7-1.12,1l-1.08.93h4.06Z" transform="translate(-2.17 -3.08)"/><path class="cls-1" d="M104.68,25.23a1.9,1.9,0,0,1,.4.55,2.06,2.06,0,0,1,.15.85,2.44,2.44,0,0,1-.18.95,2.22,2.22,0,0,1-.53.75,2.4,2.4,0,0,1-.89.52,3.72,3.72,0,0,1-1.13.17,5.05,5.05,0,0,1-1.23-.15,6.6,6.6,0,0,1-1-.32V27.49h.07a4.37,4.37,0,0,0,1,.47,3.76,3.76,0,0,0,1.12.19,2.47,2.47,0,0,0,.68-.11,1.36,1.36,0,0,0,.93-.81,1.8,1.8,0,0,0,.11-.67,1.45,1.45,0,0,0-.13-.67,1,1,0,0,0-.35-.42,1.4,1.4,0,0,0-.56-.22,3.69,3.69,0,0,0-.69-.06H102v-.84h.35a2,2,0,0,0,1.23-.32,1.05,1.05,0,0,0,.46-.94.89.89,0,0,0-.12-.47.87.87,0,0,0-.32-.34,1.35,1.35,0,0,0-.47-.18,2.38,2.38,0,0,0-.56-.05,3.2,3.2,0,0,0-1,.17,4,4,0,0,0-1,.48h-.05V21.65a4.8,4.8,0,0,1,1-.33,4.74,4.74,0,0,1,1.16-.15,4.07,4.07,0,0,1,1,.1,2.72,2.72,0,0,1,.76.32,1.71,1.71,0,0,1,.55.59,1.62,1.62,0,0,1,.19.81,1.51,1.51,0,0,1-.45,1.09,1.86,1.86,0,0,1-1,.59v.07a3.41,3.41,0,0,1,.56.17A2.26,2.26,0,0,1,104.68,25.23Z" transform="translate(-2.17 -3.08)"/><path class="cls-1" d="M129.78,27.1h-1.12v2.12h-1V27.1h-3.61V25.94l3.65-4.26h.93v4.61h1.12Zm-2.09-.81v-3.4l-2.92,3.4Z" transform="translate(-2.17 -3.08)"/><path class="cls-1" d="M154.58,26.75a2.67,2.67,0,0,1-.19,1,2.42,2.42,0,0,1-.53.81,2.56,2.56,0,0,1-.87.54,3.17,3.17,0,0,1-1.16.19,5.11,5.11,0,0,1-1.19-.13,4.43,4.43,0,0,1-1-.31V27.79h.07a4.14,4.14,0,0,0,1,.45,3.58,3.58,0,0,0,1.1.19,2.26,2.26,0,0,0,.69-.11,1.31,1.31,0,0,0,.6-.35,1.51,1.51,0,0,0,.34-.52,2.16,2.16,0,0,0,.11-.71,1.42,1.42,0,0,0-.13-.65,1.12,1.12,0,0,0-.37-.43,1.61,1.61,0,0,0-.64-.27,3.78,3.78,0,0,0-.85-.08,6.11,6.11,0,0,0-.86.06l-.71.12V21.61h4.54v.88H151v2a3.29,3.29,0,0,1,.45,0h.39a4.81,4.81,0,0,1,1.07.1,2.39,2.39,0,0,1,.85.37,1.83,1.83,0,0,1,.63.72A2.4,2.4,0,0,1,154.58,26.75Z" transform="translate(-2.17 -3.08)"/><path class="cls-1" d="M178,26.77a2.48,2.48,0,0,1-.76,1.88,2.57,2.57,0,0,1-1.85.72,2.93,2.93,0,0,1-1-.17,2.42,2.42,0,0,1-.81-.51,2.75,2.75,0,0,1-.67-1.12,5.1,5.1,0,0,1-.23-1.67,6.77,6.77,0,0,1,.21-1.77,3.74,3.74,0,0,1,.69-1.38,2.93,2.93,0,0,1,1.15-.89,3.81,3.81,0,0,1,1.64-.32,3.7,3.7,0,0,1,.5,0l.41.09v1h-.05a2.29,2.29,0,0,0-.43-.15,2.88,2.88,0,0,0-.59-.06,2.25,2.25,0,0,0-1.73.68,3,3,0,0,0-.76,1.84,4,4,0,0,1,.84-.4,3.43,3.43,0,0,1,1-.13,3.49,3.49,0,0,1,.84.09,2.28,2.28,0,0,1,.76.36,2,2,0,0,1,.67.78A2.61,2.61,0,0,1,178,26.77Zm-1,0a1.81,1.81,0,0,0-.14-.78,1.35,1.35,0,0,0-.45-.54,1.58,1.58,0,0,0-.52-.21,3.81,3.81,0,0,0-.59-.05,2.87,2.87,0,0,0-.8.1,3.25,3.25,0,0,0-.76.32c0,.07,0,.14,0,.21v.26a3.82,3.82,0,0,0,.16,1.26,1.77,1.77,0,0,0,.46.74,1.58,1.58,0,0,0,.5.32,1.63,1.63,0,0,0,.59.11,1.49,1.49,0,0,0,1.15-.45A1.82,1.82,0,0,0,177,26.81Z" transform="translate(-2.17 -3.08)"/><path class="cls-1" d="M202.66,22.74l-3.41,6.41h-1.08l3.63-6.65h-4.3v-.89h5.16Z" transform="translate(-2.17 -3.08)"/><path class="cls-1" d="M227.11,27.34a2,2,0,0,1-.76,1.62,2.83,2.83,0,0,1-1.92.65,2.86,2.86,0,0,1-2-.63,2.06,2.06,0,0,1-.73-1.62,1.87,1.87,0,0,1,.37-1.14,2.41,2.41,0,0,1,1-.8v0a2.74,2.74,0,0,1-.9-.71,1.53,1.53,0,0,1-.29-1,1.76,1.76,0,0,1,.69-1.41,2.73,2.73,0,0,1,1.78-.57,2.8,2.8,0,0,1,1.8.54,1.7,1.7,0,0,1,.68,1.38,1.85,1.85,0,0,1-.32,1,2.15,2.15,0,0,1-.94.78v0a2.8,2.8,0,0,1,1.08.75A1.68,1.68,0,0,1,227.11,27.34Zm-1,.1a1.23,1.23,0,0,0-.21-.75,2.11,2.11,0,0,0-.8-.57,5.15,5.15,0,0,0-.52-.2l-.76-.27a2,2,0,0,0-.73.67,1.78,1.78,0,0,0-.27,1,1.45,1.45,0,0,0,.47,1.13,1.65,1.65,0,0,0,1.19.45,1.76,1.76,0,0,0,1.18-.38A1.28,1.28,0,0,0,226.07,27.44Zm-.16-3.78a1,1,0,0,0-.42-.86,1.66,1.66,0,0,0-1.06-.33,1.72,1.72,0,0,0-1.05.31,1,1,0,0,0-.41.82,1,1,0,0,0,.21.63,1.74,1.74,0,0,0,.62.47l.54.24a5,5,0,0,0,.68.24,2,2,0,0,0,.7-.69A1.72,1.72,0,0,0,225.91,23.66Z" transform="translate(-2.17 -3.08)"/><path class="cls-1" d="M252,25a6.73,6.73,0,0,1-.22,1.8,3.91,3.91,0,0,1-.68,1.37,3.11,3.11,0,0,1-1.16.89,3.89,3.89,0,0,1-1.63.31,3.79,3.79,0,0,1-.49,0,1.65,1.65,0,0,1-.42-.08v-1h.05a1.86,1.86,0,0,0,.42.14,2.25,2.25,0,0,0,.6.07,2.28,2.28,0,0,0,1.75-.67A3,3,0,0,0,251,26a4.32,4.32,0,0,1-.89.41,3.28,3.28,0,0,1-.91.12,3.61,3.61,0,0,1-.84-.09,2.34,2.34,0,0,1-.75-.36,2,2,0,0,1-.68-.78,2.67,2.67,0,0,1-.22-1.14,2.46,2.46,0,0,1,.76-1.88,2.57,2.57,0,0,1,1.85-.72,3,3,0,0,1,1,.16,2.47,2.47,0,0,1,.82.51,2.67,2.67,0,0,1,.66,1.08A5.12,5.12,0,0,1,252,25Zm-1-.21a4,4,0,0,0-.16-1.27,1.75,1.75,0,0,0-.45-.73,1.28,1.28,0,0,0-.51-.33,1.63,1.63,0,0,0-.59-.1,1.48,1.48,0,0,0-1.15.46,1.81,1.81,0,0,0-.42,1.28,1.92,1.92,0,0,0,.13.78,1.35,1.35,0,0,0,.46.53,1.2,1.2,0,0,0,.51.21,2.77,2.77,0,0,0,.6.06,3.15,3.15,0,0,0,.8-.11,2.82,2.82,0,0,0,.76-.31,1.48,1.48,0,0,0,0-.21A2,2,0,0,0,251,24.79Z" transform="translate(-2.17 -3.08)"/><path class="cls-1" d="M275.54,25a5.47,5.47,0,0,1-.64,3A2.52,2.52,0,0,1,271,28a5.5,5.5,0,0,1-.63-3,5.51,5.51,0,0,1,.63-3,2.22,2.22,0,0,1,2-.95,2.18,2.18,0,0,1,2,1A5.49,5.49,0,0,1,275.54,25Zm-1.34,2.3a3.21,3.21,0,0,0,.24-1,10.33,10.33,0,0,0,.07-1.34,10.37,10.37,0,0,0-.07-1.33,3.06,3.06,0,0,0-.24-1,1.36,1.36,0,0,0-.48-.59,1.66,1.66,0,0,0-1.58,0,1.29,1.29,0,0,0-.49.6,2.92,2.92,0,0,0-.24,1q-.06.6-.06,1.32c0,.53,0,1,0,1.33a3.39,3.39,0,0,0,.24.95,1.31,1.31,0,0,0,.48.6,1.39,1.39,0,0,0,.81.21,1.47,1.47,0,0,0,.79-.2A1.22,1.22,0,0,0,274.2,27.3Z" transform="translate(-2.17 -3.08)"/><path class="cls-1" d="M299.27,26.33h-3.15v-.92h3.15Z" transform="translate(-2.17 -3.08)"/><path class="cls-1" d="M324.62,25.38h-6v-.81h6Zm0,2.13h-6V26.7h6Z" transform="translate(-2.17 -3.08)"/><path class="cls-1" d="M349.1,30.75h-.88l-3.63-9.42h.89Z" transform="translate(-2.17 -3.08)"/><path class="cls-1" d="M365.87,28.08a1.38,1.38,0,0,1-.14.62,1.13,1.13,0,0,1-.35.43,1.61,1.61,0,0,1-.58.3,2.94,2.94,0,0,1-.8.09h-1.65V24.86h1.38a7.24,7.24,0,0,1,.77,0,1.7,1.7,0,0,1,.48.16.84.84,0,0,1,.37.35,1,1,0,0,1,.12.5,1,1,0,0,1-.17.57,1.18,1.18,0,0,1-.45.37v0a1.26,1.26,0,0,1,.74.41A1.15,1.15,0,0,1,365.87,28.08ZM364.82,26a.61.61,0,0,0-.05-.28.47.47,0,0,0-.18-.19.8.8,0,0,0-.36-.1,4,4,0,0,0-.52,0H363v1.34h.8a2.91,2.91,0,0,0,.47,0,.84.84,0,0,0,.31-.12.53.53,0,0,0,.21-.24A1,1,0,0,0,364.82,26Zm.4,2.13a1.1,1.1,0,0,0-.08-.45.72.72,0,0,0-.31-.28,1,1,0,0,0-.36-.1,4,4,0,0,0-.53,0h-1V29h.82a4.08,4.08,0,0,0,.67,0,1,1,0,0,0,.42-.15.69.69,0,0,0,.26-.28A.92.92,0,0,0,365.22,28.11Z" transform="translate(-2.17 -3.08)"/><path class="cls-1" d="M369.87,29.52h-.77L367.69,28l-.38.36v1.17h-.59V24.65h.59v3.12L369,26h.74l-1.62,1.62Z" transform="translate(-2.17 -3.08)"/><path class="cls-1" d="M373,28.51a.92.92,0,0,1-.4.78,1.67,1.67,0,0,1-1.08.31,2.6,2.6,0,0,1-.71-.09,3,3,0,0,1-.54-.2v-.66h0a2.16,2.16,0,0,0,.62.33,1.91,1.91,0,0,0,.65.12,1.29,1.29,0,0,0,.61-.12.45.45,0,0,0,.22-.4.4.4,0,0,0-.12-.31,1.08,1.08,0,0,0-.46-.18l-.33-.07-.36-.08a1.22,1.22,0,0,1-.66-.36.92.92,0,0,1-.19-.58.9.9,0,0,1,.09-.4,1,1,0,0,1,.27-.34,1.37,1.37,0,0,1,.45-.24,1.9,1.9,0,0,1,.6-.08,2.85,2.85,0,0,1,.64.07,2.48,2.48,0,0,1,.53.19v.63h0a1.89,1.89,0,0,0-.55-.28,1.76,1.76,0,0,0-.63-.12,1,1,0,0,0-.55.13.43.43,0,0,0-.08.69,1.11,1.11,0,0,0,.42.18l.37.07.33.07a1.33,1.33,0,0,1,.64.32A.9.9,0,0,1,373,28.51Z" transform="translate(-2.17 -3.08)"/><path class="cls-1" d="M376.9,27.73a2.35,2.35,0,0,1-.12.77,1.55,1.55,0,0,1-.83,1,1.45,1.45,0,0,1-.59.12,2.38,2.38,0,0,1-.49,0,2.16,2.16,0,0,1-.45-.19V30.8h-.59V26h.59v.37a2.3,2.3,0,0,1,.52-.33,1.52,1.52,0,0,1,.63-.14,1.14,1.14,0,0,1,1,.48A2.17,2.17,0,0,1,376.9,27.73Zm-.6,0a1.61,1.61,0,0,0-.22-.94.74.74,0,0,0-.66-.32,1.34,1.34,0,0,0-.51.11,2.43,2.43,0,0,0-.49.29v2a2.12,2.12,0,0,0,.43.16,2.37,2.37,0,0,0,.41,0,.91.91,0,0,0,.76-.34A1.45,1.45,0,0,0,376.3,27.74Z" transform="translate(-2.17 -3.08)"/><path class="cls-1" d="M62.55,49.42l-1.43,3.32h-.74l.88-3.32Zm-.37-2.77H61V45.21h1.21Z" transform="translate(-2.17 -3.08)"/><path class="cls-1" d="M307.25,52.87h-2.63V43h2.63v.72H305.5v8.41h1.75Z" transform="translate(-2.17 -3.08)"/><path class="cls-1" d="M331.23,52.87H328.6v-.73h1.75V43.73H328.6V43h2.63Z" transform="translate(-2.17 -3.08)"/><path class="cls-1" d="M299.66,86.55,296,96h-.88l3.62-9.42Z" transform="translate(-2.17 -3.08)"/><path class="cls-1" d="M274,93.85h-1.21V92.41H274Z" transform="translate(-2.17 -3.08)"/><path class="cls-1" d="M250.15,92.41l-1.43,3.32H248l.88-3.32Z" transform="translate(-2.17 -3.08)"/><path class="cls-1" d="M24.86,47.07H23.21v4.09h-.62V47.07H20.93v-.55h3.93Z" transform="translate(-2.17 -3.08)"/><path class="cls-1" d="M27.4,51.16h-.59v-.37l-.21.15a1.65,1.65,0,0,1-.25.15,1.5,1.5,0,0,1-.34.12,2,2,0,0,1-.45,0,1.12,1.12,0,0,1-.79-.31,1.06,1.06,0,0,1-.33-.8,1.15,1.15,0,0,1,.17-.64,1.09,1.09,0,0,1,.48-.38,2.41,2.41,0,0,1,.77-.19c.29,0,.61-.06.95-.08v-.09a.67.67,0,0,0-.07-.33.43.43,0,0,0-.2-.2.81.81,0,0,0-.3-.1,2.06,2.06,0,0,0-.36,0,2.43,2.43,0,0,0-.51.06,4.83,4.83,0,0,0-.59.17h0v-.59l.49-.11a4.72,4.72,0,0,1,.64,0,3,3,0,0,1,.64.06,1.19,1.19,0,0,1,.47.21.73.73,0,0,1,.3.37,1.33,1.33,0,0,1,.11.56Zm-.59-.85v-1l-.63,0a3.1,3.1,0,0,0-.57.09,1,1,0,0,0-.41.23.57.57,0,0,0-.16.41.55.55,0,0,0,.18.45.89.89,0,0,0,.56.15,1.31,1.31,0,0,0,.56-.12A2.43,2.43,0,0,0,26.81,50.31Z" transform="translate(-2.17 -3.08)"/><path class="cls-1" d="M31.59,49.4a2.13,2.13,0,0,1-.13.78,1.77,1.77,0,0,1-.33.59,1.82,1.82,0,0,1-.48.37,1.45,1.45,0,0,1-.59.12,1.57,1.57,0,0,1-.51-.07,2.44,2.44,0,0,1-.44-.19l0,.16h-.55V46.31h.59v1.74a2.45,2.45,0,0,1,.52-.34,1.61,1.61,0,0,1,.63-.12,1.14,1.14,0,0,1,1,.47A2.18,2.18,0,0,1,31.59,49.4Zm-.61,0a1.83,1.83,0,0,0-.2-.94.73.73,0,0,0-.67-.33,1.34,1.34,0,0,0-.51.11,2.18,2.18,0,0,0-.49.29v2a2.36,2.36,0,0,0,.43.16,1.64,1.64,0,0,0,.4,0,1,1,0,0,0,.77-.32A1.51,1.51,0,0,0,31,49.41Z" transform="translate(-2.17 -3.08)"/><path class="cls-1" d="M23.88,72l-.31.14a2.93,2.93,0,0,1-.37.14,3.52,3.52,0,0,1-.41.1,2.49,2.49,0,0,1-.49,0,2.69,2.69,0,0,1-.92-.14,1.92,1.92,0,0,1-.72-.44,2,2,0,0,1-.46-.75,3.39,3.39,0,0,1,0-2.09,2,2,0,0,1,.47-.76,1.72,1.72,0,0,1,.71-.46,2.52,2.52,0,0,1,.93-.16,3.2,3.2,0,0,1,.75.09,4.12,4.12,0,0,1,.83.31v.74h-.05a2.76,2.76,0,0,0-.76-.47,2.16,2.16,0,0,0-.81-.15,1.61,1.61,0,0,0-.63.12,1.33,1.33,0,0,0-.51.35,1.68,1.68,0,0,0-.33.59,2.57,2.57,0,0,0-.12.82,2.41,2.41,0,0,0,.13.85,1.76,1.76,0,0,0,.34.57,1.43,1.43,0,0,0,.51.34,1.84,1.84,0,0,0,.62.11,2.31,2.31,0,0,0,.83-.15,2.36,2.36,0,0,0,.73-.46h.05Z" transform="translate(-2.17 -3.08)"/><path class="cls-1" d="M27.41,72.33h-.59V72l-.21.15a1.74,1.74,0,0,1-.26.15,1.27,1.27,0,0,1-.33.12,2,2,0,0,1-.45.05,1.09,1.09,0,0,1-.79-.32,1,1,0,0,1-.33-.79,1.05,1.05,0,0,1,.17-.64,1.18,1.18,0,0,1,.48-.39,3,3,0,0,1,.77-.19l.95-.07v-.09a.67.67,0,0,0-.07-.33.45.45,0,0,0-.2-.21.82.82,0,0,0-.3-.09,2.1,2.1,0,0,0-.36,0,2.52,2.52,0,0,0-.52.06,3.49,3.49,0,0,0-.58.18h0v-.6l.49-.1a3.52,3.52,0,0,1,.64,0,3,3,0,0,1,.64.06A1.34,1.34,0,0,1,27,69a1,1,0,0,1,.3.37,1.38,1.38,0,0,1,.11.57Zm-.59-.86v-1l-.63,0a3.1,3.1,0,0,0-.57.09,1,1,0,0,0-.41.22.54.54,0,0,0-.16.42.55.55,0,0,0,.18.45.87.87,0,0,0,.56.15,1.31,1.31,0,0,0,.56-.12A2.47,2.47,0,0,0,26.82,71.47Z" transform="translate(-2.17 -3.08)"/><path class="cls-1" d="M31.6,70.55a2.34,2.34,0,0,1-.13.77,1.63,1.63,0,0,1-.34.59,1.42,1.42,0,0,1-1.07.49,1.83,1.83,0,0,1-.49-.06,1.73,1.73,0,0,1-.45-.19v1.46h-.59V68.85h.59v.36a2.3,2.3,0,0,1,.52-.33,1.65,1.65,0,0,1,.63-.13,1.16,1.16,0,0,1,1,.48A2.18,2.18,0,0,1,31.6,70.55Zm-.61,0a1.7,1.7,0,0,0-.21-.94.76.76,0,0,0-.66-.31,1.34,1.34,0,0,0-.51.11,2,2,0,0,0-.49.29v2a2.8,2.8,0,0,0,.43.15,1.64,1.64,0,0,0,.4,0,1,1,0,0,0,.77-.33A1.53,1.53,0,0,0,31,70.56Z" transform="translate(-2.17 -3.08)"/><path class="cls-1" d="M35,71.33a1,1,0,0,1-.39.78,1.73,1.73,0,0,1-1.08.3,2.71,2.71,0,0,1-.71-.09,3.65,3.65,0,0,1-.54-.2v-.66h0a2.25,2.25,0,0,0,.61.33,1.79,1.79,0,0,0,.65.13,1.18,1.18,0,0,0,.61-.13.42.42,0,0,0,.22-.39.39.39,0,0,0-.12-.31,1.08,1.08,0,0,0-.46-.18l-.32-.07a3,3,0,0,1-.37-.08,1.29,1.29,0,0,1-.65-.35.88.88,0,0,1-.19-.58,1,1,0,0,1,.09-.41,1.07,1.07,0,0,1,.27-.34,1.4,1.4,0,0,1,.44-.23,1.9,1.9,0,0,1,.6-.08,2.85,2.85,0,0,1,.64.07,2,2,0,0,1,.53.19v.62h0a2.36,2.36,0,0,0-.55-.28,2,2,0,0,0-.63-.11,1.13,1.13,0,0,0-.54.12.41.41,0,0,0-.22.37.38.38,0,0,0,.13.32.91.91,0,0,0,.43.18l.36.08.33.06a1.18,1.18,0,0,1,.63.33A.82.82,0,0,1,35,71.33Z" transform="translate(-2.17 -3.08)"/><path class="cls-1" d="M38.81,72.33H35.88V67.69h.62v4.09h2.31Z" transform="translate(-2.17 -3.08)"/><path class="cls-1" d="M42.35,70.59a1.93,1.93,0,0,1-.44,1.34,1.62,1.62,0,0,1-2.34,0,2.3,2.3,0,0,1,0-2.68,1.62,1.62,0,0,1,2.34,0A2,2,0,0,1,42.35,70.59Zm-.6,0a1.55,1.55,0,0,0-.27-1,1,1,0,0,0-1.47,0,2,2,0,0,0,0,2,.86.86,0,0,0,.74.34.89.89,0,0,0,.73-.33A1.59,1.59,0,0,0,41.75,70.59Z" transform="translate(-2.17 -3.08)"/><path class="cls-1" d="M45.83,72.11a4,4,0,0,1-.56.22,2,2,0,0,1-.56.08A2.17,2.17,0,0,1,44,72.3a1.5,1.5,0,0,1-.54-.34,1.49,1.49,0,0,1-.35-.57,2.36,2.36,0,0,1-.12-.8,1.83,1.83,0,0,1,.47-1.34,1.63,1.63,0,0,1,1.23-.48,2.33,2.33,0,0,1,.59.08,3.66,3.66,0,0,1,.53.21v.65h0a2.07,2.07,0,0,0-.55-.32,1.43,1.43,0,0,0-.56-.11,1,1,0,0,0-.79.33,1.78,1.78,0,0,0,0,2,1,1,0,0,0,.79.34,1.49,1.49,0,0,0,.36-.05,1.61,1.61,0,0,0,.33-.12,1.38,1.38,0,0,0,.24-.14l.18-.12h0Z" transform="translate(-2.17 -3.08)"/><path class="cls-1" d="M49.74,72.33H49l-1.4-1.52-.38.36v1.16h-.58V67.48h.58v3.11l1.69-1.74h.74L48,70.46Z" transform="translate(-2.17 -3.08)"/><path class="cls-1" d="M23.23,92.89a1.32,1.32,0,0,1-.12.54,1.55,1.55,0,0,1-.36.45,2,2,0,0,1-.58.31,2.66,2.66,0,0,1-.8.11,4.16,4.16,0,0,1-.9-.09,4.33,4.33,0,0,1-.81-.28v-.77h0a2.65,2.65,0,0,0,.81.45,2.6,2.6,0,0,0,.87.16,1.52,1.52,0,0,0,.89-.22.66.66,0,0,0,.32-.57.62.62,0,0,0-.15-.46A1,1,0,0,0,22,92.3l-.51-.11c-.18,0-.37-.06-.57-.1a1.73,1.73,0,0,1-.92-.44,1.18,1.18,0,0,1-.3-.83,1.13,1.13,0,0,1,.5-.95,2,2,0,0,1,1.24-.38,3.59,3.59,0,0,1,.9.1,4.07,4.07,0,0,1,.72.23v.73h0a2.26,2.26,0,0,0-.69-.38,3,3,0,0,0-.89-.14,1.42,1.42,0,0,0-.79.2.63.63,0,0,0-.3.53.7.7,0,0,0,.14.46,1,1,0,0,0,.53.25l.57.1.62.13a1.53,1.53,0,0,1,.78.42A1.09,1.09,0,0,1,23.23,92.89Z" transform="translate(-2.17 -3.08)"/><path class="cls-1" d="M27.09,94.22H26.5v-2a3.19,3.19,0,0,0,0-.45.86.86,0,0,0-.1-.33.47.47,0,0,0-.22-.2,1.07,1.07,0,0,0-.39-.06,1.22,1.22,0,0,0-.5.12,2.88,2.88,0,0,0-.5.3v2.6h-.58V89.37h.58v1.75a2.14,2.14,0,0,1,.57-.35,1.38,1.38,0,0,1,.6-.13,1.07,1.07,0,0,1,.86.34,1.44,1.44,0,0,1,.3,1Z" transform="translate(-2.17 -3.08)"/><path class="cls-1" d="M28.84,90.15h-.66v-.6h.66Zm0,4.07h-.59V90.74h.59Z" transform="translate(-2.17 -3.08)"/><path class="cls-1" d="M31.84,89.94h0l-.26-.06-.27,0a.74.74,0,0,0-.55.17.84.84,0,0,0-.17.6v.12h1.06v.49h-1v3H30v-3h-.4v-.49H30v-.12a1.37,1.37,0,0,1,.3-1,1.19,1.19,0,0,1,.9-.33,1.94,1.94,0,0,1,.35,0l.29,0Z" transform="translate(-2.17 -3.08)"/><path class="cls-1" d="M34,94.19l-.36.07-.34,0A1.07,1.07,0,0,1,32.5,94a1.27,1.27,0,0,1-.28-.92V91.23h-.4v-.49h.4v-1h.59v1H34v.49h-1.2v1.58c0,.19,0,.33,0,.43a.7.7,0,0,0,.09.29.35.35,0,0,0,.18.18.89.89,0,0,0,.37.06,1.08,1.08,0,0,0,.3,0l.22-.07h0Z" transform="translate(-2.17 -3.08)"/><path class="cls-1" d="M23.93,115.33l-.31.14a2.26,2.26,0,0,1-.36.14,2.73,2.73,0,0,1-.41.1,2.6,2.6,0,0,1-.5,0,2.63,2.63,0,0,1-.91-.14,1.78,1.78,0,0,1-.72-.44,2,2,0,0,1-.47-.75,3.14,3.14,0,0,1-.17-1.06,3,3,0,0,1,.17-1,2,2,0,0,1,.46-.76,1.93,1.93,0,0,1,.72-.46,2.52,2.52,0,0,1,.93-.16,3.06,3.06,0,0,1,.74.09,3.5,3.5,0,0,1,.83.32v.73h-.05a2.5,2.5,0,0,0-.76-.47,2.15,2.15,0,0,0-.8-.15,1.62,1.62,0,0,0-.64.12,1.38,1.38,0,0,0-.5.35,1.68,1.68,0,0,0-.33.59,2.59,2.59,0,0,0-.12.83,2.39,2.39,0,0,0,.13.84,1.76,1.76,0,0,0,.34.57,1.27,1.27,0,0,0,.51.34,1.57,1.57,0,0,0,.61.11,2.32,2.32,0,0,0,.84-.15,2.29,2.29,0,0,0,.73-.46h0Z" transform="translate(-2.17 -3.08)"/><path class="cls-1" d="M26.56,115.64l-.36.07-.34,0a1.07,1.07,0,0,1-.81-.29,1.25,1.25,0,0,1-.28-.92v-1.85h-.4v-.49h.4v-1h.58v1h1.21v.49H25.35v1.59c0,.18,0,.32,0,.43a.75.75,0,0,0,.09.29.39.39,0,0,0,.18.18.89.89,0,0,0,.37.06,1.17,1.17,0,0,0,.3,0,1,1,0,0,0,.22-.07h0Z" transform="translate(-2.17 -3.08)"/><path class="cls-1" d="M29.44,112.83h0l-.25,0h-.29a1.24,1.24,0,0,0-.53.12,2.07,2.07,0,0,0-.48.31v2.47h-.59v-3.48h.59v.52a2.73,2.73,0,0,1,.61-.4,1.33,1.33,0,0,1,.55-.12h.22l.2,0Z" transform="translate(-2.17 -3.08)"/><path class="cls-1" d="M30.59,115.67H30v-4.85h.59Z" transform="translate(-2.17 -3.08)"/><path class="cls-1" d="M361.14,115.33l-.31.14a2.26,2.26,0,0,1-.36.14,2.46,2.46,0,0,1-.41.1,2.49,2.49,0,0,1-.49,0,2.65,2.65,0,0,1-.92-.14,1.78,1.78,0,0,1-.72-.44,2.18,2.18,0,0,1-.47-.75,3.15,3.15,0,0,1-.16-1.06,3,3,0,0,1,.16-1,2.15,2.15,0,0,1,.46-.76,1.93,1.93,0,0,1,.72-.46,2.52,2.52,0,0,1,.93-.16,3.2,3.2,0,0,1,.75.09,3.61,3.61,0,0,1,.82.32v.73h0a2.76,2.76,0,0,0-.76-.47,2.2,2.2,0,0,0-.81-.15,1.54,1.54,0,0,0-.63.12,1.33,1.33,0,0,0-.51.35,1.68,1.68,0,0,0-.33.59,2.59,2.59,0,0,0-.12.83,2.39,2.39,0,0,0,.13.84,1.76,1.76,0,0,0,.34.57,1.43,1.43,0,0,0,.51.34,1.59,1.59,0,0,0,.62.11,2.24,2.24,0,0,0,1.56-.61h0Z" transform="translate(-2.17 -3.08)"/><path class="cls-1" d="M363.78,115.64l-.36.07-.35,0a1.07,1.07,0,0,1-.81-.29,1.25,1.25,0,0,1-.28-.92v-1.85h-.39v-.49H362v-1h.59v1h1.21v.49h-1.21v1.59c0,.18,0,.32,0,.43a.75.75,0,0,0,.09.29.39.39,0,0,0,.18.18.89.89,0,0,0,.37.06,1,1,0,0,0,.3,0,1,1,0,0,0,.22-.07h0Z" transform="translate(-2.17 -3.08)"/><path class="cls-1" d="M366.65,112.83h0l-.25,0h-.29a1.24,1.24,0,0,0-.53.12,2.3,2.3,0,0,0-.48.31v2.47h-.59v-3.48h.59v.52a3,3,0,0,1,.61-.4,1.33,1.33,0,0,1,.55-.12h.22l.2,0Z" transform="translate(-2.17 -3.08)"/><path class="cls-1" d="M367.8,115.67h-.59v-4.85h.59Z" transform="translate(-2.17 -3.08)"/><path class="cls-1" d="M271.76,115.58h-.65l-.46-1.29h-2l-.46,1.29h-.63l1.69-4.64h.83Zm-1.3-1.82-.81-2.28-.82,2.28Z" transform="translate(-2.17 -3.08)"/><path class="cls-1" d="M273,115.58h-.58v-4.84H273Z" transform="translate(-2.17 -3.08)"/><path class="cls-1" d="M276,115.55l-.36.07-.35,0a1.06,1.06,0,0,1-.81-.29,1.29,1.29,0,0,1-.27-.91V112.6h-.4v-.5h.4v-1h.58v1H276v.5h-1.21v1.58c0,.18,0,.33,0,.43a.75.75,0,0,0,.09.29.47.47,0,0,0,.19.18.84.84,0,0,0,.36.06,1.54,1.54,0,0,0,.3,0L276,115h0Z" transform="translate(-2.17 -3.08)"/><path class="cls-1" d="M96,115.58h-.66l-.45-1.29h-2l-.45,1.29h-.63l1.69-4.64h.82Zm-1.3-1.82-.82-2.28-.81,2.28Z" transform="translate(-2.17 -3.08)"/><path class="cls-1" d="M97.29,115.58H96.7v-4.84h.59Z" transform="translate(-2.17 -3.08)"/><path class="cls-1" d="M100.25,115.55l-.36.07-.34,0a1,1,0,0,1-.81-.29,1.24,1.24,0,0,1-.28-.91V112.6h-.4v-.5h.4v-1H99v1h1.21v.5H99v1.58c0,.18,0,.33,0,.43a.75.75,0,0,0,.09.29.39.39,0,0,0,.18.18.89.89,0,0,0,.37.06,1.77,1.77,0,0,0,.3,0l.22-.07h0Z" transform="translate(-2.17 -3.08)"/><path class="cls-1" d="M315.72,92.89a1.25,1.25,0,0,1-.13.53,1.3,1.3,0,0,1-.35.45,1.66,1.66,0,0,1-.59.31,2.3,2.3,0,0,1-.79.12,4.15,4.15,0,0,1-.91-.1,4.81,4.81,0,0,1-.81-.27v-.78h0a2.43,2.43,0,0,0,.82.45,2.5,2.5,0,0,0,.86.16,1.6,1.6,0,0,0,.89-.21.66.66,0,0,0,.32-.57.62.62,0,0,0-.15-.46,1,1,0,0,0-.46-.23c-.15,0-.32-.07-.5-.1l-.58-.1a1.77,1.77,0,0,1-.92-.45,1.19,1.19,0,0,1-.29-.82,1.15,1.15,0,0,1,.49-1,2,2,0,0,1,1.25-.37,4.29,4.29,0,0,1,.9.09,4.07,4.07,0,0,1,.72.23v.73h0a2,2,0,0,0-.69-.37,2.67,2.67,0,0,0-.88-.15,1.36,1.36,0,0,0-.8.21.61.61,0,0,0-.3.53.64.64,0,0,0,.15.45.94.94,0,0,0,.52.25l.57.11a5.07,5.07,0,0,1,.62.13,1.6,1.6,0,0,1,.78.41A1.09,1.09,0,0,1,315.72,92.89Z" transform="translate(-2.17 -3.08)"/><path class="cls-1" d="M319.57,94.21H319v-2c0-.16,0-.31,0-.45a.85.85,0,0,0-.11-.33.41.41,0,0,0-.22-.19.86.86,0,0,0-.38-.07,1.18,1.18,0,0,0-.5.12,2.29,2.29,0,0,0-.5.3v2.6h-.59V89.36h.59v1.76a2.65,2.65,0,0,1,.56-.36,1.61,1.61,0,0,1,.6-.12,1.05,1.05,0,0,1,.86.34,1.41,1.41,0,0,1,.3,1Z" transform="translate(-2.17 -3.08)"/><path class="cls-1" d="M321.33,90.15h-.66v-.61h.66Zm0,4.06h-.59V90.73h.59Z" transform="translate(-2.17 -3.08)"/><path class="cls-1" d="M324.32,89.93h0l-.25-.06-.28,0a.74.74,0,0,0-.54.17.8.8,0,0,0-.17.6v.12h1.05v.49h-1v3h-.58v-3h-.4v-.49h.4v-.11a1.31,1.31,0,0,1,.31-1,1.12,1.12,0,0,1,.89-.34l.35,0,.29.05Z" transform="translate(-2.17 -3.08)"/><path class="cls-1" d="M326.5,94.18l-.36.07-.35,0A1.06,1.06,0,0,1,325,94a1.3,1.3,0,0,1-.28-.92V91.22h-.39v-.49h.39v-1h.59v1h1.21v.49h-1.21v1.59c0,.18,0,.33,0,.43a.75.75,0,0,0,.09.29.41.41,0,0,0,.19.18.84.84,0,0,0,.36.06,1,1,0,0,0,.3,0,1.07,1.07,0,0,0,.23-.07h0Z" transform="translate(-2.17 -3.08)"/><path class="cls-1" d="M363.54,72.61h-3.06V68h3.06v.55H361.1v1.27h2.44v.55H361.1v1.72h2.44Z" transform="translate(-2.17 -3.08)"/><path class="cls-1" d="M367.38,72.61h-.59v-2a3.19,3.19,0,0,0,0-.45.86.86,0,0,0-.1-.33.51.51,0,0,0-.22-.19,1,1,0,0,0-.38-.07,1.26,1.26,0,0,0-.51.12,2.42,2.42,0,0,0-.5.31v2.59h-.58V69.13h.58v.39a2.71,2.71,0,0,1,.57-.36,1.57,1.57,0,0,1,.6-.12,1.07,1.07,0,0,1,.86.34,1.41,1.41,0,0,1,.3,1Z" transform="translate(-2.17 -3.08)"/><path class="cls-1" d="M370.31,72.58a1.91,1.91,0,0,1-.36.07l-.35,0a1.09,1.09,0,0,1-.81-.28,1.33,1.33,0,0,1-.27-.92V69.63h-.4v-.5h.4v-1h.58v1h1.21v.5H369.1v1.58c0,.18,0,.33,0,.43a.6.6,0,0,0,.08.29.47.47,0,0,0,.19.18.86.86,0,0,0,.37.06,1.77,1.77,0,0,0,.3,0l.22-.07h0Z" transform="translate(-2.17 -3.08)"/><path class="cls-1" d="M373.93,70.93h-2.56a1.57,1.57,0,0,0,.09.56,1.1,1.1,0,0,0,.65.62,1.57,1.57,0,0,0,.49.07,1.84,1.84,0,0,0,.72-.14,1.65,1.65,0,0,0,.51-.28h0v.64a6.08,6.08,0,0,1-.6.21,2.32,2.32,0,0,1-.65.08,1.86,1.86,0,0,1-1.35-.46,1.77,1.77,0,0,1-.49-1.34,1.9,1.9,0,0,1,.47-1.35,1.57,1.57,0,0,1,1.22-.5,1.39,1.39,0,0,1,1.09.41,1.66,1.66,0,0,1,.38,1.17Zm-.57-.44a1.05,1.05,0,0,0-.23-.72.89.89,0,0,0-.7-.25,1,1,0,0,0-.75.28,1.05,1.05,0,0,0-.31.69Z" transform="translate(-2.17 -3.08)"/><path class="cls-1" d="M377,69.77h0l-.25,0-.3,0a1.2,1.2,0,0,0-.52.12,2.46,2.46,0,0,0-.48.31v2.47h-.59V69.13h.59v.52a2.73,2.73,0,0,1,.61-.4,1.32,1.32,0,0,1,.54-.12h.23l.2,0Z" transform="translate(-2.17 -3.08)"/><path class="cls-1" d="M371.85,91.75a2.44,2.44,0,0,1-.27,1.15,2.12,2.12,0,0,1-.74.8,2.24,2.24,0,0,1-.71.28,4.73,4.73,0,0,1-1,.09h-1.17V89.43h1.16a4.5,4.5,0,0,1,1.08.1,2.1,2.1,0,0,1,.68.27,2.05,2.05,0,0,1,.74.78A2.52,2.52,0,0,1,371.85,91.75Zm-.64,0a2.12,2.12,0,0,0-.19-.92,1.44,1.44,0,0,0-.57-.58,1.78,1.78,0,0,0-.58-.22,4,4,0,0,0-.74-.06h-.58v3.58h.58a3.58,3.58,0,0,0,.78-.07,1.69,1.69,0,0,0,.61-.24,1.36,1.36,0,0,0,.51-.58A2,2,0,0,0,371.21,91.74Z" transform="translate(-2.17 -3.08)"/><path class="cls-1" d="M375.72,92.39h-2.57a1.4,1.4,0,0,0,.1.56,1,1,0,0,0,.26.39,1.07,1.07,0,0,0,.39.22,1.53,1.53,0,0,0,.49.08,2,2,0,0,0,.71-.14,2.16,2.16,0,0,0,.52-.28h0v.64a4.35,4.35,0,0,1-.61.2,2.27,2.27,0,0,1-.65.09,1.9,1.9,0,0,1-1.35-.47,1.78,1.78,0,0,1-.48-1.33A1.93,1.93,0,0,1,373,91a1.61,1.61,0,0,1,1.23-.5,1.4,1.4,0,0,1,1.08.41,1.65,1.65,0,0,1,.39,1.17Zm-.57-.45a1,1,0,0,0-.24-.71.88.88,0,0,0-.69-.26,1,1,0,0,0-.75.28,1.11,1.11,0,0,0-.32.69Z" transform="translate(-2.17 -3.08)"/><path class="cls-1" d="M377.2,94.07h-.59V89.22h.59Z" transform="translate(-2.17 -3.08)"/><path class="cls-1" d="M259.26,119.13H119.76a3.39,3.39,0,0,1-3.39-3.39V101.16a3.38,3.38,0,0,1,3.39-3.38h139.5a3.38,3.38,0,0,1,3.39,3.38v14.58A3.39,3.39,0,0,1,259.26,119.13ZM119.76,98.78a2.38,2.38,0,0,0-2.39,2.38v14.58a2.39,2.39,0,0,0,2.39,2.39h139.5a2.39,2.39,0,0,0,2.39-2.39V101.16a2.38,2.38,0,0,0-2.39-2.38Z" transform="translate(-2.17 -3.08)"/><path class="cls-1" d="M314.26,64.3,314,67.24h-.69l-.22-2.94Z" transform="translate(-2.17 -3.08)"/><path class="cls-1" d="M289.81,63.91l-.25,1.94h-.73l-.25-1.94Z" transform="translate(-2.17 -3.08)"/><path class="cls-1" d="M38.29,16.85a3.08,3.08,0,0,1-.08.68,1.79,1.79,0,0,1-.23.6,1.36,1.36,0,0,1-.39.43,1,1,0,0,1-.58.15,1.28,1.28,0,0,1-.59-.13,2.19,2.19,0,0,1-.55-.5,3.18,3.18,0,0,0-.52-.55.55.55,0,0,0-.84.19,2.3,2.3,0,0,0-.21,1h-.59a5.2,5.2,0,0,1,.08-.69,2.27,2.27,0,0,1,.23-.6,1.31,1.31,0,0,1,.39-.42,1,1,0,0,1,.58-.16,1.25,1.25,0,0,1,.59.14,1.88,1.88,0,0,1,.56.5,3.44,3.44,0,0,0,.46.5.57.57,0,0,0,.92-.19,2.14,2.14,0,0,0,.18-.95Z" transform="translate(-2.17 -3.08)"/><path class="cls-1" d="M60.78,15.17,60.69,19h-.6L60,15.17Zm0,5.23H60v-.74h.71Z" transform="translate(-2.17 -3.08)"/><path class="cls-1" d="M87.59,18.37a3.36,3.36,0,0,1-.14.95,3.06,3.06,0,0,1-.41.83H85.5l-.1-.41a2.69,2.69,0,0,1-.5.33,1.35,1.35,0,0,1-.55.11,1.14,1.14,0,0,1-.94-.45,1.94,1.94,0,0,1-.35-1.25,1.81,1.81,0,0,1,.43-1.27,1.36,1.36,0,0,1,1-.47,1.65,1.65,0,0,1,.46.06,1.76,1.76,0,0,1,.42.17V16.8H86v3h.85A2.22,2.22,0,0,0,87,19.1a3.78,3.78,0,0,0,.07-.71,3.11,3.11,0,0,0-.16-1,2,2,0,0,0-.47-.81,2,2,0,0,0-.76-.52,2.84,2.84,0,0,0-1-.18,2.48,2.48,0,0,0-1.83.75,2.58,2.58,0,0,0-.53.82,3,3,0,0,0,0,2.08,2.6,2.6,0,0,0,.52.83,2.37,2.37,0,0,0,.82.53,2.8,2.8,0,0,0,1,.18,4.4,4.4,0,0,0,.62,0,3.09,3.09,0,0,0,.62-.12v.5a5.59,5.59,0,0,1-.64.1,6.08,6.08,0,0,1-.61,0,3.22,3.22,0,0,1-1.21-.23,2.84,2.84,0,0,1-1-.62,2.81,2.81,0,0,1-.63-1,3.35,3.35,0,0,1-.22-1.25,3,3,0,0,1,.88-2.19,3,3,0,0,1,1-.64,3,3,0,0,1,1.2-.24,3.37,3.37,0,0,1,1.23.22,2.65,2.65,0,0,1,.91.61,2.59,2.59,0,0,1,.57.95A3.45,3.45,0,0,1,87.59,18.37Zm-2.2.9V17.45A2.18,2.18,0,0,0,85,17.3a1.58,1.58,0,0,0-.38,0,.86.86,0,0,0-.71.31,1.4,1.4,0,0,0-.26.9,1.49,1.49,0,0,0,.21.87.7.7,0,0,0,.63.29,1.05,1.05,0,0,0,.48-.11A1.94,1.94,0,0,0,85.39,19.27Z" transform="translate(-2.17 -3.08)"/><path class="cls-1" d="M111.44,17.7h-1.17L110,19H111v.48h-1.2L109.46,21H109l.36-1.48h-1L108.06,21h-.46L108,19.5h-1V19h1.17l.33-1.32h-1.09v-.48h1.21l.37-1.48h.45L109,17.22h1l.37-1.48h.46l-.37,1.48h1Zm-1.61,0h-1L108.54,19h1Z" transform="translate(-2.17 -3.08)"/><path class="cls-1" d="M135.3,19.52a1.12,1.12,0,0,1-.43.9,1.92,1.92,0,0,1-1.11.43v1.27h-.42V20.87a4.07,4.07,0,0,1-.87-.09,3,3,0,0,1-.7-.23v-.69h0l.24.14.34.15a3,3,0,0,0,.42.13,3,3,0,0,0,.52.07V18.83l-.26-.06-.22-.05a1.56,1.56,0,0,1-.82-.44,1,1,0,0,1-.25-.71,1.13,1.13,0,0,1,.41-.88,1.9,1.9,0,0,1,1.14-.42v-1h.42v1a4.69,4.69,0,0,1,.73.09,3.33,3.33,0,0,1,.62.18v.68h-.05a4.73,4.73,0,0,0-.55-.28,2.33,2.33,0,0,0-.75-.16v1.52l.23,0,.21.05a1.71,1.71,0,0,1,.81.39A1,1,0,0,1,135.3,19.52Zm-2-1.29V16.78a1.15,1.15,0,0,0-.63.2.57.57,0,0,0-.25.5.59.59,0,0,0,.19.48A1.87,1.87,0,0,0,133.34,18.23Zm1.3,1.38a.55.55,0,0,0-.21-.48,1.59,1.59,0,0,0-.67-.25v1.46a1.35,1.35,0,0,0,.65-.21A.63.63,0,0,0,134.64,19.61Z" transform="translate(-2.17 -3.08)"/><path class="cls-1" d="M157.15,16.83a1.74,1.74,0,0,1-.33,1.17,1.39,1.39,0,0,1-1.93,0,1.73,1.73,0,0,1-.32-1.16,1.74,1.74,0,0,1,.33-1.17,1.38,1.38,0,0,1,1.92,0A1.75,1.75,0,0,1,157.15,16.83Zm-.63,0a1.69,1.69,0,0,0-.15-.84.58.58,0,0,0-.51-.24.55.55,0,0,0-.51.24,1.59,1.59,0,0,0-.16.85,1.57,1.57,0,0,0,.16.84.55.55,0,0,0,.51.24.58.58,0,0,0,.51-.24A1.71,1.71,0,0,0,156.52,16.83Zm3.06-1.45-2.74,5.23h-.58L159,15.38Zm1.69,3.78a1.74,1.74,0,0,1-.34,1.17,1.38,1.38,0,0,1-1.92,0,1.76,1.76,0,0,1-.33-1.16A1.74,1.74,0,0,1,159,18a1.21,1.21,0,0,1,1-.39,1.19,1.19,0,0,1,1,.39A1.73,1.73,0,0,1,161.27,19.16Zm-.63,0a1.57,1.57,0,0,0-.16-.84.55.55,0,0,0-.5-.24.58.58,0,0,0-.52.24,1.71,1.71,0,0,0-.15.85,1.69,1.69,0,0,0,.15.84.58.58,0,0,0,.52.24.55.55,0,0,0,.5-.24A1.59,1.59,0,0,0,160.64,19.16Z" transform="translate(-2.17 -3.08)"/><path class="cls-1" d="M184.52,18h-.69l-1.6-2.2-1.6,2.21h-.69L182,15.21h.44Z" transform="translate(-2.17 -3.08)"/><path class="cls-1" d="M208.56,17.49v.34a3.71,3.71,0,0,1-.09.76,2.86,2.86,0,0,1-.3.8l1.33,1.3h-.86l-.81-.79a2.46,2.46,0,0,1-.82.7,2.12,2.12,0,0,1-.87.2,1.8,1.8,0,0,1-1.22-.43,1.44,1.44,0,0,1-.48-1.12,1.57,1.57,0,0,1,.09-.56,2,2,0,0,1,.21-.41,2.27,2.27,0,0,1,.31-.31,2.68,2.68,0,0,1,.37-.25,2,2,0,0,1-.56-.51,1.18,1.18,0,0,1-.17-.65,1,1,0,0,1,.1-.45,1.25,1.25,0,0,1,.27-.39,1.36,1.36,0,0,1,.46-.27,1.81,1.81,0,0,1,.63-.11,1.53,1.53,0,0,1,1,.31,1,1,0,0,1,.38.78,2.5,2.5,0,0,1,0,.35,1,1,0,0,1-.15.35,1.24,1.24,0,0,1-.32.33,1.7,1.7,0,0,1-.54.27L207.77,19a1.29,1.29,0,0,0,.07-.31,2,2,0,0,0,0-.35c0-.13,0-.27,0-.44s0-.3,0-.41Zm-1.06,2.09-1.68-1.64-.22.14a2.49,2.49,0,0,0-.22.23,1.53,1.53,0,0,0-.16.34,1.4,1.4,0,0,0-.06.43,1.16,1.16,0,0,0,.3.83,1.11,1.11,0,0,0,.85.31,1.39,1.39,0,0,0,.65-.16A1.24,1.24,0,0,0,207.5,19.58Zm-.68-3.08a.69.69,0,0,0-.2-.52.69.69,0,0,0-.51-.2.73.73,0,0,0-.53.22.76.76,0,0,0-.2.53.86.86,0,0,0,.14.47,2.1,2.1,0,0,0,.6.48,1.06,1.06,0,0,0,.52-.36A1,1,0,0,0,206.82,16.5Z" transform="translate(-2.17 -3.08)"/><path class="cls-1" d="M232.77,17.09l-.22.39-1.28-.75,0,1.26h-.45l0-1.26-1.27.75-.23-.39,1.34-.73-1.34-.72.23-.39,1.27.75,0-1.26h.45l0,1.26,1.28-.75.22.39-1.34.72Z" transform="translate(-2.17 -3.08)"/><path class="cls-1" d="M256.51,22.18h-.81a5.8,5.8,0,0,1-1-1.56,5.48,5.48,0,0,1,0-3.8,5.51,5.51,0,0,1,1-1.56h.81v0a4.61,4.61,0,0,0-.55.6,4.74,4.74,0,0,0-.48.78,5.05,5.05,0,0,0-.34.95,4.36,4.36,0,0,0-.13,1.1,4.2,4.2,0,0,0,.13,1.1,5.11,5.11,0,0,0,.34.95,4.28,4.28,0,0,0,.48.78,5.36,5.36,0,0,0,.55.59Z" transform="translate(-2.17 -3.08)"/><path class="cls-1" d="M280.89,18.34a5,5,0,0,1-.35,1.9,5.76,5.76,0,0,1-1,1.56h-.81v0a5.36,5.36,0,0,0,.55-.59,4.65,4.65,0,0,0,.48-.78,5.11,5.11,0,0,0,.34-.95,4.25,4.25,0,0,0,.13-1.1,4.36,4.36,0,0,0-.13-1.1,5.05,5.05,0,0,0-.34-.95,4.74,4.74,0,0,0-.48-.78,4.61,4.61,0,0,0-.55-.6v0h.81a5.48,5.48,0,0,1,1,1.56A5,5,0,0,1,280.89,18.34Z" transform="translate(-2.17 -3.08)"/><path class="cls-1" d="M306.92,21.71h-4.6v-.42h4.6Z" transform="translate(-2.17 -3.08)"/><path class="cls-1" d="M331.09,18.41h-1.91v1.91h-.59V18.41h-1.91v-.57h1.91V15.93h.59v1.91h1.91Z" transform="translate(-2.17 -3.08)"/><path class="cls-1" d="M353.39,22.26h-.58V14.55h.58Z" transform="translate(-2.17 -3.08)"/><path class="cls-1" d="M314,43.57h-.53a1.44,1.44,0,0,1-1-.35,1.28,1.28,0,0,1-.39-1v-.52a1.38,1.38,0,0,0-.29-.93,1.15,1.15,0,0,0-.9-.34h-.17v-.54h.17a1.15,1.15,0,0,0,.9-.34,1.38,1.38,0,0,0,.29-.93v-.52a1.28,1.28,0,0,1,.39-1,1.44,1.44,0,0,1,1-.35H314v.48h-.4a1,1,0,0,0-.7.22,1,1,0,0,0-.21.72v.61a1.25,1.25,0,0,1-.27.82,1.85,1.85,0,0,1-.75.53v.08a1.85,1.85,0,0,1,.75.53,1.25,1.25,0,0,1,.27.82v.61a1,1,0,0,0,.21.72,1,1,0,0,0,.7.22h.4Z" transform="translate(-2.17 -3.08)"/><path class="cls-1" d="M338.3,40.39h-.18a1.13,1.13,0,0,0-.9.34,1.38,1.38,0,0,0-.29.93v.52a1.28,1.28,0,0,1-.39,1,1.44,1.44,0,0,1-1,.35H335v-.48h.4a1,1,0,0,0,.7-.22,1,1,0,0,0,.21-.72v-.61a1.25,1.25,0,0,1,.27-.82,1.82,1.82,0,0,1,.76-.53v-.08a1.82,1.82,0,0,1-.76-.53,1.25,1.25,0,0,1-.27-.82v-.62a1,1,0,0,0-.21-.71,1,1,0,0,0-.7-.22H335v-.49h.53a1.49,1.49,0,0,1,1,.35,1.3,1.3,0,0,1,.39,1v.52a1.38,1.38,0,0,0,.29.93,1.16,1.16,0,0,0,.9.33h.18Z" transform="translate(-2.17 -3.08)"/><path class="cls-1" d="M320.05,58.18l-.15,2h-.46l-.15-2Zm1.36,0-.15,2h-.46l-.16-2Z" transform="translate(-2.17 -3.08)"/><path class="cls-1" d="M295.35,59.2h-.7v-.69h.7Zm1.46,0h-.7v-.69h.7Z" transform="translate(-2.17 -3.08)"/><path class="cls-1" d="M257.54,85.13l-4.06-1.8v-.44l4.06-1.8v.63l-3.2,1.39,3.2,1.39Z" transform="translate(-2.17 -3.08)"/><path class="cls-1" d="M282.08,83.32,278,85.12v-.63l3.2-1.39L278,81.71v-.63l4.05,1.8Z" transform="translate(-2.17 -3.08)"/><path class="cls-1" d="M306,81.48a1.33,1.33,0,0,1-.13.61,1.75,1.75,0,0,1-.32.48,3.46,3.46,0,0,1-.45.38l-.55.34v.79h-.63V83l.5-.29a2.66,2.66,0,0,0,.43-.31,1.58,1.58,0,0,0,.32-.38,1.06,1.06,0,0,0,.11-.5.68.68,0,0,0-.27-.59,1.15,1.15,0,0,0-.69-.19,2.09,2.09,0,0,0-.72.12,2.32,2.32,0,0,0-.54.24h0v-.72a4.09,4.09,0,0,1,.62-.17,3.69,3.69,0,0,1,.72-.08,1.82,1.82,0,0,1,1.19.37A1.22,1.22,0,0,1,306,81.48Zm-1.39,4h-.72v-.74h.72Z" transform="translate(-2.17 -3.08)"/><path class="cls-1" d="M68.72,39.16h-.84v-1h.84Zm0,2.92h-.84v-1h.84Z" transform="translate(-2.17 -3.08)"/><path class="cls-1" d="M102.78,63.69H98.69v-.64l2.18-2.11-2.11-1.85v-.63h3.86v.62H99.69l2.06,1.78V61l-2.21,2.13h3.24Z" transform="translate(-2.17 -3.08)"/><path class="cls-1" d="M91.9,37.62h-.67v-.69h.67ZM93,36.31l-.17,1.35H92.4l-.18-1.35Zm1,1.31h-.67v-.69H94Z" transform="translate(-2.17 -3.08)"/><path class="cls-1" d="M89.58,49.52H83.7v-.93l3.13-3-3-2.66V42h5.55v.89H85.13l3,2.56v.13l-3.19,3.07h4.67Z" transform="translate(-2.17 -3.08)"/><path class="cls-1" d="M113.93,51.71h-5V44.17h5v.89h-4v2.07h4V48h-4v2.8h4Z" transform="translate(-2.17 -3.08)"/><path class="cls-1" d="M137.76,46.45a2.4,2.4,0,0,1-.17.93,2.33,2.33,0,0,1-.49.74,2.53,2.53,0,0,1-.92.58,3.9,3.9,0,0,1-1.34.2h-1v2.81h-1V44.17h2a5.4,5.4,0,0,1,1.15.11,2.71,2.71,0,0,1,.83.36,2,2,0,0,1,.67.72A2.23,2.23,0,0,1,137.76,46.45Zm-1,0a1.62,1.62,0,0,0-.13-.68,1.19,1.19,0,0,0-.42-.47,1.67,1.67,0,0,0-.55-.22,3.5,3.5,0,0,0-.79-.07h-1v3h.84a3.38,3.38,0,0,0,1-.11,1.49,1.49,0,0,0,.62-.34,1.42,1.42,0,0,0,.33-.52A1.61,1.61,0,0,0,136.72,46.47Z" transform="translate(-2.17 -3.08)"/><path class="cls-1" d="M161.11,42.33h-2.69V49h-1V42.33h-2.69v-.89h6.39Z" transform="translate(-2.17 -3.08)"/><path class="cls-1" d="M185.46,42l-2.65,4.23v3.31h-1v-3.2L179.14,42h1.11l2.06,3.37L184.39,42Z" transform="translate(-2.17 -3.08)"/><path class="cls-1" d="M209.23,42.85a3.42,3.42,0,0,1,.71,1.24,5.32,5.32,0,0,1,.24,1.66,5.1,5.1,0,0,1-.25,1.67,3.51,3.51,0,0,1-.7,1.23,3.13,3.13,0,0,1-1.1.77,3.87,3.87,0,0,1-1.45.26,3.78,3.78,0,0,1-1.45-.27,2.94,2.94,0,0,1-1.1-.76,3.38,3.38,0,0,1-.7-1.23,5.06,5.06,0,0,1-.25-1.67,5.3,5.3,0,0,1,.24-1.65,3.55,3.55,0,0,1,.71-1.25,2.9,2.9,0,0,1,1.11-.76,3.77,3.77,0,0,1,1.44-.27,3.71,3.71,0,0,1,1.45.27A3,3,0,0,1,209.23,42.85Zm-.09,2.9a3.44,3.44,0,0,0-.66-2.26,2.43,2.43,0,0,0-3.6,0,4.19,4.19,0,0,0,0,4.53,2.23,2.23,0,0,0,1.79.79,2.2,2.2,0,0,0,1.79-.79A3.38,3.38,0,0,0,209.14,45.75Zm-.87.16h-3.18V45h3.18Z" transform="translate(-2.17 -3.08)"/><path class="cls-1" d="M232.55,49.52h-3v-.77h1v-6h-1V42h3v.77h-1v6h1Z" transform="translate(-2.17 -3.08)"/><path class="cls-1" d="M260.09,41.12a3.49,3.49,0,0,1,.7,1.24A5,5,0,0,1,261,44a5.33,5.33,0,0,1-.25,1.67,3.51,3.51,0,0,1-.7,1.23,3,3,0,0,1-1.1.77,3.9,3.9,0,0,1-1.45.26,3.75,3.75,0,0,1-1.45-.27,3.06,3.06,0,0,1-1.11-.76,3.51,3.51,0,0,1-.7-1.23,5.86,5.86,0,0,1,0-3.32,3.49,3.49,0,0,1,.71-1.25,3,3,0,0,1,1.1-.76,3.85,3.85,0,0,1,1.45-.26,3.71,3.71,0,0,1,1.45.26A3.06,3.06,0,0,1,260.09,41.12ZM260,44a3.46,3.46,0,0,0-.66-2.26,2.22,2.22,0,0,0-1.8-.8,2.19,2.19,0,0,0-1.8.8,3.46,3.46,0,0,0-.66,2.26,3.43,3.43,0,0,0,.67,2.28,2.44,2.44,0,0,0,3.58,0A3.48,3.48,0,0,0,260,44Z" transform="translate(-2.17 -3.08)"/><path class="cls-1" d="M283.77,49.52h-1V42.87H279v6.65h-1V42h5.76Z" transform="translate(-2.17 -3.08)"/><path class="cls-1" d="M72.14,71H71.07l-.74-2.1H67.07L66.33,71h-1l2.75-7.53h1.33ZM70,68l-1.32-3.7L67.37,68Z" transform="translate(-2.17 -3.08)"/><path class="cls-1" d="M97.08,71H91.2v-.93l3.14-3-3-2.67v-.9h5.55v.89H92.64l3,2.56v.13l-3.18,3.06h4.66Z" transform="translate(-2.17 -3.08)"/><path class="cls-1" d="M120.39,71h-7l2.85-7.53h1.33ZM119,70.15l-2.19-5.8-2.18,5.8Z" transform="translate(-2.17 -3.08)"/><path class="cls-1" d="M145.15,68.68a3.33,3.33,0,0,1-.22,1.26,2.48,2.48,0,0,1-.63.91,3.1,3.1,0,0,1-1,.64,3.87,3.87,0,0,1-1.32.25v.84h-1v-.84a4.1,4.1,0,0,1-1.3-.24,3,3,0,0,1-1.06-.65,2.51,2.51,0,0,1-.63-.92,3.24,3.24,0,0,1-.22-1.25,3,3,0,0,1,.22-1.21,2.73,2.73,0,0,1,.6-.9,2.93,2.93,0,0,1,1-.65,4.23,4.23,0,0,1,1.37-.25v-.79h1v.79a3.75,3.75,0,0,1,1.37.26,2.87,2.87,0,0,1,1,.64,2.54,2.54,0,0,1,.6.9A3,3,0,0,1,145.15,68.68ZM140.94,71V66.45a2.56,2.56,0,0,0-.89.14,2,2,0,0,0-.66.42,1.88,1.88,0,0,0-.45.71,2.51,2.51,0,0,0-.17.92,3,3,0,0,0,.17,1,1.92,1.92,0,0,0,.49.76,2.09,2.09,0,0,0,.64.38A2.74,2.74,0,0,0,140.94,71Zm3.17-2.32a2.47,2.47,0,0,0-.16-.92,1.94,1.94,0,0,0-.46-.71,1.91,1.91,0,0,0-.65-.42,2.83,2.83,0,0,0-.9-.14V71a2.64,2.64,0,0,0,.87-.16,1.76,1.76,0,0,0,.64-.38,2,2,0,0,0,.5-.75A2.9,2.9,0,0,0,144.11,68.64Z" transform="translate(-2.17 -3.08)"/><path class="cls-1" d="M170.24,65.22h-3.87v6.65h-1V64.33h4.87Z" transform="translate(-2.17 -3.08)"/><path class="cls-1" d="M194.78,71.58h-1V67.89H190v3.69h-1V64h1v3h3.76V64h1Z" transform="translate(-2.17 -3.08)"/><path class="cls-1" d="M219.09,65h-5.57V64.1h5.57Zm0,6.65h-5.57v-.89h5.57ZM218.83,68h-5.05v-.89h5.05Z" transform="translate(-2.17 -3.08)"/><path class="cls-1" d="M244.09,71.64h-1.3l-3-3.36-.75.8v2.56h-1V64.1h1V68l3.66-3.93h1.21l-3.37,3.54Z" transform="translate(-2.17 -3.08)"/><path class="cls-1" d="M268.49,71.58h-1.08L265,65.08l-2.37,6.5h-1L264.46,64h1.21Z" transform="translate(-2.17 -3.08)"/><path class="cls-1" d="M81,93H75.13v-.94l4.62-5.71H75.3v-.89h5.6v.9l-4.67,5.74H81Z" transform="translate(-2.17 -3.08)"/><path class="cls-1" d="M105.7,85.48l-2.6,3.72L105.7,93h-1.16l-2.06-3.11L100.38,93h-1.1l2.63-3.77-2.57-3.77h1.16l2,3.06,2.07-3.06Z" transform="translate(-2.17 -3.08)"/><path class="cls-1" d="M130.54,88.12a3.73,3.73,0,0,1-.21,1.34,2,2,0,0,1-.59.88,2.65,2.65,0,0,1-1,.53,6,6,0,0,1-1.33.23v1.63h-1V91.1a6.06,6.06,0,0,1-1.35-.24,2.49,2.49,0,0,1-1-.52,2.26,2.26,0,0,1-.6-.89,3.67,3.67,0,0,1-.21-1.33V85.19h1v3a2.37,2.37,0,0,0,.15.91,1.45,1.45,0,0,0,.41.58,1.89,1.89,0,0,0,.66.35,3.75,3.75,0,0,0,.88.15v-5h1v5a5.49,5.49,0,0,0,.89-.15,1.74,1.74,0,0,0,.66-.35,1.49,1.49,0,0,0,.42-.58,2.52,2.52,0,0,0,.14-.91v-3h1Z" transform="translate(-2.17 -3.08)"/><path class="cls-1" d="M155.24,92.78h-2.91v-2c.2-.13.4-.26.6-.41a2.85,2.85,0,0,0,.53-.51,2.49,2.49,0,0,0,.36-.71,3.21,3.21,0,0,0,.13-.93,2.28,2.28,0,0,0-.64-1.68,2.77,2.77,0,0,0-3.52,0,2.24,2.24,0,0,0-.64,1.68,2.9,2.9,0,0,0,.13.93,2.49,2.49,0,0,0,.36.71,2.85,2.85,0,0,0,.53.51c.2.15.4.28.6.41v2h-2.92V91.9h2.08v-.63A3.79,3.79,0,0,1,148.62,90a3.21,3.21,0,0,1-.51-1.77,3,3,0,0,1,.95-2.29,4,4,0,0,1,5,0,3,3,0,0,1,1,2.29,3.21,3.21,0,0,1-.51,1.77,3.88,3.88,0,0,1-1.31,1.24v.63h2.07Z" transform="translate(-2.17 -3.08)"/><path class="cls-1" d="M179,90.67a2.19,2.19,0,0,1-.21,1,1.91,1.91,0,0,1-.57.71,2.71,2.71,0,0,1-.94.48A5.13,5.13,0,0,1,176,93h-2.67V85.45h2.23a9.17,9.17,0,0,1,1.23.06,2.45,2.45,0,0,1,.79.26,1.36,1.36,0,0,1,.6.56,1.7,1.7,0,0,1,.19.81,1.48,1.48,0,0,1-.28.92,1.89,1.89,0,0,1-.73.6v0a2.13,2.13,0,0,1,1.21.67A2,2,0,0,1,179,90.67Zm-1.69-3.39a1.09,1.09,0,0,0-.09-.47.76.76,0,0,0-.29-.3,1.41,1.41,0,0,0-.58-.17q-.33,0-.84,0h-1.19v2.18h1.29a4.72,4.72,0,0,0,.75,0,1.37,1.37,0,0,0,.52-.2.83.83,0,0,0,.34-.4A1.6,1.6,0,0,0,177.35,87.28Zm.65,3.43a1.62,1.62,0,0,0-.14-.72,1.13,1.13,0,0,0-.5-.46,1.59,1.59,0,0,0-.59-.16,6.74,6.74,0,0,0-.84,0h-1.57v2.81h1.32a7.69,7.69,0,0,0,1.08-.07,1.81,1.81,0,0,0,.69-.25,1.47,1.47,0,0,0,.42-.45A1.55,1.55,0,0,0,178,90.71Z" transform="translate(-2.17 -3.08)"/><path class="cls-1" d="M203.26,93H202l-3.57-6.74V93h-.94V85.48h1.55l3.26,6.16V85.48h.94Z" transform="translate(-2.17 -3.08)"/><path class="cls-1" d="M228.08,93h-1V86.53L225,91h-.6l-2.08-4.42V93h-.94V85.48h1.37l2,4.2,1.94-4.2h1.4Z" transform="translate(-2.17 -3.08)"/><rect class="cls-1" x="27.1" y="115.54" width="1" height="30.06"/><polygon class="cls-1" points="23.51 142.29 24.25 141.61 27.6 145.22 30.96 141.61 31.69 142.29 27.6 146.69 23.51 142.29"/><rect class="cls-1" x="100.08" y="115.54" width="1" height="30.06"/><polygon class="cls-1" points="96.49 142.29 97.23 141.61 100.58 145.22 103.94 141.61 104.67 142.29 100.58 146.69 96.49 142.29"/><rect class="cls-1" x="365.64" y="115.54" width="1" height="30.06"/><polygon class="cls-1" points="362.05 142.29 362.79 141.61 366.14 145.22 369.5 141.61 370.23 142.29 366.14 146.69 362.05 142.29"/><g id="Cross"><g id="Elipse_14-2" data-name="Elipse 14-2"><circle class="cls-2" cx="28.79" cy="170.63" r="14.57"/></g><g id="Cross-2"><path class="cls-1" d="M35.78,170.67l-2-2-3,3-3-3-2,2,3,3-3,3,2,2,3-3,3,3,2-2-3-3Z" transform="translate(-2.17 -3.08)"/></g></g><g id="Star"><g id="Elipse_10-2" data-name="Elipse 10-2"><circle class="cls-4" cx="100.61" cy="170.63" r="10.33"/></g><g id="Star-2"><path class="cls-1" d="M106.93,172.59l-2.79-.37-1.2-2.48-1.2,2.48-2.8.37,2,1.85-.54,2.72,2.49-1.35,2.48,1.35-.54-2.72Z" transform="translate(-2.17 -3.08)"/></g></g><g id="Heart"><g id="Elipse_13-2" data-name="Elipse 13-2"><circle class="cls-3" cx="366.13" cy="170.63" r="14.57"/></g><g id="Heart-2"><path class="cls-1" d="M368.31,178.66c5.67-4.45,5.45-6,5.45-7.26a2.75,2.75,0,0,0-2.73-2.72,3.55,3.55,0,0,0-2.72,1.81,3.55,3.55,0,0,0-2.72-1.81,2.74,2.74,0,0,0-2.72,2.72C362.87,172.62,362.64,174.21,368.31,178.66Z" transform="translate(-2.17 -3.08)"/></g></g></svg>